SplineFontDB: 3.2
FontName: HunterXHunter
FullName: HunterXHunter
FamilyName: HunterXHunter
Weight: Regular
Copyright: Copyright (c) 2022, OuTea
UComments: "2022-4-13: Created with FontForge (http://fontforge.org)"
Version: 001.002
ItalicAngle: 0
UnderlinePosition: -99
UnderlineWidth: 49
Ascent: 800
Descent: 200
InvalidEm: 0
LayerCount: 2
Layer: 0 0 "Back" 1
Layer: 1 0 "Fore" 0
XUID: [1021 988 142531715 14088]
FSType: 0
OS2Version: 0
OS2_WeightWidthSlopeOnly: 0
OS2_UseTypoMetrics: 1
CreationTime: 1649813769
ModificationTime: 1649922520
PfmFamily: 17
TTFWeight: 400
TTFWidth: 5
LineGap: 92
VLineGap: 0
OS2TypoAscent: 0
OS2TypoAOffset: 1
OS2TypoDescent: 0
OS2TypoDOffset: 1
OS2TypoLinegap: 92
OS2WinAscent: 0
OS2WinAOffset: 1
OS2WinDescent: 0
OS2WinDOffset: 1
HheadAscent: 0
HheadAOffset: 1
HheadDescent: 0
HheadDOffset: 1
OS2Vendor: 'PfEd'
MarkAttachClasses: 1
DEI: 91125
LangName: 1033
Encoding: Custom
UnicodeInterp: none
NameList: AGL For New Fonts
DisplaySize: -96
AntiAlias: 1
FitToEm: 0
WinInfo: 0 19 7
BeginPrivate: 0
EndPrivate
Grid
540 1300 m 0
 540 -700 l 1024
-1000 210 m 0
 2000 210 l 1024
399.998413086 1300 m 0
 399.998413086 -700 l 1024
  Named: "400"
-1000 100 m 0
 2000 100 l 1024
  Named: "100"
-1000 550 m 0
 2000 550 l 1024
  Named: "550"
600 1300 m 0
 600 -700 l 1024
  Named: "600"
-1000 -100 m 0
 2000 -100 l 1024
  Named: "100"
-1000 600.000915527 m 0
 2000 600.000915527 l 1024
  Named: "600"
-1000 250 m 0
 2000 250 l 1024
  Named: "250"
-1000 350 m 0
 2000 350 l 1024
  Named: "350"
-1003 150 m 0
 1997 150 l 1024
  Named: "150"
199.998306274 1300 m 0
 199.998306274 -700 l 1024
  Named: "200"
649.999633789 1300 m 0
 649.999633789 -700 l 1024
  Named: "650"
349.992950439 1300 m 0
 349.992950439 -700 l 1024
  Named: "350"
-1000 -50 m 0
 2000 -50 l 1024
  Named: "50"
-1000 400 m 0
 2000 400 l 1024
  Named: "400"
-1000 500 m 0
 2000 500 l 1024
  Named: "500"
-1000 50 m 0
 2000 50 l 1024
  Named: "50"
149.998413086 1300 m 0
 149.998413086 -700 l 1024

StartChar: NameMe.52
Encoding: 52 -1 0
Width: 1000
HStem: -180 80<396.944 603.55> 600 80<396.946 603.056>
VStem: 70 80<146.45 353.552> 850 80<146.944 353.55>
LayerCount: 2
Back
SplineSet
110 250 m 4
 110 446.496235513 301.776923926 640 500 640 c 4
 696.496235513 640 890 448.223076074 890 250 c 4
 890 53.5037644874 698.223076074 -140 500 -140 c 4
 301.781611323 -140 110 53.4990632149 110 250 c 4
EndSplineSet
Fore
SplineSet
500 600 m 0
 325 600 150 425 150 250 c 0
 150 75 325 -100 500 -100 c 0
 675 -100 850 75 850 250 c 0
 850 425 675 600 500 600 c 0
70 250 m 0
 70 470.899734427 282.083975341 680 500 680 c 0
 717.926858859 680 930 470.888950391 930 250 c 0
 930 32.073141141 720.888950391 -180 500 -180 c 0
 282.073141141 -180 70 29.1110496094 70 250 c 0
EndSplineSet
Validated: 1
EndChar

StartChar: uni3042
Encoding: 76 12354 2
Width: 1000
Flags: W
HStem: 310 80<368 632.069>
LayerCount: 2
Fore
SplineSet
352 390 m 0
 426 390 575 390 649 390 c 0
 655 390 661 390 666 390 c 1
 763 616 l 2
 769 630 784 640 800 640 c 0
 822 640 840 622 840 600 c 0
 840 594 839 589 837 584 c 0
 537 -116 537 -116 537 -116 c 2
 531 -130 516 -140 500 -140 c 0
 484 -140 469 -130 463 -116 c 2
 163 584 l 26
 160 590 160 594 160 600 c 0
 160 622 178 640 200 640 c 0
 216 640 231 630 237 616 c 2
 333.407226562 390.274414062 l 1
 338.797851562 390.284179688 345 390 352 390 c 0
368 310 m 1
 500 1.55859375 l 1
 632.069335938 309.719726562 l 1
 630.501953125 309.720703125 370 310 368 310 c 1
EndSplineSet
Validated: 1
EndChar

StartChar: uni3044
Encoding: 77 12356 3
Width: 600
Flags: W
HStem: 100 300<222.15 377.85>
VStem: 150 300<172.15 327.85>
LayerCount: 2
Fore
SplineSet
300 250 m 1049
150 250 m 28
 150 333 217 400 300 400 c 24
 383 400 450 333 450 250 c 24
 450 167 383 100 300 100 c 24
 217 100 150 167 150 250 c 28
EndSplineSet
Validated: 1
EndChar

StartChar: uni3046
Encoding: 78 12358 4
Width: 1000
Flags: W
HStem: 560.001 80<362.442 637.569>
VStem: 160 80<-135.621 461.738> 760 80<-135.621 461.703>
LayerCount: 2
Fore
SplineSet
500 640.000915527 m 0
 803.080095809 640.000915527 839.999999966 446.301246349 840 400 c 2
 840 -100 l 2
 840 -122.0766 822.0766 -140 800 -140 c 0
 777.9234 -140 760 -122.0766 760 -100 c 2
 760 399.679614261 l 2
 759.880861199 403.087797301 757.593393532 448.48912574 719.377005947 489.2534591 c 0
 687.128585135 523.651932096 625.38726839 560.000915527 500 560.000915527 c 0
 374.612743476 560.000915527 312.870999152 523.651931329 280.622163543 489.25332661 c 0
 262.395430447 469.811564598 252.368595935 449.453798903 246.759816823 432.702592295 c 0
 240.693696819 414.585489183 240.043242316 400.964239544 239.998307358 399.679379002 c 0
 239.998307358 233.119632057 240 66.5598851127 240 -99.9998618318 c 0
 240 -122.076461832 222.0766 -140 200 -140 c 0
 177.923446056 -140 160.000074783 -122.076674783 160 -100.000138168 c 2
 160 400.000345449 l 2
 160.000392812 446.380812407 196.986513705 640.000915527 500 640.000915527 c 0
EndSplineSet
Validated: 1
EndChar

StartChar: uni3048
Encoding: 79 12360 5
Width: 880
Flags: W
HStem: -40 80<254.726 625.274>
LayerCount: 2
Fore
SplineSet
440 410.549804688 m 5
 254.725585938 40 l 1
 625.274414062 40 l 1
 440 410.549804688 l 5
440 540 m 0
 455.6640625 540 469.236328125 530.977539062 475.80078125 517.849609375 c 2
 725.80078125 17.849609375 l 2
 728.487304688 12.4755859375 730 6.4130859375 730 0 c 0
 730 -22.076171875 712.076171875 -40 690 -40 c 2
 190 -40 l 2
 167.923828125 -40 150 -22.076171875 150 0 c 0
 150 6.4130859375 151.512695312 12.4755859375 154.19921875 17.849609375 c 2
 404.19921875 517.849609375 l 2
 410.763671875 530.977539062 424.3359375 540 440 540 c 0
EndSplineSet
Validated: 1
EndChar

StartChar: uni304A
Encoding: 80 12362 6
Width: 1000
Flags: W
HStem: -100 80<395.493 604.507> 520 80<395.493 604.507>
VStem: 150 80<145.493 354.507> 770 80<145.493 354.507>
LayerCount: 2
Fore
SplineSet
500 520 m 24
 351 520 230 399 230 250 c 24
 230 101 351 -20 500 -20 c 24
 649 -20 770 101 770 250 c 24
 770 399 649 520 500 520 c 24
500 600 m 28
 693 600 850 443 850 250 c 24
 850 57 693 -100 500 -100 c 24
 307 -100 150 57 150 250 c 24
 150 443 307 600 500 600 c 28
EndSplineSet
Validated: 1
EndChar

StartChar: uni304B
Encoding: 81 12363 7
Width: 1000
Flags: W
HStem: -40 80<114.393 429 571 885.607>
LayerCount: 2
Fore
SplineSet
160 500 m 0
 160 522 178 540 200 540 c 0
 215 540 227 532 234 521 c 2
 500 78 l 1
 766 521 l 2
 773 532 785 540 800 540 c 0
 822 540 840 522 840 500 c 0
 840 492 838 485 834 479 c 2
 571 40 l 1
 850 40 l 2
 872 40 890 22 890 0 c 0
 890 -22 872 -40 850 -40 c 2
 150 -40 l 2
 128 -40 110 -22 110 0 c 0
 110 22 128 40 150 40 c 2
 429 40 l 1
 166 479 l 2
 162 485 160 492 160 500 c 0
EndSplineSet
Validated: 1
EndChar

StartChar: uni304D
Encoding: 82 12365 8
Width: 700
Flags: W
HStem: 100 300<312.15 467.85>
VStem: 160 80<-135.607 635.607>
LayerCount: 2
Fore
SplineSet
160 600 m 2
 160 622 178 640 200 640 c 0
 222 640 240 622 240 600 c 2
 240 250 l 1
 240 333 307 400 390 400 c 24
 473 400 540 333 540 250 c 24
 540 167 473 100 390 100 c 24
 307 100 240 167 240 250 c 5
 240 -100 l 2
 240 -122 222 -140 200 -140 c 0
 178 -140 160 -122 160 -100 c 2
 160 600 l 2
EndSplineSet
Validated: 5
EndChar

StartChar: uni304F
Encoding: 83 12367 9
Width: 1000
Flags: W
HStem: -140 80<280.302 420.535>
VStem: 160 80<-19.2112 635.607> 460 80<-18.1605 153 347 635.607>
LayerCount: 2
Fore
SplineSet
350 -140 m 0
 196 -140 160 -8 160 50 c 2
 160 600 l 2
 160 622 178 640 200 640 c 0
 222 640 240 622 240 600 c 2
 240 50 l 1
 240 50 240 50 240 49 c 0
 240 43 244 -20 290 -46 c 0
 304 -54 323 -60 350 -60 c 0
 399 -60 433 -41 450 4 c 0
 460 28 460 46 460 49 c 0
 460 50 460 50 460 50 c 1
 460 600 l 2
 460 622 478 640 500 640 c 0
 522 640 540 622 540 600 c 2
 540 347 l 1
 772 603 l 2
 779 611 789 615 800 615 c 0
 822 615 840 597 840 575 c 0
 840 564 836 554 828 547 c 2
 557 250 l 1
 828 -47 l 2
 836 -54 840 -64 840 -75 c 0
 840 -97 822 -115 800 -115 c 0
 789 -115 779 -111 772 -103 c 2
 540 153 l 1
 540 50 l 2
 539.99887026 -4.37208458574 506 -140 350 -140 c 0
EndSplineSet
Validated: 1
EndChar

StartChar: uni3051
Encoding: 84 12369 10
Width: 1000
Flags: W
HStem: 210 80<240 385.807>
VStem: 160 80<-135.621 210 290 635.622> 759.999 80<9.0307 490.969>
LayerCount: 2
Fore
SplineSet
799.998779297 615 m 0
 822.075379297 615 839.998779297 597.0766 839.998779297 575 c 2
 839.998779297 -75 l 2
 839.998779297 -97.0766 822.075379297 -115 799.998779297 -115 c 0
 790.452002608 -115 781.68188781 -111.648265981 774.801995803 -106.058358843 c 0
 385.806736477 210 385.806736477 210 385.806736477 210 c 1
 240 210 l 1
 240 -100 l 2
 240 -122.0766 222.0766 -140 200 -140 c 0
 177.9234 -140 160 -122.0766 160 -100 c 0
 160 600.000915527 160 600.000915527 160 600.000915527 c 2
 160 622.077515527 177.9234 640.000915527 200 640.000915527 c 0
 222.0766 640.000915527 240 622.077515527 240 600.000915527 c 2
 240 290 l 1
 385.806736477 290 l 1
 774.801995803 606.058358843 l 2
 781.68188781 611.648265981 790.452002608 615 799.998779297 615 c 0
463.420903998 250 m 1
 759.998779297 9.0306969337 l 1
 759.998779297 490.969303066 l 1
 463.420903998 250 l 1
EndSplineSet
Validated: 1
EndChar

StartChar: uni3053
Encoding: 85 12371 11
Width: 1000
Flags: W
HStem: -140 80<604.213 745.787> 210 80<604.213 747.9> 560.001 80<190 810>
VStem: 110 80<214.379 560.001> 460 80<4.21328 145.787> 810 80<4.03092 147.737 234.78 560.001>
CounterMasks: 1 1c
LayerCount: 2
Fore
SplineSet
150 250 m 1024
810 75 m 28
 810 149 749 210 675 210 c 24
 601 210 540 149 540 75 c 24
 540 1 601 -60 675 -60 c 24
 749 -60 810 1 810 75 c 28
809.99961797 560.000915527 m 5
 190 560.000915527 l 1
 190 250 l 2
 190 227.9234 172.0766 210 150 210 c 0
 127.9234 210 110 227.9234 110 250 c 2
 110 600.000915527 l 2
 110 622.077515527 127.9234 640.000915527 150 640.000915527 c 2
 850 640.000915527 l 2
 872.0766 640.000915527 889.999999998 622.07712597 889.999999998 600.00052597 c 2
 889.999999998 190.999610443 l 2
 889.999999998 176.330155643 882.084215882 163.49452127 870.295426357 156.532773555 c 1
 882.812280411 130.594239119 890 102.797119559 890 75 c 4
 890 -32.5 794 -140 675 -140 c 24
 556 -140 460 -44 460 75 c 24
 460 194 556 290 675 290 c 20
 723.235986732 290 771.471973464 268.356182177 809.996230807 234.780275919 c 1
 809.996230807 343.187155788 810 433 809.99961797 560.000915527 c 5
EndSplineSet
Validated: 33
EndChar

StartChar: uni3055
Encoding: 86 12373 12
Width: 1000
Flags: W
HStem: -40 80<280.448 420.654> 460 80<579.21 719.552>
VStem: 160 79.9928<80.7842 150 150 535.621> 460.007 79.9928<81.8395 150 150 418.161> 760 80<-35.6213 350 350 419.216>
LayerCount: 2
Fore
SplineSet
350 -40 m 0
 196.136053229 -40 160 92.4861238456 160 149.549424227 c 2
 160 499.999802617 l 2
 160 522.076402617 177.921706274 540 199.998306274 540 c 0
 222.07484048 540 239.998199441 522.076706833 239.998306274 500.000197383 c 2
 239.998306274 150 l 1
 239.998306274 150 239.992840491 149.777763501 239.992840491 149.347759943 c 0
 239.992840491 142.781998696 243.727500896 80.3431058927 290.378917984 53.6851532712 c 0
 304.021179013 45.8895755401 322.703534601 40 350 40 c 0
 399.075727276 40 433.264706334 59.089401181 450.497841854 104.387928834 c 0
 459.519610215 128.102291382 460.007159509 145.799301684 460.007159509 149.347759943 c 0
 460.007159509 149.777763501 460 150 460 150 c 1
 460 349.99990044 l 2
 460.001129751 404.373120184 494.005951762 540 649.999633789 540 c 0
 803.863915901 540 840 407.51361186 840 350.449172782 c 2
 840 0 l 2
 840 -22.0766 822.0766 -40 800 -40 c 0
 777.9234 -40 760 -22.0766 760 0 c 2
 760 350 l 1
 760 350 760.007157934 350.222203103 760.007157934 350.65214328 c 0
 760.007157934 357.217186091 756.272620565 419.656679037 709.620782879 446.31483481 c 0
 695.97848152 454.110424711 677.296098553 460 649.999633789 460 c 0
 611.407842162 460 575.774272187 448.575572303 555.074319951 408.185618814 c 0
 546.726146226 391.896578888 540.963672175 369.85118176 540 350.000000011 c 2
 540 150 l 2
 539.99887026 95.6279154143 505.994259302 -40 350 -40 c 0
EndSplineSet
Validated: 1
EndChar

StartChar: uni3057
Encoding: 87 12375 13
Width: 1000
Flags: W
HStem: -150 300<422.15 577.85> 310 80<165.357 835.222> 560.001 80<165.357 835.222>
VStem: 350 300<-77.8503 77.8503>
LayerCount: 2
Fore
SplineSet
350 -0 m 24
 350 83 417 150 500 150 c 24
 583 150 650 83 650 -0 c 24
 650 -83 583 -150 500 -150 c 28
 417 -150 350 -83 350 -0 c 24
199.998046875 560.000976562 m 2
 183.194335938 560.000976562 159.998046875 577.923828125 159.998046875 600.000976562 c 0
 159.998046875 622.077148438 183.194335938 640.000976562 199.998046875 640.000976562 c 2
 799.999023438 640.000976562 l 2
 819.933094053 640.000976562 839.999023438 622.077148438 839.999023438 600.000976562 c 0
 839.999023438 577.924804688 819.933094053 560.000976562 799.999023438 560.000976562 c 2
 199.998046875 560.000976562 l 2
199.998046875 310 m 2
 183.194335938 310 159.998046875 327.923828125 159.998046875 350 c 0
 159.998046875 372.076171875 183.194335938 390 199.998046875 390 c 2
 799.999023438 390 l 2
 819.932617188 390 839.999023438 372.077148438 839.999023438 350 c 0
 839.999023438 327.923828125 819.932617188 310 799.999023438 310 c 2
 199.998046875 310 l 2
EndSplineSet
Validated: 1
EndChar

StartChar: uni3059
Encoding: 88 12377 14
Width: 1000
Flags: W
HStem: -40 80<164.377 522.429> 460 80<164.377 521.878>
VStem: 560 79.4749<92.3893 218.543>
LayerCount: 2
Fore
SplineSet
497.911228581 40 m 1
 515.554931742 44.328582641 560 87.8415784195 560 250 c 0
 560 282.643142268 558.465355361 367.574930147 532.03783109 422.190448944 c 0
 526.435565287 432.809547642 514.492570144 455.447503181 497.722784178 460 c 1
 199.998306274 460 l 2
 177.921706274 460 159.998306274 477.9234 159.998306274 500 c 0
 159.998306274 522.0766 177.921706274 540 199.998306274 540 c 2
 500 540 l 2
 507.126750357 539.999999991 562.311169181 536.26674248 603.821994517 457.582944396 c 0
 835.40171863 18.6234174449 835.40171863 18.6234174449 835.40171863 18.6234174449 c 2
 838.33682178 13.0599273973 839.998779297 6.72251762139 839.998779297 3.11903280981e-15 c 0
 839.998779297 -22.0766 822.075379297 -40 799.998779297 -40 c 0
 784.644696918 -40 771.299550998 -31.3303063389 764.595839963 -18.6234174449 c 2
 639.474917911 218.543376696 l 1
 636.14128003 121.521219868 617.254618212 60.7840102257 592.014662608 21.3465795949 c 0
 572.589271675 -9.00559373873 549.20836589 -25.5671025768 530.422812966 -33.2660996766 c 0
 515.497040086 -39.3832197093 504.156809579 -39.9999999946 500 -40 c 2
 199.998306274 -40 l 2
 177.921706274 -40 159.998306274 -22.0766 159.998306274 0 c 0
 159.998306274 22.0766 177.921706274 40 199.998306274 40 c 2
 497.911228581 40 l 1
EndSplineSet
Validated: 1
EndChar

StartChar: uni305B
Encoding: 89 12379 15
Width: 1000
Flags: W
HStem: 210 80<236.96 453.875 546.125 763.04>
LayerCount: 2
Fore
SplineSet
850 250 m 1024
850 250 m 1024
422.887300401 506.91557621 m 1
 236.95966365 290 l 1
 453.875239859 290 l 1
 422.887300401 506.91557621 l 1
850 290 m 2
 872.0766 290 890 272.0766 890 250 c 0
 890 240.072927809 886.375914962 230.985626531 880.379753226 223.990104506 c 2
 580.379753226 -126.009895494 l 2
 573.041181253 -134.571562796 562.149527809 -140 550 -140 c 0
 529.857465017 -140 513.172306892 -125.07946923 510.403426846 -105.69730891 c 2
 465.303811288 210 l 1
 150 210 l 2
 127.9234 210 110 227.9234 110 250 c 0
 110 259.927072191 113.624085038 269.014373469 119.620246774 276.009895494 c 2
 419.620246774 626.009895494 l 2
 426.958818747 634.571562796 437.850472191 640 450 640 c 0
 470.142534983 640 486.827693108 625.07946923 489.596573154 605.69730891 c 2
 534.696188712 290 l 1
 850 290 l 2
546.124760141 210 m 1
 577.112699599 -6.91557620954 l 1
 763.04033635 210 l 1
 546.124760141 210 l 1
EndSplineSet
Validated: 1
EndChar

StartChar: uni305D
Encoding: 90 12381 16
Width: 750
Flags: W
HStem: -140 80<304.213 445.787> 210 80<310.898 439.102> 560 80<310.802 439.197>
VStem: 160 80<4.21328 146.779 362.691 488.308> 510 80<4.21328 146.779 362.692 488.309>
CounterMasks: 1 e0
LayerCount: 2
Fore
SplineSet
510 425 m 0
 510 489.182617188 436.86328125 560 375 560 c 0
 313.134765625 560 240 489.180664062 240 425 c 0
 240 360.817382812 313.13671875 290 375 290 c 0
 436.865234375 290 510 360.819335938 510 425 c 0
375 640 m 24
 494 640 590 544 590 425 c 16
 590 357.985351562 548.224609375 290.971679688 490.71484375 250 c 1
 548.224609375 209.028320312 590 142.014648438 590 75 c 8
 590 -44 494 -140 375 -140 c 24
 256 -140 160 -44 160 75 c 16
 160 142.014648438 201.775390625 209.028320312 259.28515625 250 c 1
 201.775390625 290.971679688 160 357.985351562 160 425 c 8
 160 544 256 640 375 640 c 24
375 210 m 24
 301 210 240 149 240 75 c 24
 240 1 301 -60 375 -60 c 24
 449 -60 510 1 510 75 c 24
 510 149 449 210 375 210 c 24
EndSplineSet
Validated: 1
EndChar

StartChar: uni305F
Encoding: 91 12383 17
Width: 1000
Flags: W
HStem: -140 80<114.379 460 540 885.621>
VStem: 460 80<-60 634.734>
LayerCount: 2
Fore
SplineSet
460 600 m 2
 460 617.306161195 477.923828125 640 500 640 c 0
 522.076171875 640 540 617.306161195 540 600 c 2
 540 -60 l 1
 850 -60 l 2
 872.076171875 -60 890 -77.923828125 890 -100 c 0
 890 -122.076171875 872.076171875 -140 850 -140 c 0
 616.666992188 -140 383.333007812 -140 150 -140 c 0
 127.923828125 -140 110 -122.076171875 110 -100 c 0
 110 -77.923828125 127.923828125 -60 150 -60 c 2
 460 -60 l 1
 460 600 l 2
EndSplineSet
Validated: 1
EndChar

StartChar: uni3061
Encoding: 92 12385 18
Width: 1000
Flags: W
HStem: 310 80<164.377 199.998 799.999 835.62>
VStem: 350 300<-77.7558 76.6714> 460 80<144.599 309.88 600.001 635.622>
LayerCount: 2
Fore
SplineSet
540 144.598632812 m 1xa0
 540 144.598443217 540 310 540 310 c 1
 799.999023438 310 l 2
 822.075623437 310 839.999023438 327.9234 839.999023438 350 c 0
 839.999023438 372.0766 822.075623437 390 799.999023438 390 c 2
 540 390 l 1
 540 600.000915527 l 2
 540 622.077515527 522.0766 640.000915527 500 640.000915527 c 0
 477.9234 640.000915527 460 622.077515527 460 600.000915527 c 2
 460 390 l 1
 199.998046875 390 l 2
 177.921446875 390 159.998046875 372.0766 159.998046875 350 c 0
 159.998046875 327.9234 177.921446875 310 199.998046875 310 c 2
 460 310 l 1
 460 310 460 144.598443217 460 144.598632812 c 1xa0
 396.60546875 127.075195312 350 71 350 -0 c 20
 350 -82.787109375 417 -150 500 -150 c 24
 583 -150 650 -83 650 -0 c 16xc0
 650 68.9373017468 603.39453125 127.075195312 540 144.598632812 c 1xa0
EndSplineSet
Validated: 41
EndChar

StartChar: uni3064
Encoding: 93 12388 19
Width: 1000
Flags: W
HStem: -140 80<362.442 637.569>
VStem: 160 79.998<38.2634 100.321 600.001 635.622> 359.998 80<198.378 620.621> 560 80<198.378 620.621> 760 80<38.2974 100.321 600.001 635.622>
LayerCount: 2
Fore
SplineSet
500 -140 m 0
 803.080078125 -140 840 53.69921875 840 100.000976562 c 2
 840 600.000976562 l 2
 840 622.077148438 822.076171875 640.000976562 800 640.000976562 c 0
 777.923828125 640.000976562 760 622.077148438 760 600.000976562 c 2
 760 100.321289062 l 2
 759.880859375 96.9130859375 757.59375 51.51171875 719.376953125 10.7470703125 c 0
 687.12890625 -23.6513671875 625.387695312 -60 500 -60 c 0
 374.612304688 -60 312.87109375 -23.6513671875 280.622070312 10.7470703125 c 0
 262.395507812 30.189453125 252.368164062 50.546875 246.759765625 67.2978515625 c 0
 240.693359375 85.4150390625 240.04296875 99.0361328125 239.998046875 100.321289062 c 0
 239.998046875 266.880859375 240 433.44140625 240 600.000976562 c 0
 240 622.077148438 222.076171875 640.000976562 200 640.000976562 c 0
 177.923828125 640.000976562 160 622.077148438 160 600.000976562 c 2
 160 100.000976562 l 2
 160 53.6201171875 196.986328125 -140 500 -140 c 0
359.998046875 585 m 2
 359.998046875 607.076171875 377.921875 625 399.998046875 625 c 0
 422.07421875 625 439.998046875 607.076171875 439.998046875 585 c 2
 439.998046875 233.999023438 l 2
 439.998046875 211.922851562 422.07421875 193.999023438 399.998046875 193.999023438 c 0
 377.921875 193.999023438 359.998046875 211.922851562 359.998046875 233.999023438 c 2
 359.998046875 585 l 2
560 585 m 2
 560 607.076171875 577.923828125 625 600 625 c 0
 622.076171875 625 640 607.076171875 640 585 c 2
 640 233.999023438 l 2
 640 211.922851562 622.076171875 193.999023438 600 193.999023438 c 0
 577.923828125 193.999023438 560 211.922851562 560 233.999023438 c 2
 560 585 l 2
EndSplineSet
Validated: 9
EndChar

StartChar: uni3066
Encoding: 94 12390 20
Width: 1000
Flags: W
HStem: 310 80<246.557 753.443> 460 80<114.379 885.621>
LayerCount: 2
Fore
SplineSet
150 460 m 2
 127.9234 460 110 477.9234 110 500 c 0
 110 522.0766 127.9234 540 150 540 c 2
 850 540 l 2
 872.0766 540 890 522.0766 890 500 c 0
 890 477.9234 872.0766 460 850 460 c 2
 150 460 l 2
150 390 m 2
 850 390 l 2
 872.0766 390 890 372.0766 890 350 c 0
 890 338.9617 885.51915 328.9617 878.278725 321.721275 c 2
 528.278725 -28.278725 l 2
 521.0383 -35.51915 511.0383 -40 500 -40 c 0
 488.9617 -40 478.9617 -35.51915 471.721275 -28.278725 c 2
 121.721275 321.721275 l 2
 114.48085 328.9617 110 338.9617 110 350 c 0
 110 372.0766 127.9234 390 150 390 c 2
246.55745 310 m 1
 500 56.55745 l 1
 753.44255 310 l 1
 246.55745 310 l 1
EndSplineSet
Validated: 1
EndChar

StartChar: uni3068
Encoding: 95 12392 21
Width: 1000
Flags: W
HStem: -36.5755 81.7434<411.147 460 540 588.851> 454.783 81.7649<411.494 460 540 588.853>
VStem: 210 80<168.885 331.671> 460 80<-135.621 -32.6972 45.2172 454.783 532.697 635.622> 710 80<168.611 331.388>
CounterMasks: 1 38
LayerCount: 2
Fore
SplineSet
460 600.000915527 m 2
 460 622.077515527 477.9234 640.000915527 500 640.000915527 c 0
 522.0766 640.000915527 540 622.077515527 540 600.000915527 c 2
 540 536.575476922 l 1
 672.738923391 513.990067895 790 383.223059427 790 250 c 0
 790 116.771034819 672.734026525 -13.9901933282 540 -36.5753657711 c 1
 540 -100 l 2
 540 -122.0766 522.0766 -140 500 -140 c 0
 477.9234 -140 460 -122.0766 460 -100 c 2
 460 -36.5754769218 l 1
 327.261076609 -13.9900678951 210 116.776940573 210 250 c 0
 210 384.677881522 328.470253307 514.020492139 460 536.547652675 c 1
 460 600.000915527 l 2
540 45.2172486513 m 1
 628.263948629 67.8069499198 710 160.098016912 710 250 c 0
 710 339.903907307 628.2625068 432.193099314 540 454.782672036 c 1
 540 45.2172486513 l 1
460 45.1678863809 m 1
 460 454.782751349 l 1
 371.736051371 432.19305008 290 339.901983088 290 250 c 0
 290 161.317840542 370.823598207 67.8388200243 460 45.1678863809 c 1
EndSplineSet
Validated: 1
EndChar

StartChar: uni306A
Encoding: 96 12394 22
Width: 1000
Flags: W
HStem: -40 80<274.812 885.621> 460 80<114.379 725.188>
LayerCount: 2
Fore
SplineSet
850 40 m 2
 872.0766 40 890 22.0766 890 0 c 0
 890 -22.0766 872.0766 -40 850 -40 c 2
 150 -40 l 2
 127.9234 -40 110 -22.0766 110 5.85989590185e-15 c 0
 110 13.4249522738 116.627985052 25.3140716409 126.787377807 32.5707807513 c 2
 725.188284755 460 l 1
 150 460 l 2
 127.9234 460 110 477.9234 110 500 c 0
 110 522.0766 127.9234 540 150 540 c 2
 850 540 l 2
 872.0766 540 890 522.0766 890 500 c 0
 890 486.575047726 883.372014948 474.685928359 873.212622193 467.429219249 c 2
 274.811715245 40 l 1
 850 40 l 2
EndSplineSet
Validated: 1
EndChar

StartChar: uni306B
Encoding: 97 12395 23
Width: 1000
Flags: W
HStem: -140 80<114.831 885.607> 100 300<422.15 577.85> 560.001 80<165.357 835.222>
VStem: 350 300<172.15 327.85>
LayerCount: 2
Fore
SplineSet
850 -60 m 0
 872 -60 890 -77.923828125 890 -100 c 0
 890 -122.076171875 872.076171875 -140 850 -140 c 0
 616.666992188 -140 383.333007812 -140 150 -140 c 0
 127.923828125 -140 110 -122.076171875 110 -100 c 0
 110 -77.923828125 130 -60 150 -60 c 0
 383.333333333 -60 616.666666667 -60 850 -60 c 0
199.998046875 560.000976562 m 2
 183.194335938 560.000976562 159.998046875 577.923828125 159.998046875 600.000976562 c 0
 159.998046875 622.077148438 183.194335938 640.000976562 199.998046875 640.000976562 c 2
 799.999023438 640.000976562 l 2
 819.933094053 640.000976562 839.999023438 622.077148438 839.999023438 600.000976562 c 0
 839.999023438 577.924804688 819.933094053 560.000976562 799.999023438 560.000976562 c 2
 199.998046875 560.000976562 l 2
350 250 m 24
 350 333 417 400 500 400 c 24
 583 400 650 333 650 250 c 24
 650 167 583 100 500 100 c 28
 417 100 350 167 350 250 c 24
EndSplineSet
Validated: 1
EndChar

StartChar: uni306C
Encoding: 98 12396 24
Width: 1000
Flags: W
HStem: 560.001 80<362.307 637.569>
VStem: 160 80<-135.621 461.738> 760 80<8.00574 461.703>
LayerCount: 2
Fore
SplineSet
262.11831546 465.254475961 m 1
 260.660420713 462.923114897 241.096590997 431.083465572 239.998307358 399.679379002 c 0
 239.998307358 233.119632057 240 66.5598851127 240 -99.9998618318 c 0
 240 -122.076461832 222.0766 -140 200 -140 c 0
 177.923446056 -140 160.000074783 -122.076674783 160 -100.000138168 c 2
 160 400.000345449 l 2
 160.000392812 446.380812407 196.986513705 640.000915527 500 640.000915527 c 0
 803.080095809 640.000915527 839.999999966 446.301246349 840 400 c 2
 840 -100 l 2
 840 -122.0766 822.0766 -140 800 -140 c 0
 794.21793831 -140 780.393863102 -138.561696049 769.638227554 -126.030858517 c 2
 262.11831546 465.254475961 l 1
500 560.000915527 m 0
 413.397009578 560.000915527 357.155766561 542.660829188 320.023427386 520.599804218 c 1
 760 8.00573903724 l 1
 760 399.679614261 l 2
 759.880861199 403.087797301 757.593393532 448.48912574 719.377005947 489.2534591 c 0
 687.128585135 523.651932096 625.38726839 560.000915527 500 560.000915527 c 0
EndSplineSet
Validated: 1
EndChar

StartChar: uni306D
Encoding: 99 12397 25
Width: 1000
Flags: W
VStem: 109.998 80.0002<77.7227 422.276> 809.997 80<77.7228 422.275>
LayerCount: 2
Fore
SplineSet
109.998413086 500 m 2
 109.998413086 522.0766 127.921813086 540 149.998413086 540 c 0
 153.233218599 540 163.347420319 539.71371626 173.420649163 532.421056144 c 2
 499.998394473 299.150607538 l 1
 826.457154019 532.334907152 l 2
 833.063619802 537.154637051 841.200407461 540 850 540 c 0
 872.075528795 540 889.996520996 522.078339323 889.996520996 500 c 0
 889.996520996 0 889.996520996 0 889.996520996 0 c 2
 889.996520996 -22.0766 872.073120996 -40 849.996520996 -40 c 0
 841.344854868 -40 833.331037874 -37.2473212998 826.783857025 -32.5707509101 c 2
 499.998279106 200.84814996 l 1
 173.21100024 -32.5708057792 l 2
 166.663833525 -37.2473428308 158.650045378 -39.9998705451 149.998413086 -39.9998705451 c 0
 127.921813086 -39.9998705451 109.998413086 -22.0764705451 109.998413086 0.000129454899226 c 2
 109.998413086 500 l 2
568.810042095 249.999297811 m 1
 809.996520996 77.7227757916 l 1
 809.996520996 422.274963616 l 1
 568.810042095 249.999297811 l 1
431.186631485 249.999459688 m 1
 189.999880502 422.276176051 l 1
 189.999880502 307.425026562 189.998659765 192.573877074 189.998659765 77.7227275852 c 1
 431.186631485 249.999459688 l 1
EndSplineSet
Validated: 1
EndChar

StartChar: uni306E
Encoding: 100 12398 26
Width: 1000
Flags: W
HStem: -140 80<114.379 287.82> 210 80<254.213 395.787> 560 80<254.213 395.787>
VStem: 110 80<354.213 495.787> 460 80<354.213 495.787> 810 80<462.694 635.622>
CounterMasks: 1 fc
LayerCount: 2
Fore
SplineSet
150 -60 m 0
 478.456340382 -60 810 273.190270707 810 600.000915527 c 0
 810 622.077515527 827.9234 640.000915527 850 640.000915527 c 0
 872.0766 640.000915527 890 622.077515527 890 600.000915527 c 0
 890 226.781269407 521.503791519 -140 150 -140 c 0
 127.9234 -140 110 -122.0766 110 -100 c 0
 110 -77.9234 127.9234 -60 150 -60 c 0
325 640 m 24
 444 640 540 544 540 425 c 24
 540 306 444 210 325 210 c 24
 206 210 110 306 110 425 c 24
 110 544 206 640 325 640 c 24
460 425 m 24
 460 499 399 560 325 560 c 24
 251 560 190 499 190 425 c 24
 190 351 251 290 325 290 c 28
 399 290 460 351 460 425 c 24
EndSplineSet
Validated: 1
EndChar

StartChar: uni306F
Encoding: 101 12399 27
Width: 1000
Flags: W
HStem: -40 80<114.379 460 540 885.621> 460 80<114.379 460 540 885.621>
VStem: 460 80<40 460>
LayerCount: 2
Fore
SplineSet
150 460 m 2
 127.9234 460 110 477.9234 110 500 c 0
 110 522.0766 127.9234 540 150 540 c 0
 383.333333333 540 616.666666667 540 850 540 c 0
 872.0766 540 890 522.0766 890 500 c 0
 890 477.9234 872.0766 460 850 460 c 2
 540 460 l 1
 540 40 l 1
 850 40 l 2
 872.0766 40 890 22.0766 890 0 c 0
 890 -22.0766 872.0766 -40 850 -40 c 0
 616.666666667 -40 383.333333333 -40 150 -40 c 0
 127.9234 -40 110 -22.0766 110 0 c 0
 110 22.0766 127.9234 40 150 40 c 2
 460 40 l 1
 460 460 l 1
 150 460 l 2
EndSplineSet
Validated: 1
EndChar

StartChar: uni3072
Encoding: 102 12402 28
Width: 1000
Flags: W
HStem: -140 80<190 885.621> 200 300<522.15 677.85>
VStem: 110 80<-60 635.622> 450 300<272.15 427.85>
LayerCount: 2
Fore
SplineSet
450 350 m 24
 450 433 517 500 600 500 c 24
 683 500 750 433 750 350 c 24
 750 267 683 200 600 200 c 28
 517 200 450 267 450 350 c 24
150 640.000915527 m 0
 172.0766 640.000915527 190 622.077515527 190 600.000915527 c 2
 190 -60 l 1
 850 -60 l 2
 872.0766 -60 890 -77.9234 890 -100 c 0
 890 -122.0766 872.0766 -140 850 -140 c 2
 150 -140 l 2
 127.9234 -140 110 -122.0766 110 -100 c 2
 110 600.000915527 l 2
 110 622.077515527 127.9234 640.000915527 150 640.000915527 c 0
EndSplineSet
Validated: 1
EndChar

StartChar: uni3075
Encoding: 103 12405 29
Width: 1000
Flags: W
HStem: -40 80<114.377 720.258> 460 80<114.379 721.234>
VStem: 810.001 80<136.08 362.891>
LayerCount: 2
Fore
SplineSet
890.000976562 250 m 0
 890.000976562 -0.880840382675 704.340330287 -40.0063531154 650.802250685 -40.0063531154 c 2
 149.998046875 -40 l 2
 127.921446875 -40 109.998046875 -22.0766 109.998046875 0 c 0
 109.998046875 22.0766 127.921446875 40 149.998046875 40 c 2
 649.778444223 40 l 2
 656.160374898 40.1500202634 741.166691459 43.675393919 783.99598442 125.317537697 c 0
 798.938516711 153.801322633 810.000976562 193.603719306 810.000976562 250 c 0
 810.000976562 328.496600529 788.487001036 405.785139762 715.552436943 442.252955994 c 0
 713.755046406 443.151664427 681.108277222 459.264938033 649.780120627 460.00195227 c 0
 483.186800195 460.00195227 316.593479762 460 150.000159329 460 c 0
 127.923559329 460 110 477.9234 110 500 c 0
 110 522.07654689 127.923313763 539.999913763 149.999840671 540 c 2
 650.000398346 540 l 2
 707.260963354 539.999440781 890.000976562 498.849356877 890.000976562 250 c 0
EndSplineSet
Validated: 1
EndChar

StartChar: uni3078
Encoding: 104 12408 30
Width: 1000
Flags: W
HStem: 460 80<114.379 885.621>
LayerCount: 2
Fore
SplineSet
150 460 m 2
 127.9234 460 110 477.9234 110 500 c 0
 110 522.0766 127.9234 540 150 540 c 2
 850 540 l 2
 872.0766 540 890 522.0766 890 500 c 0
 890 477.9234 872.0766 460 850 460 c 2
 150 460 l 2
149.99609375 -40 m 2
 849.99609375 -40 l 2
 872.072265625 -40 889.99609375 -22.076171875 889.99609375 -0 c 0
 889.99609375 11.0380859375 885.515625 21.0380859375 878.274414062 28.2783203125 c 2
 528.274414062 378.278320312 l 2
 521.034179688 385.51953125 511.034179688 390 499.99609375 390 c 0
 488.958007812 390 478.958007812 385.51953125 471.717773438 378.278320312 c 2
 121.717773438 28.2783203125 l 2
 114.4765625 21.0380859375 109.99609375 11.0380859375 109.99609375 -0 c 0
 109.99609375 -22.076171875 127.919921875 -40 149.99609375 -40 c 2
246.553710938 40 m 1
 499.99609375 293.442382812 l 1
 753.438476562 40 l 1
 246.553710938 40 l 1
EndSplineSet
Validated: 9
EndChar

StartChar: uni307B
Encoding: 105 12411 31
Width: 1000
Flags: W
LayerCount: 2
Fore
SplineSet
234 210 m 0
 460 210 l 1
 460 -16 l 0
 353.909179688 4.69921875 254.62454431 103.895917741 234 210 c 0
500 600 m 0
 325 600 150 425 150 250 c 0
 150 75 325 -100 500 -100 c 0
 675 -100 850 75 850 250 c 0
 850 425 675 600 500 600 c 0
766 290 m 0
 540 290 l 1
 540 516 l 0
 646.104082259 495.37545569 745.220900403 396.899200277 766 290 c 0
540 210 m 1
 766 210 l 1
 745.37545569 103.895917741 646.104082259 4.62454431025 540 -16 c 1
 540 210 l 1
234 290 m 1
 254.779099597 396.899200277 353.895917741 495.37545569 460 516 c 0
 460 290 l 1
 234 290 l 1
EndSplineSet
Validated: 9
EndChar

StartChar: uni307E
Encoding: 106 12414 32
Width: 1000
Flags: W
HStem: -40 80<114.379 619.049 863.44 885.621> 460 80<114.379 619.049 863.44 885.621>
LayerCount: 2
Fore
SplineSet
890 -1.0616507673e-15 m 0
 890 -22.0766 872.0766 -40 850 -40 c 2
 150 -40 l 2
 127.9234 -40 110 -22.0766 110 0 c 0
 110 22.0766 127.9234 40 150 40 c 2
 619.049364685 40 l 1
 136.559605945 212.317770979 l 2
 121.086009363 217.844055472 110 232.637605861 110 250 c 0
 110 267.362394139 121.086009363 282.155944528 136.559605945 287.682229021 c 2
 619.049364685 460 l 1
 150 460 l 2
 127.9234 460 110 477.9234 110 500 c 0
 110 522.0766 127.9234 540 150 540 c 2
 850 540 l 2
 872.0766 540 890 522.0766 890 500 c 0
 890 482.637605861 878.913990637 467.844055472 863.440394055 462.317770979 c 2
 268.950635315 250 l 1
 863.440394055 37.6822290214 l 2
 878.913990637 32.1559445279 890 17.3623941394 890 -1.0616507673e-15 c 0
EndSplineSet
Validated: 1
EndChar

StartChar: uni307F
Encoding: 107 12415 33
Width: 1000
Flags: W
HStem: 475.001 250<430.127 569.873>
VStem: 159.998 80<-134.925 385.621> 375 250<530.127 669.873> 460 80<-134.925 385.621> 759.999 80<-134.925 385.621>
LayerCount: 2
Fore
SplineSet
460 350 m 2xd8
 460 372.076171875 477.923828125 390 500 390 c 0
 522.076171875 390 540 372.076171875 540 350 c 2
 540 -100 l 2
 540 -118.332765147 522.0766 -140 500 -140 c 0
 477.9234 -140 460 -118.332765147 460 -100 c 2
 460 350 l 2xd8
759.999023438 350 m 2
 759.999023438 372.076171875 777.922851562 390 799.999023438 390 c 0
 822.075195312 390 839.999023438 372.076171875 839.999023438 350 c 2
 839.999023438 -100 l 2
 839.999023438 -118.333056924 822.075195312 -140 799.999023438 -140 c 0
 777.922851562 -140 759.999023438 -118.333056924 759.999023438 -100 c 2
 759.999023438 350 l 2
159.998046875 350 m 2
 159.998046875 372.076171875 177.921875 390 199.998046875 390 c 0
 222.07421875 390 239.998046875 372.076171875 239.998046875 350 c 2
 239.998046875 -100 l 2
 239.998046875 -118.333056924 222.07421875 -140 199.998046875 -140 c 0
 177.921875 -140 159.998046875 -118.333056924 159.998046875 -100 c 2
 159.998046875 350 l 2
375 600.000915527 m 24xe8
 375 669 431 725 500 725.000915527 c 24
 569 725 625 669 625 600.000915527 c 24
 625 531 569 475 500 475.000915527 c 28
 431 475 375 531 375 600.000915527 c 24xe8
EndSplineSet
Validated: 33
EndChar

StartChar: uni3080
Encoding: 108 12416 34
Width: 1000
Flags: W
HStem: -140 80<563.956 734.723> -40 80<251.239 460>
VStem: 460 80.0298<40 285.621> 759.999 80.0012<-37.0145 249.83 250 285.621>
LayerCount: 2
Fore
SplineSet
840 -0.00120369803859 m 2
 840 -36.6924065109 810.469708197 -140 649.999633789 -140 c 0
 598.183510479 -140 501.279317888 -127.684434771 468.03839168 -40 c 1
 200 -40 l 2
 177.9234 -40 160 -22.0766 160 9.315465066e-16 c 0
 160 3.35145162861 160.41306836 6.60718729295 161.191027771 9.71902968292 c 2
 311.191027771 609.71994521 l 2
 315.537623515 627.106354718 331.274851629 640.000915527 350 640.000915527 c 0
 372.0766 640.000915527 390 622.077515527 390 600.000915527 c 0
 390 596.649463899 389.58693164 593.393728234 388.808972229 590.281885844 c 2
 251.238710684 40 l 1
 460 40 l 1
 460 250 l 2
 460 272.0766 477.9234 290 500 290 c 0
 522.0766 290 540 272.0766 540 250 c 2
 540.02975567 0.343944623771 l 2
 540.321994059 -2.77324963948 542.319768111 -15.0496756876 551.182979958 -26.5790006568 c 0
 561.485385374 -39.9804381997 584.90007064 -60 649.999633789 -60 c 0
 708.720292346 -60 733.424345866 -43.404241347 745.096385629 -30.953952121 c 0
 757.933762408 -17.2606254146 759.82571113 -1.28631595961 759.998782793 0.716133311129 c 0
 759.998782793 15.3679442117 760 250.000199161 760 250.000199161 c 4
 760.000107796 272.076707796 777.923466387 290 800 290 c 0
 822.0766 290 840 272.076400839 840 249.999800839 c 2
 840 -0.00120369803859 l 2
EndSplineSet
Validated: 1
EndChar

StartChar: uni3081
Encoding: 109 12417 35
Width: 1000
Flags: W
VStem: 809.997 80<19.1286 480.872>
LayerCount: 2
Fore
SplineSet
110 600.000915527 m 0
 110 622.077515527 127.9234 640.000915527 150 640.000915527 c 0
 160.775093191 640.000915527 170.56081228 635.731208372 177.756100297 628.792851033 c 2
 512.961406425 305.557118084 l 1
 822.240440358 603.791954463 l 2
 829.43572654 610.730300621 839.221437619 615 849.996520996 615 c 0
 872.073120996 615 889.996520996 597.0766 889.996520996 575 c 2
 889.996520996 -75 l 2
 889.996520996 -97.0766 872.073120996 -115 849.996520996 -115 c 0
 839.221427805 -115 829.435708716 -110.730292844 822.240420699 -103.791935506 c 2
 512.961368778 194.443322725 l 1
 177.756080638 -128.791954463 l 2
 170.560794456 -135.730300621 160.775083377 -140 150 -140 c 0
 127.9234 -140 110 -122.0766 110 -100 c 0
 110 -88.6984833774 114.697096425 -78.4853752527 122.243919362 -71.2080455374 c 2
 455.347152462 250.00023993 l 1
 122.243899703 571.208980022 l 2
 114.697088267 578.486308516 110 588.699408718 110 600.000915527 c 0
570.575622741 250.000200879 m 1
 809.996520996 19.128588419 l 1
 809.996520996 480.871500199 l 1
 570.575622741 250.000200879 l 1
EndSplineSet
Validated: 1
EndChar

StartChar: uni3082
Encoding: 110 12418 36
Width: 1000
Flags: W
HStem: 310 80<164.358 460 540 834.223> 460.001 80<165.357 460 540 835.222>
VStem: 350 300<-27.8503 126.671> 460 80<187.43 310 390 460.001 540.001 635.622>
LayerCount: 2
Fore
SplineSet
198.999023438 310 m 2xd0
 182.1953125 310 158.999023438 327.923828125 158.999023438 350 c 0
 158.999023438 372.076171875 182.1953125 390 198.999023438 390 c 2
 460 390 l 1
 460 460.000976562 l 1
 199.998046875 460.000976562 l 2
 183.194335938 460.000976562 159.998046875 477.923828125 159.998046875 500.000976562 c 0
 159.998046875 522.077148438 183.194335938 540.000976562 199.998046875 540.000976562 c 2
 460 540.000976562 l 1
 460 600.000915527 l 2
 460 622.077515527 477.9234 640.000915527 500 640.000915527 c 0
 522.0766 640.000915527 540 622.077515527 540 600.000915527 c 2
 540 540.000976562 l 1
 799.999023438 540.000976562 l 2
 819.932617188 540.000976562 839.999023438 522.077148438 839.999023438 500.000976562 c 0
 839.999023438 477.924804688 819.932617188 460.000976562 799.999023438 460.000976562 c 2
 540 460.000976562 l 1
 540 390 l 1
 799 390 l 2
 818.93359375 390 839 372.077148438 839 350 c 0
 839 327.923828125 818.93359375 310 799 310 c 2
 540 310 l 1
 540 194.598443217 l 1xd0
 603.3946582 177.075457952 650 118.937301747 650 50 c 8
 650 -33 583 -100 500 -100 c 24
 417 -100 350 -33 350 50 c 20xe0
 350 118.937301747 396.6053418 177.075457952 460 194.598443217 c 1
 460 310 l 1
 198.999023438 310 l 2xd0
EndSplineSet
Validated: 1
EndChar

StartChar: uni3084
Encoding: 111 12420 37
Width: 1000
Flags: W
HStem: 210 80<516.557 885.621>
LayerCount: 2
Fore
SplineSet
110 600.000915527 m 0
 110 622.077515527 127.9234 640.000915527 150 640.000915527 c 0
 161.038318939 640.000915527 171.038334316 635.520050151 178.278762269 628.279603258 c 2
 516.55748066 290 l 1
 850 290 l 2
 872.076171875 290 890 272.076171875 890 250 c 0
 890 227.923828125 872.076171875 210 850 210 c 2
 516.55745 210 l 1
 178.278725 -128.278725 l 2
 171.0383 -135.51915 161.0383 -140 150 -140 c 0
 127.9234 -140 110 -122.0766 110 -100 c 0
 110 -88.9617 114.48085 -78.9617 121.721275 -71.721275 c 2
 443.442586986 250.000036986 l 1
 121.721237731 571.722227797 l 2
 114.480834624 578.962649843 110 588.962634467 110 600.000915527 c 0
EndSplineSet
Validated: 1
EndChar

StartChar: uni3086
Encoding: 112 12422 38
Width: 1000
Flags: W
HStem: 310 79.4025<314.065 460 540 685.935> 560.001 80<164.379 460>
VStem: 160 80<-135.621 247> 460 80<389.403 560.001> 760 80<-135.621 247>
CounterMasks: 1 38
LayerCount: 2
Fore
SplineSet
760 247 m 1
 760 247 725 310 500 310 c 0
 275 310 240 247 240 247 c 1
 240 -100 l 2
 240 -122.0766 222.0766 -140 200 -140 c 0
 177.9234 -140 160 -122.0766 160 -100 c 2
 160 250 l 2
 160.000000033 271.948253401 175.033358038 312.884542098 232.658187759 343.617784615 c 0
 277.446645253 367.504961945 346.888668121 385.913871677 460 389.402521295 c 1
 460 560.000915527 l 1
 200 560.000915527 l 2
 177.9234 560.000915527 160 577.924315527 160 600.000915527 c 0
 160 622.077515527 177.9234 640.000915527 200 640.000915527 c 2
 500 640.000915527 l 2
 522.0766 640.000915527 540 622.077515527 540 600.000915527 c 2
 540 389.402521295 l 1
 653.111331879 385.913871677 722.553354747 367.504961945 767.341812241 343.617784615 c 0
 802.054903783 325.104135793 821.769271979 302.478255531 831.400893976 282.893957471 c 0
 839.035052274 267.371168931 839.999999993 254.992900209 840 250 c 2
 840 -100 l 2
 840 -122.0766 822.0766 -140 800 -140 c 0
 777.9234 -140 760 -122.0766 760 -100 c 2
 760 247 l 1
EndSplineSet
Validated: 1
EndChar

StartChar: uni3088
Encoding: 113 12424 39
Width: 700
Flags: W
HStem: 550 80<282.222 417.778>
VStem: 150 80<362.111 497.778> 310 80<-135.607 -100 234 238.659> 470 80<362.827 497.778>
CounterMasks: 1 70
LayerCount: 2
Fore
SplineSet
230 430 m 24
 230 496 284 550 350 550 c 24
 416 550 470 496 470 430 c 24
 470 364 416 310 350 310 c 24
 284 310 230 364 230 430 c 24
310 234.006835938 m 1
 310 -100 l 2
 310 -121.999803967 327.923828125 -140 350 -140 c 0
 372.076171875 -140 390 -122 390 -100 c 2
 390 234 l 1
 477.703125 255.190429688 550 335.82819582 550 430 c 8
 550 540 460 630 350 630 c 24
 240 630 150 540 150 430 c 20
 150 333.311790351 218.754882812 252.556640625 310 234.006835938 c 1
EndSplineSet
Validated: 9
EndChar

StartChar: uni3089
Encoding: 114 12425 40
Width: 1000
Flags: W
HStem: -140 80<114.375 809.996>
VStem: 809.996 80<-60 635.622>
LayerCount: 2
Fore
SplineSet
149.99609375 -140 m 2
 127.919921875 -140 109.99609375 -122.076171875 109.99609375 -100 c 0
 109.99609375 -77.923828125 127.919921875 -60 149.99609375 -60 c 2
 809.99609375 -60 l 1
 809.99609375 600.000976562 l 2
 809.99609375 622.077148438 827.919921875 640.000976562 849.99609375 640.000976562 c 0
 872.072265625 640.000976562 889.99609375 622.077148438 889.99609375 600.000976562 c 2
 889.99609375 -100 l 2
 889.99609375 -117.552013101 872.072265625 -140 849.99609375 -140 c 2
 149.99609375 -140 l 2
EndSplineSet
Validated: 1
EndChar

StartChar: uni308A
Encoding: 115 12426 41
Width: 1000
Flags: W
HStem: 300 400<409.151 590.849>
VStem: 300 400<409.151 590.849>
LayerCount: 2
Fore
SplineSet
300 500 m 24
 300 610 390 700 500 700 c 24
 610 700 700 610 700 500 c 24
 700 390 610 300 500 300 c 28
 390 300 300 390 300 500 c 24
199.998046875 -40 m 0
 177.921875 -40 159.998046875 -22.076171875 159.998046875 0 c 0
 159.998046875 9.4375 164.248038689 17.4600449496 168.748046875 24.9599609375 c 2
 318.75 274.959960938 l 2
 326.083007812 284.125 337.360351562 290 350 290 c 0
 372.076171875 290 390 272.076171875 390 250 c 0
 390 240.5625 386.724609375 231.883789062 381.25 225.040039062 c 2
 231.248046875 -24.9599609375 l 2
 225.221230765 -35.0045236655 212.637695312 -40 199.998046875 -40 c 0
610 250 m 0
 610 272.076171875 627.923828125 290 650 290 c 0
 662.639648438 290 673.916992188 284.125 681.25 274.959960938 c 2
 831.249023438 24.9599609375 l 2
 835.751628993 17.4555694875 839.999023438 9.4375 839.999023438 0 c 0
 839.999023438 -22.076171875 822.075195312 -40 799.999023438 -40 c 0
 787.359375 -40 774.779318175 -35.0105176 768.749023438 -24.9599609375 c 2
 618.75 225.040039062 l 2
 613.275390625 231.883789062 610 240.5625 610 250 c 0
EndSplineSet
Validated: 1
EndChar

StartChar: uni308B
Encoding: 116 12427 42
Width: 1000
Flags: W
HStem: -140 80<590.865 709.135> -115 80<164.377 227.29>
VStem: 260 80<8.0827 635.236> 459.998 80.002<-7.09444 635.155> 760 80<-7.09444 635.608>
LayerCount: 2
Fore
SplineSet
300 640.000976562 m 0x78
 322.0766 640.000976562 340 620.000976562 340 600.000976562 c 2
 340 149.999213338 l 25
 340 78 339.433517451 40.2252085491 306.941436793 -32.8807347175 c 0
 289.998294504 -71.0021591958 257.006051608 -115 199.998306274 -115 c 0
 177.921706274 -115 159.998306274 -97.0766 159.998306274 -75 c 0
 159.998306274 -52.9234 177.921706274 -35 199.998306274 -35 c 0
 204.158943443 -35 214.853953702 -35 227.900205265 -12.1879975346 c 0
 259.625254135 43.2847863202 260.000000001 85.9982038038 260.000000001 150.000307049 c 9
 260.000000001 600.000976562 l 6
 260.000000001 620.000000001 277.9234 640.000976562 300 640.000976562 c 0x78
650 -140 m 0xb8
 555 -140 459.998046878 -45 459.998046878 50 c 2
 459.998046878 600.001121407 l 2
 459.998046878 622.001121407 477.923448281 640.000831718 500 640.000831718 c 0
 522.0766 640.000831718 540 620.000831718 540 600.000831718 c 2
 540 50 l 18
 540 -5 595 -60 650 -60 c 0
 705 -60 760 -5 760 50 c 2
 760 600.000976562 l 2
 760 622.000976562 777.9234 640.000976562 800 640.000976562 c 0
 822.0766 640.000976562 840 622.000976562 840 600.000976562 c 2
 840 50 l 2
 840 -45 745 -140 650 -140 c 0xb8
EndSplineSet
Validated: 1
EndChar

StartChar: uni308C
Encoding: 117 12428 43
Width: 1000
Flags: W
HStem: 560.001 80<286.96 713.04>
VStem: 460 80<-3.44255 235.214>
LayerCount: 2
Fore
SplineSet
500 311.453033636 m 1
 713.040484351 560.000915527 l 1
 286.959515649 560.000915527 l 1
 500 311.453033636 l 1
160 600.000915527 m 0
 160 622.077515527 177.9234 640.000915527 200 640.000915527 c 2
 800 640.000915527 l 2
 822.0766 640.000915527 840 622.077515527 840 600.000915527 c 0
 840 590.073862028 836.37592861 580.986576279 830.379787097 573.991059549 c 2
 540 235.213755101 l 1
 540 -3.44255 l 1
 821.721275 278.278725 l 2
 828.9617 285.51915 838.9617 290 850 290 c 0
 872.0766 290 890 272.0766 890 250 c 0
 890 238.9617 885.51915 228.9617 878.278725 221.721275 c 2
 528.278725 -128.278725 l 2
 521.0383 -135.51915 511.0383 -140 500 -140 c 0
 477.9234 -140 460 -122.0766 460 -100 c 2
 460 235.213755101 l 1
 169.620212903 573.991059549 l 2
 163.62407139 580.986576279 160 590.073862028 160 600.000915527 c 0
EndSplineSet
Validated: 1
EndChar

StartChar: uni308D
Encoding: 118 12429 44
Width: 1000
Flags: W
HStem: 285 80<429.079 570.742> 635 80<429.213 570.787>
VStem: 285 80<427.554 570.787> 635 80<427.519 570.787>
LayerCount: 2
Fore
SplineSet
635 500 m 24
 635 574 574 635 500 635 c 24
 426 635 365 574 365 500 c 24
 365 426 426 365 500 365 c 24
 574 365 635 426 635 500 c 24
500 715 m 24
 619 715 715 619 715 500 c 20
 715 441.743615186 683.429708171 383.487230372 637.397692602 342.339413647 c 0
 638.171322059 341.298004217 638.898453947 340.220987261 639.576171875 339.112304688 c 2
 834.575195312 20.1123046875 l 2
 838.02734375 14.2080078125 839.999023438 7.330078125 839.999023438 0 c 0
 839.999023438 -22.076171875 822.075195312 -40 799.999023438 -40 c 0
 785.251953125 -40 772.3671875 -31.9892578125 765.422851562 -20.1123046875 c 2
 570.423828125 298.887695312 l 2
 570.288790657 299.108603866 570.156190977 299.331154997 570.026038544 299.55530652 c 0
 547.454641508 290.237076747 523.727320754 285.000000001 500 285 c 0
 476.145438252 285 452.290876504 290.29339643 429.610934774 299.705569271 c 0
 429.28354682 299.087934764 428.938546465 298.481684793 428.576171875 297.887695312 c 2
 234.57421875 -20.1123046875 l 2
 232.016601562 -24.4931640625 214.745117188 -40 199.998046875 -40 c 0
 177.921875 -40 159.998046875 -22.076171875 159.998046875 -0 c 0
 159.998046875 7.330078125 164.150390625 17.9345703125 165.421875 20.1123046875 c 2
 359.423828125 338.112304688 l 6
 360.346211484 339.624237447 361.362087382 341.078004851 362.463785243 342.463328713 c 0
 316.506968225 383.604139521 285 441.802069761 285 500 c 8
 285 619 381 715 500 715 c 24
EndSplineSet
Validated: 1
EndChar

StartChar: uni308F
Encoding: 119 12431 45
Width: 1000
Flags: W
VStem: 160 78.5383<-135.567 -85.6152> 761.462 78.5383<-135.567 -85.6152>
LayerCount: 2
Fore
SplineSet
200 -140 m 0
 177.9234 -140 160 -122.0766 160 -100 c 0
 160 -96.2788991237 160.509212325 -92.6757926362 161.461695597 -89.2566219144 c 2
 356.461695597 610.743378086 l 2
 361.160118579 627.609511865 376.644500876 640 395 640 c 0
 413.277124503 640 428.707598123 627.715096201 433.477530874 610.959178587 c 2
 500 377.277684478 l 1
 566.522469126 610.959178587 l 2
 571.292401877 627.715096201 586.722875497 640 605 640 c 0
 623.355499124 640 638.839881421 627.609511865 643.538304403 610.743378086 c 2
 838.538304403 -89.2566219144 l 2
 839.490787675 -92.6757926362 840 -96.2788991237 840 -100 c 0
 840 -122.0766 822.0766 -140 800 -140 c 0
 781.644500876 -140 766.160118579 -127.609511865 761.461695597 -110.743378086 c 2
 604.58294344 452.411116837 l 1
 541.597297041 231.153846154 l 1
 628.477530874 -74.0408214125 l 2
 629.469111503 -77.5240661858 630 -81.2005245034 630 -85 c 0
 630 -107.0766 612.0766 -125 590 -125 c 0
 571.722875497 -125 556.292401877 -112.715096201 551.522469126 -95.9591785875 c 2
 500 85.0300078295 l 1
 448.477530874 -95.9591785875 l 2
 443.707598123 -112.715096201 428.277124503 -125 410 -125 c 0
 387.9234 -125 370 -107.0766 370 -85 c 0
 370 -81.2005245034 370.530888497 -77.5240661858 371.522469126 -74.0408214125 c 2
 458.402702959 231.153846154 l 1
 395.41705656 452.411116837 l 1
 238.538304403 -110.743378086 l 2
 233.839881421 -127.609511865 218.355499124 -140 200 -140 c 0
EndSplineSet
Validated: 1
EndChar

StartChar: uni3092
Encoding: 120 12434 46
Width: 1000
Flags: W
HStem: -140 80<241.718 885.621> 110 80<473.861 885.621>
LayerCount: 2
Fore
SplineSet
800 640.000976562 m 0
 822.0766 640.000976562 840 622.077576562 840 600.000976562 c 0
 840 589.498713744 835.943777367 579.936356514 829.313823998 572.796396771 c 2
 473.860522885 190 l 1
 850 190 l 2
 872.0766 190 890 172.0766 890 150 c 0
 890 127.9234 872.0766 110 850 110 c 2
 399.574912234 110 l 1
 241.717989602 -60 l 1
 850 -60 l 2
 872.0766 -60 890 -77.9234 890 -100 c 0
 890 -122.0766 872.0766 -140 850 -140 c 2
 150 -140 l 2
 127.9234 -140 110 -122.0766 110 -100 c 0
 110 -89.4977371811 114.056222633 -79.9353799516 120.686176002 -72.7954202087 c 2
 770.686176002 627.205556354 l 2
 777.992917141 635.074365481 788.425662819 640.000976562 800 640.000976562 c 0
EndSplineSet
Validated: 1
EndChar

StartChar: uni3093
Encoding: 121 12435 47
Width: 1000
Flags: W
HStem: 300 300<122.149 277.85>
VStem: 49.998 300<372.15 527.85>
LayerCount: 2
Fore
SplineSet
800 640.000915527 m 0
 822.0766 640.000915527 840 622.077515527 840 600.000915527 c 0
 840 590.073852682 836.375921786 580.986559169 830.379770162 573.991039791 c 2
 230.379770162 -126.009875736 l 2
 223.04119801 -134.571554445 212.149537155 -140 200 -140 c 0
 177.9234 -140 160 -122.0766 160 -100 c 0
 160 -90.0729371549 163.624078214 -80.9856436415 169.620229838 -73.9901242638 c 2
 769.620229838 626.010791263 l 2
 776.95880199 634.572469972 787.850462845 640.000915527 800 640.000915527 c 0
49.998046875 450 m 24
 50 533 117 600 199.998046875 600 c 24
 283 600 350 533 349.998046875 450 c 24
 350 367 283 300 199.998046875 300 c 28
 117 300 50 367 49.998046875 450 c 24
EndSplineSet
Validated: 33
EndChar

StartChar: uni30FC
Encoding: 122 12540 48
Width: 1000
Flags: W
HStem: 210 80<369.217 627.353>
LayerCount: 2
Fore
SplineSet
110 500 m 0
 110 522.0766 127.9234 540 150 540 c 0
 162.639237297 540 173.917154663 534.125136848 181.249670137 524.959492505 c 2
 369.217264141 290 l 1
 627.352588169 290 l 1
 765.673812448 520.536874689 l 2
 772.667261691 532.192699312 785.428590939 540 799.999023438 540 c 0
 822.075623437 540 839.999023438 522.0766 839.999023438 500 c 0
 839.999023438 492.493832499 837.927010215 485.467790717 834.324234427 479.463125311 c 2
 696.647245553 249.999983287 l 1
 834.32400507 20.5368500499 l 2
 837.926771743 14.5321900626 839.998779297 7.50615723418 839.998779297 1.88044024796e-15 c 0
 839.998779297 -22.0766 822.075379297 -40 799.998779297 -40 c 0
 785.428336531 -40 772.666999566 -32.1926883095 765.673553524 -20.5368500499 c 2
 627.352569162 210 l 1
 369.217264141 210 l 1
 181.249670137 -24.959492505 l 2
 173.917154663 -34.1251368479 162.639237297 -40 150 -40 c 0
 127.9234 -40 110 -22.0766 110 1.71217207079e-15 c 0
 110 9.4373627033 113.275346964 18.1157638809 118.750329863 24.959492505 c 2
 298.782735859 250 l 1
 118.750329863 475.040507495 l 2
 113.275346964 481.884236119 110 490.562637297 110 500 c 0
EndSplineSet
Validated: 1
EndChar

StartChar: uni309B
Encoding: 123 12443 49
Width: 250
Flags: W
HStem: -125 250<55.127 194.873>
VStem: 0 250<-69.873 69.873>
LayerCount: 2
Fore
SplineSet
0 0 m 28
 0 69 56 125 125 125 c 24
 194 125 250 69 250 0 c 24
 250 -69 194 -125 125 -125 c 24
 56 -125 0 -69 0 0 c 28
EndSplineSet
Validated: 1
EndChar

StartChar: uni309C
Encoding: 124 12444 50
Width: 250
Flags: W
HStem: -125 60<76.6048 173.395> 65 60<76.6048 173.395>
VStem: 0 60<-48.3952 48.3952> 190 60<-48.3952 48.3952>
LayerCount: 2
Fore
SplineSet
0 0 m 28
 0 69 56 125 125 125 c 24
 194 125 250 69 250 0 c 24
 250 -69 194 -125 125 -125 c 24
 56 -125 0 -69 0 0 c 28
60 0 m 24
 60 -36 89 -65 125 -65 c 24
 161 -65 190 -36 190 0 c 24
 190 36 161 65 125 65 c 24
 89 65 60 36 60 0 c 24
EndSplineSet
Validated: 1
EndChar

StartChar: uni3099
Encoding: 125 12441 65
Width: 360
Flags: W
HStem: -125 250<55.1317 194.868>
VStem: 0 250<-69.8683 69.8683>
LayerCount: 2
Fore
SplineSet
0 0 m 28
 0 69 56 125 125 125 c 24
 194 125 250 69 250 0 c 24
 250 -69 194 -125 125 -125 c 24
 56 -125 0 -69 0 0 c 28
EndSplineSet
Validated: 1
EndChar

StartChar: uni309A
Encoding: 126 12442 66
Width: 360
Flags: W
HStem: -125 60<76.6292 173.371> 65 60<76.6292 173.371>
VStem: 0 60<-48.3708 48.3708> 190 60<-48.3708 48.3708>
LayerCount: 2
Fore
SplineSet
0 0 m 28
 0 69 56 125 125 125 c 24
 194 125 250 69 250 0 c 24
 250 -69 194 -125 125 -125 c 24
 56 -125 0 -69 0 0 c 28
60 0 m 24
 60 -36 89 -65 125 -65 c 24
 161 -65 190 -36 190 0 c 24
 190 36 161 65 125 65 c 24
 89 65 60 36 60 0 c 24
EndSplineSet
Validated: 1
EndChar

StartChar: uni304C
Encoding: 127 12364 69
Width: 1225
Flags: W
HStem: -125 250<1030.13 1169.87> -40 80<114.393 429 571 885.607>
VStem: 975 250<-69.873 69.873>
LayerCount: 2
Fore
SplineSet
975 0 m 28xa0
 975 69 1031 125 1100 125 c 28
 1169 125 1225 69 1225 0 c 28
 1225 -69 1169 -125 1100 -125 c 28
 1031 -125 975 -69 975 0 c 28xa0
160 500 m 0
 160 522 178 540 200 540 c 0
 215 540 227 532 234 521 c 2
 500 78 l 1
 766 521 l 2
 773 532 785 540 800 540 c 0
 822 540 840 522 840 500 c 0
 840 492 838 485 834 479 c 2
 571 40 l 1
 850 40 l 2
 872 40 890 22 890 0 c 0
 890 -22 872 -40 850 -40 c 2
 150 -40 l 2
 128 -40 110 -22 110 0 c 0
 110 22 128 40 150 40 c 2
 429 40 l 1x60
 166 479 l 2
 162 485 160 492 160 500 c 0
EndSplineSet
Validated: 1
EndChar

StartChar: uni304E
Encoding: 128 12366 70
Width: 1025
Flags: W
HStem: -125 250<830.127 969.873> 100 300<462.15 617.85>
VStem: 310 80<-135.607 635.607> 775 250<-69.873 69.873>
LayerCount: 2
Fore
SplineSet
775 0 m 28xb0
 775 69 831 125 900 125 c 28
 969 125 1025 69 1025 0 c 28
 1025 -69 969 -125 900 -125 c 28
 831 -125 775 -69 775 0 c 28xb0
310 600 m 2
 310 622 328 640 350 640 c 0
 372 640 390 622 390 600 c 2
 390 250 l 1
 390 333 457 400 540 400 c 0
 623 400 690 333 690 250 c 0
 690 167 623 100 540 100 c 0x70
 457 100 390 167 390 250 c 1
 390 -100 l 2
 390 -122 372 -140 350 -140 c 0
 328 -140 310 -122 310 -100 c 2
 310 600 l 2
EndSplineSet
Validated: 5
EndChar

StartChar: uni3050
Encoding: 129 12368 71
Width: 1175
Flags: W
HStem: -140 80<280.302 420.535> -125 250<980.127 1119.87>
VStem: 160 80<-19.2112 635.607> 460 80<-18.1605 153 347 635.607> 925 250<-69.873 69.873>
LayerCount: 2
Fore
SplineSet
925 0 m 24x78
 925 69 981 125 1050 125 c 24
 1119 125 1175 69 1175 0 c 24
 1175 -69 1119 -125 1050 -125 c 24
 981 -125 925 -69 925 0 c 24x78
350 -140 m 0xb8
 196 -140 160 -8 160 50 c 2
 160 600 l 2
 160 622 178 640 200 640 c 0
 222 640 240 622 240 600 c 2
 240 50 l 1
 240 50 240 50 240 49 c 0
 240 43 244 -20 290 -46 c 0
 304 -54 323 -60 350 -60 c 0
 399 -60 433 -41 450 4 c 0
 460 28 460 46 460 49 c 0
 460 50 460 50 460 50 c 1
 460 600 l 2
 460 622 478 640 500 640 c 0
 522 640 540 622 540 600 c 2
 540 347 l 1
 772 603 l 2
 779 611 789 615 800 615 c 0
 822 615 840 597 840 575 c 0
 840 564 836 554 828 547 c 2
 557 250 l 1
 828 -47 l 2
 836 -54 840 -64 840 -75 c 0
 840 -97 822 -115 800 -115 c 0
 789 -115 779 -111 772 -103 c 2
 540 153 l 1
 540 50 l 2
 539.99887026 -4.37208458574 506 -140 350 -140 c 0xb8
EndSplineSet
Validated: 1
EndChar

StartChar: uni3052
Encoding: 130 12370 72
Width: 1175
Flags: W
HStem: -125 250<980.127 1119.87> 210 80<240 385.807>
VStem: 160 80<-135.621 210 290 635.622> 759.999 80<9.0307 490.969> 925 250<-69.873 69.873>
LayerCount: 2
Fore
SplineSet
925 0 m 28
 925 69 981 125 1050 125 c 28
 1119 125 1175 69 1175 0 c 28
 1175 -69 1119 -125 1050 -125 c 28
 981 -125 925 -69 925 0 c 28
799.998779297 615 m 0
 822.075379297 615 839.998779297 597.0766 839.998779297 575 c 2
 839.998779297 -75 l 2
 839.998779297 -97.0766 822.075379297 -115 799.998779297 -115 c 0
 790.452002608 -115 781.68188781 -111.648265981 774.801995803 -106.058358843 c 0
 385.806736477 210 385.806736477 210 385.806736477 210 c 1
 240 210 l 1
 240 -100 l 2
 240 -122.0766 222.0766 -140 200 -140 c 0
 177.9234 -140 160 -122.0766 160 -100 c 0
 160 600.000915527 160 600.000915527 160 600.000915527 c 2
 160 622.077515527 177.9234 640.000915527 200 640.000915527 c 0
 222.0766 640.000915527 240 622.077515527 240 600.000915527 c 2
 240 290 l 1
 385.806736477 290 l 1
 774.801995803 606.058358843 l 2
 781.68188781 611.648265981 790.452002608 615 799.998779297 615 c 0
463.420903998 250 m 1
 759.998779297 9.0306969337 l 1
 759.998779297 490.969303066 l 1
 463.420903998 250 l 1
EndSplineSet
Validated: 1
EndChar

StartChar: uni3054
Encoding: 131 12372 73
Width: 1225
Flags: W
HStem: -140 80<604.213 745.787> -125 250<1030.13 1169.87> 210 80<604.213 747.9> 560.001 80<190 810>
VStem: 110 80<214.379 560.001> 460 80<4.21328 145.787> 810 80<4.03092 147.737 234.78 560.001> 975 250<-69.873 69.873>
LayerCount: 2
Fore
SplineSet
150 250 m 1028x3f
810 75 m 28
 810 149 749 210 675 210 c 28
 601 210 540 149 540 75 c 28
 540 1 601 -60 675 -60 c 28xbf
 749 -60 810 1 810 75 c 28
809.99961797 560.000915527 m 5
 190 560.000915527 l 5
 190 250 l 6
 190 227.9234 172.0766 210 150 210 c 4
 127.9234 210 110 227.9234 110 250 c 6
 110 600.000915527 l 6
 110 622.077515527 127.9234 640.000915527 150 640.000915527 c 6
 850 640.000915527 l 6
 872.0766 640.000915527 889.999999998 622.07712597 889.999999998 600.00052597 c 6
 889.999999998 190.999610443 l 6
 889.999999998 176.330155643 882.084215882 163.49452127 870.295426357 156.532773555 c 5
 882.812280411 130.594239119 890 102.797119559 890 75 c 4
 890 -32.5 794 -140 675 -140 c 28
 556 -140 460 -44 460 75 c 28
 460 194 556 290 675 290 c 20
 723.235986732 290 771.471973464 268.356182177 809.996230807 234.780275919 c 5
 809.996230807 343.187155788 810 433 809.99961797 560.000915527 c 5
975 0 m 24
 975 69 1031 125 1100 125 c 24
 1169 125 1225 69 1225 0 c 24
 1225 -69 1169 -125 1100 -125 c 24x7f
 1031 -125 975 -69 975 0 c 24
EndSplineSet
Validated: 33
EndChar

StartChar: uni3056
Encoding: 132 12374 74
Width: 1175
Flags: W
HStem: -125 250<980.127 1119.87> -40 80<280.448 420.654> 460 80<579.21 719.552>
VStem: 160 79.9928<80.7842 150 150 535.621> 460.007 79.9928<81.8395 150 150 418.161> 760 80<-35.6213 350 350 419.216> 925 250<-69.873 69.873>
LayerCount: 2
Fore
SplineSet
925 0 m 28xbe
 925 69 981 125 1050 125 c 28
 1119 125 1175 69 1175 0 c 28
 1175 -69 1119 -125 1050 -125 c 28
 981 -125 925 -69 925 0 c 28xbe
350 -40 m 0x7e
 196.136053229 -40 160 92.4861238456 160 149.549424227 c 2
 160 499.999802617 l 2
 160 522.076402617 177.921706274 540 199.998306274 540 c 0
 222.07484048 540 239.998199441 522.076706833 239.998306274 500.000197383 c 2
 239.998306274 150 l 1
 239.998306274 150 239.992840491 149.777763501 239.992840491 149.347759943 c 0
 239.992840491 142.781998696 243.727500896 80.3431058927 290.378917984 53.6851532712 c 0
 304.021179013 45.8895755401 322.703534601 40 350 40 c 0
 399.075727276 40 433.264706334 59.089401181 450.497841854 104.387928834 c 0
 459.519610215 128.102291382 460.007159509 145.799301684 460.007159509 149.347759943 c 0
 460.007159509 149.777763501 460 150 460 150 c 1
 460 349.99990044 l 2
 460.001129751 404.373120184 494.005951762 540 649.999633789 540 c 0
 803.863915901 540 840 407.51361186 840 350.449172782 c 2
 840 0 l 2
 840 -22.0766 822.0766 -40 800 -40 c 0
 777.9234 -40 760 -22.0766 760 0 c 2
 760 350 l 1
 760 350 760.007157934 350.222203103 760.007157934 350.65214328 c 0
 760.007157934 357.217186091 756.272620565 419.656679037 709.620782879 446.31483481 c 0
 695.97848152 454.110424711 677.296098553 460 649.999633789 460 c 0
 611.407842162 460 575.774272187 448.575572303 555.074319951 408.185618814 c 0
 546.726146226 391.896578888 540.963672175 369.85118176 540 350.000000011 c 2
 540 150 l 2
 539.99887026 95.6279154143 505.994259302 -40 350 -40 c 0x7e
EndSplineSet
Validated: 1
EndChar

StartChar: uni3058
Encoding: 133 12376 75
Width: 1175
Flags: W
HStem: -150 300<422.244 577.756> -125 250<980.127 1119.87> 310 80<165.357 835.222> 560.001 80<165.357 835.222>
VStem: 350 300<-77.7558 77.7558> 925 250<-69.873 69.873>
LayerCount: 2
Fore
SplineSet
925 0 m 28x7c
 925 69 981 125 1050 125 c 28
 1119 125 1175 69 1175 0 c 28
 1175 -69 1119 -125 1050 -125 c 28
 981 -125 925 -69 925 0 c 28x7c
350 -0 m 0
 350 82.787109375 417.212890625 150 500 150 c 0
 582.787109375 150 650 82.787109375 650 -0 c 0
 650 -82.787109375 582.787109375 -150 500 -150 c 0xbc
 417.212890625 -150 350 -82.787109375 350 -0 c 0
199.998046875 560.000976562 m 2
 183.194335938 560.000976562 159.998046875 577.923828125 159.998046875 600.000976562 c 0
 159.998046875 622.077148438 183.194335938 640.000976562 199.998046875 640.000976562 c 2
 799.999023438 640.000976562 l 2
 819.933094053 640.000976562 839.999023438 622.077148438 839.999023438 600.000976562 c 0
 839.999023438 577.924804688 819.933094053 560.000976562 799.999023438 560.000976562 c 2
 199.998046875 560.000976562 l 2
199.998046875 310 m 2
 183.194335938 310 159.998046875 327.923828125 159.998046875 350 c 0
 159.998046875 372.076171875 183.194335938 390 199.998046875 390 c 2
 799.999023438 390 l 2
 819.932617188 390 839.999023438 372.077148438 839.999023438 350 c 0
 839.999023438 327.923828125 819.932617188 310 799.999023438 310 c 2
 199.998046875 310 l 2
EndSplineSet
Validated: 1
EndChar

StartChar: uni305A
Encoding: 134 12378 76
Width: 1175
Flags: W
HStem: -125 250<980.127 1119.87> -40 80<164.377 522.429> 460 80<164.377 521.878>
VStem: 560 79.4749<92.3893 218.543> 925 250<-69.873 69.873>
LayerCount: 2
Fore
SplineSet
925 0 m 28xb8
 925 69 981 125 1050 125 c 28
 1119 125 1175 69 1175 0 c 28
 1175 -69 1119 -125 1050 -125 c 28
 981 -125 925 -69 925 0 c 28xb8
497.911228581 40 m 1x78
 515.554931742 44.328582641 560 87.8415784195 560 250 c 0
 560 282.643142268 558.465355361 367.574930147 532.03783109 422.190448944 c 0
 526.435565287 432.809547642 514.492570144 455.447503181 497.722784178 460 c 1
 199.998306274 460 l 2
 177.921706274 460 159.998306274 477.9234 159.998306274 500 c 0
 159.998306274 522.0766 177.921706274 540 199.998306274 540 c 2
 500 540 l 2
 507.126750357 539.999999991 562.311169181 536.26674248 603.821994517 457.582944396 c 0
 835.40171863 18.6234174449 835.40171863 18.6234174449 835.40171863 18.6234174449 c 2
 838.33682178 13.0599273973 839.998779297 6.72251762139 839.998779297 3.11903280981e-15 c 0
 839.998779297 -22.0766 822.075379297 -40 799.998779297 -40 c 0
 784.644696918 -40 771.299550998 -31.3303063389 764.595839963 -18.6234174449 c 2
 639.474917911 218.543376696 l 1
 636.14128003 121.521219868 617.254618212 60.7840102257 592.014662608 21.3465795949 c 0
 572.589271675 -9.00559373873 549.20836589 -25.5671025768 530.422812966 -33.2660996766 c 0
 515.497040086 -39.3832197093 504.156809579 -39.9999999946 500 -40 c 2
 199.998306274 -40 l 2
 177.921706274 -40 159.998306274 -22.0766 159.998306274 0 c 0
 159.998306274 22.0766 177.921706274 40 199.998306274 40 c 2
 497.911228581 40 l 1x78
EndSplineSet
Validated: 1
EndChar

StartChar: uni305C
Encoding: 135 12380 77
Width: 1225
Flags: W
HStem: -125 250<1030.13 1169.87> 210 80<236.96 453.875 546.125 763.04>
VStem: 975 250<-69.873 69.873>
LayerCount: 2
Fore
SplineSet
975 0 m 28
 975 69 1031 125 1100 125 c 28
 1169 125 1225 69 1225 0 c 28
 1225 -69 1169 -125 1100 -125 c 28
 1031 -125 975 -69 975 0 c 28
850 250 m 1024
850 250 m 1024
422.887300401 506.91557621 m 1
 236.95966365 290 l 1
 453.875239859 290 l 1
 422.887300401 506.91557621 l 1
850 290 m 2
 872.0766 290 890 272.0766 890 250 c 0
 890 240.072927809 886.375914962 230.985626531 880.379753226 223.990104506 c 2
 580.379753226 -126.009895494 l 2
 573.041181253 -134.571562796 562.149527809 -140 550 -140 c 0
 529.857465017 -140 513.172306892 -125.07946923 510.403426846 -105.69730891 c 2
 465.303811288 210 l 1
 150 210 l 2
 127.9234 210 110 227.9234 110 250 c 0
 110 259.927072191 113.624085038 269.014373469 119.620246774 276.009895494 c 2
 419.620246774 626.009895494 l 2
 426.958818747 634.571562796 437.850472191 640 450 640 c 0
 470.142534983 640 486.827693108 625.07946923 489.596573154 605.69730891 c 2
 534.696188712 290 l 1
 850 290 l 2
546.124760141 210 m 1
 577.112699599 -6.91557620954 l 1
 763.04033635 210 l 1
 546.124760141 210 l 1
EndSplineSet
Validated: 1
EndChar

StartChar: uni305E
Encoding: 136 12382 78
Width: 1175
Flags: W
HStem: -140 80<429.213 570.787> -125 250<980.127 1119.87> 210 80<435.898 564.102> 560 80<435.802 564.197>
VStem: 285 80<4.21328 146.779 362.691 488.308> 635 80<4.21328 146.779 362.692 488.309> 925 250<-69.873 69.873>
LayerCount: 2
Fore
SplineSet
925 0 m 28x7e
 925 69 981 125 1050 125 c 28
 1119 125 1175 69 1175 0 c 28
 1175 -69 1119 -125 1050 -125 c 28
 981 -125 925 -69 925 0 c 28x7e
635 425 m 0
 635 489.182617188 561.86328125 560 500 560 c 0
 438.134765625 560 365 489.180664062 365 425 c 0
 365 360.817382812 438.13671875 290 500 290 c 0
 561.865234375 290 635 360.819335938 635 425 c 0
500 640 m 24
 619 640 715 544 715 425 c 16
 715 357.985351562 673.224609375 290.971679688 615.71484375 250 c 1
 673.224609375 209.028320312 715 142.014648438 715 75 c 8
 715 -44 619 -140 500 -140 c 24xbe
 381 -140 285 -44 285 75 c 16
 285 142.014648438 326.775390625 209.028320312 384.28515625 250 c 1
 326.775390625 290.971679688 285 357.985351562 285 425 c 8
 285 544 381 640 500 640 c 24
500 210 m 24
 426 210 365 149 365 75 c 24
 365 1 426 -60 500 -60 c 24
 574 -60 635 1 635 75 c 24
 635 149 574 210 500 210 c 24
EndSplineSet
Validated: 1
EndChar

StartChar: uni3060
Encoding: 137 12384 79
Width: 1225
Flags: W
HStem: -140 80<114.379 460 540 885.621> -125 250<1030.13 1169.87>
VStem: 460 80<-60 634.734> 975 250<-69.873 69.873>
LayerCount: 2
Fore
SplineSet
975 0 m 28x70
 975 69 1031 125 1100 125 c 28
 1169 125 1225 69 1225 0 c 28
 1225 -69 1169 -125 1100 -125 c 28
 1031 -125 975 -69 975 0 c 28x70
460 600 m 2
 460 617.306161195 477.923828125 640 500 640 c 0
 522.076171875 640 540 617.306161195 540 600 c 2
 540 -60 l 1
 850 -60 l 2
 872.076171875 -60 890 -77.923828125 890 -100 c 0
 890 -122.076171875 872.076171875 -140 850 -140 c 0
 616.666992188 -140 383.333007812 -140 150 -140 c 0
 127.923828125 -140 110 -122.076171875 110 -100 c 0
 110 -77.923828125 127.923828125 -60 150 -60 c 2
 460 -60 l 1xb0
 460 600 l 2
EndSplineSet
Validated: 1
EndChar

StartChar: uni3062
Encoding: 138 12386 80
Width: 1175
Flags: W
HStem: -125 250<980.127 1119.87> 310 80<164.377 199.998 799.999 835.62>
VStem: 350 300<-77.7558 76.6714> 460 80<144.599 309.88 600.001 635.622> 925 250<-69.873 69.873>
LayerCount: 2
Fore
SplineSet
925 0 m 28xc8
 925 69 981 125 1050 125 c 28
 1119 125 1175 69 1175 0 c 28
 1175 -69 1119 -125 1050 -125 c 28
 981 -125 925 -69 925 0 c 28xc8
540 144.598632812 m 1xd8
 540 144.598443217 540 310 540 310 c 1
 799.999023438 310 l 2
 822.075623437 310 839.999023438 327.9234 839.999023438 350 c 0
 839.999023438 372.0766 822.075623437 390 799.999023438 390 c 2
 540 390 l 1
 540 600.000915527 l 2
 540 622.077515527 522.0766 640.000915527 500 640.000915527 c 0
 477.9234 640.000915527 460 622.077515527 460 600.000915527 c 2
 460 390 l 1
 199.998046875 390 l 2
 177.921446875 390 159.998046875 372.0766 159.998046875 350 c 0
 159.998046875 327.9234 177.921446875 310 199.998046875 310 c 2
 460 310 l 1
 460 310 460 144.598443217 460 144.598632812 c 1xd8
 396.60546875 127.075195312 350 71 350 -0 c 16
 350 -82.787109375 417 -150 500 -150 c 24
 583 -150 650 -83 650 -0 c 16xe8
 650 68.9373017468 603.39453125 127.075195312 540 144.598632812 c 1xd8
EndSplineSet
Validated: 41
EndChar

StartChar: uni3065
Encoding: 139 12389 81
Width: 1175
Flags: W
HStem: -140 80<362.442 637.569> -125 250<980.127 1119.87>
VStem: 160 79.998<38.2634 100.321 600.001 635.622> 359.998 80<198.378 620.621> 560 80<198.378 620.621> 760 80<38.2974 100.321 600.001 635.622> 925 250<-69.873 69.873>
LayerCount: 2
Fore
SplineSet
925 0 m 28x7e
 925 69 981 125 1050 125 c 28
 1119 125 1175 69 1175 0 c 28
 1175 -69 1119 -125 1050 -125 c 28
 981 -125 925 -69 925 0 c 28x7e
500 -140 m 0xbe
 803.080078125 -140 840 53.69921875 840 100.000976562 c 2
 840 600.000976562 l 2
 840 622.077148438 822.076171875 640.000976562 800 640.000976562 c 0
 777.923828125 640.000976562 760 622.077148438 760 600.000976562 c 2
 760 100.321289062 l 2
 759.880859375 96.9130859375 757.59375 51.51171875 719.376953125 10.7470703125 c 0
 687.12890625 -23.6513671875 625.387695312 -60 500 -60 c 0
 374.612304688 -60 312.87109375 -23.6513671875 280.622070312 10.7470703125 c 0
 262.395507812 30.189453125 252.368164062 50.546875 246.759765625 67.2978515625 c 0
 240.693359375 85.4150390625 240.04296875 99.0361328125 239.998046875 100.321289062 c 0
 239.998046875 266.880859375 240 433.44140625 240 600.000976562 c 0
 240 622.077148438 222.076171875 640.000976562 200 640.000976562 c 0
 177.923828125 640.000976562 160 622.077148438 160 600.000976562 c 2
 160 100.000976562 l 2
 160 53.6201171875 196.986328125 -140 500 -140 c 0xbe
359.998046875 585 m 2
 359.998046875 607.076171875 377.921875 625 399.998046875 625 c 0
 422.07421875 625 439.998046875 607.076171875 439.998046875 585 c 2
 439.998046875 233.999023438 l 2
 439.998046875 211.922851562 422.07421875 193.999023438 399.998046875 193.999023438 c 0
 377.921875 193.999023438 359.998046875 211.922851562 359.998046875 233.999023438 c 2
 359.998046875 585 l 2
560 585 m 2
 560 607.076171875 577.923828125 625 600 625 c 0
 622.076171875 625 640 607.076171875 640 585 c 2
 640 233.999023438 l 2
 640 211.922851562 622.076171875 193.999023438 600 193.999023438 c 0
 577.923828125 193.999023438 560 211.922851562 560 233.999023438 c 2
 560 585 l 2
EndSplineSet
Validated: 9
EndChar

StartChar: uni3067
Encoding: 140 12391 82
Width: 1225
Flags: W
HStem: -125 250<1030.13 1169.87> 310 80<246.557 753.443> 460 80<114.379 885.621>
VStem: 975 250<-69.873 69.873>
LayerCount: 2
Fore
SplineSet
975 0 m 28
 975 69 1031 125 1100 125 c 28
 1169 125 1225 69 1225 0 c 28
 1225 -69 1169 -125 1100 -125 c 28
 1031 -125 975 -69 975 0 c 28
150 460 m 2
 127.9234 460 110 477.9234 110 500 c 0
 110 522.0766 127.9234 540 150 540 c 2
 850 540 l 2
 872.0766 540 890 522.0766 890 500 c 0
 890 477.9234 872.0766 460 850 460 c 2
 150 460 l 2
150 390 m 2
 850 390 l 2
 872.0766 390 890 372.0766 890 350 c 0
 890 338.9617 885.51915 328.9617 878.278725 321.721275 c 2
 528.278725 -28.278725 l 2
 521.0383 -35.51915 511.0383 -40 500 -40 c 0
 488.9617 -40 478.9617 -35.51915 471.721275 -28.278725 c 2
 121.721275 321.721275 l 2
 114.48085 328.9617 110 338.9617 110 350 c 0
 110 372.0766 127.9234 390 150 390 c 2
246.55745 310 m 1
 500 56.55745 l 1
 753.44255 310 l 1
 246.55745 310 l 1
EndSplineSet
Validated: 1
EndChar

StartChar: uni3069
Encoding: 141 12393 83
Width: 1125
Flags: W
HStem: -125 250<930.127 1069.87> -36.5755 81.7434<411.147 460 540 588.851> 454.783 81.7649<411.494 460 540 588.853>
VStem: 210 80<168.885 331.671> 460 80<-135.621 -32.6972 45.2172 454.783 532.697 635.622> 710 80<168.611 331.388> 875 250<-69.873 69.873>
LayerCount: 2
Fore
SplineSet
875 0 m 28xbe
 875 69 931 125 1000 125 c 28
 1069 125 1125 69 1125 0 c 28
 1125 -69 1069 -125 1000 -125 c 28
 931 -125 875 -69 875 0 c 28xbe
460 600.000915527 m 2
 460 622.077515527 477.9234 640.000915527 500 640.000915527 c 0
 522.0766 640.000915527 540 622.077515527 540 600.000915527 c 2
 540 536.575476922 l 1
 672.738923391 513.990067895 790 383.223059427 790 250 c 0
 790 116.771034819 672.734026525 -13.9901933282 540 -36.5753657711 c 1
 540 -100 l 2
 540 -122.0766 522.0766 -140 500 -140 c 0
 477.9234 -140 460 -122.0766 460 -100 c 2
 460 -36.5754769218 l 1x7e
 327.261076609 -13.9900678951 210 116.776940573 210 250 c 0
 210 384.677881522 328.470253307 514.020492139 460 536.547652675 c 1
 460 600.000915527 l 2
540 45.2172486513 m 1
 628.263948629 67.8069499198 710 160.098016912 710 250 c 0
 710 339.903907307 628.2625068 432.193099314 540 454.782672036 c 1
 540 45.2172486513 l 1
460 45.1678863809 m 1
 460 454.782751349 l 1
 371.736051371 432.19305008 290 339.901983088 290 250 c 0
 290 161.317840542 370.823598207 67.8388200243 460 45.1678863809 c 1
EndSplineSet
Validated: 1
EndChar

StartChar: uni3070
Encoding: 142 12400 84
Width: 1225
Flags: W
HStem: -125 250<1030.13 1169.87> -40 80<114.379 460 540 885.621> 460 80<114.379 460 540 885.621>
VStem: 460 80<40 460> 975 250<-69.873 69.873>
LayerCount: 2
Fore
SplineSet
975 0 m 28xb8
 975 69 1031 125 1100 125 c 28
 1169 125 1225 69 1225 0 c 28
 1225 -69 1169 -125 1100 -125 c 28
 1031 -125 975 -69 975 0 c 28xb8
150 460 m 2
 127.923828125 460 110 477.923828125 110 500 c 0
 110 522.076171875 127.923828125 540 150 540 c 0
 383.333007812 540 616.666992188 540 850 540 c 0
 872.076171875 540 890 522.076171875 890 500 c 0
 890 477.923828125 872.076171875 460 850 460 c 2
 540 460 l 1
 540 40 l 1
 850 40 l 2
 872.076171875 40 890 22.076171875 890 0 c 0
 890 -22.076171875 872.076171875 -40 850 -40 c 0
 616.666992188 -40 383.333007812 -40 150 -40 c 0
 127.923828125 -40 110 -22.076171875 110 0 c 0
 110 22.076171875 127.923828125 40 150 40 c 2
 460 40 l 1x78
 460 460 l 1
 150 460 l 2
EndSplineSet
Validated: 1
EndChar

StartChar: uni3073
Encoding: 143 12403 85
Width: 1225
Flags: W
HStem: -140 80<190 885.621> -125 250<1030.13 1169.87> 200 300<522.15 677.85>
VStem: 110 80<-60 635.622> 450 300<272.15 427.85> 975 250<-69.873 69.873>
LayerCount: 2
Fore
SplineSet
975 0 m 28x7c
 975 69 1031 125 1100 125 c 28
 1169 125 1225 69 1225 0 c 28
 1225 -69 1169 -125 1100 -125 c 28
 1031 -125 975 -69 975 0 c 28x7c
450 350 m 24
 450 433 517 500 600 500 c 24
 683 500 750 433 750 350 c 24
 750 267 683 200 600 200 c 24
 517 200 450 267 450 350 c 24
150 640.000976562 m 0
 172.076171875 640.000976562 190 622.077148438 190 600.000976562 c 2
 190 -60 l 1
 850 -60 l 2
 872.076171875 -60 890 -77.923828125 890 -100 c 0
 890 -122.076171875 872.076171875 -140 850 -140 c 2
 150 -140 l 2xbc
 127.923828125 -140 110 -122.076171875 110 -100 c 2
 110 600.000976562 l 2
 110 622.077148438 127.923828125 640.000976562 150 640.000976562 c 0
EndSplineSet
Validated: 1
EndChar

StartChar: uni3076
Encoding: 144 12406 86
Width: 1225
Flags: W
HStem: -125 250<1030.13 1169.87> -40 80<114.377 720.258> 460 80<114.379 721.234>
VStem: 810.001 80<136.08 362.891> 975 250<-69.873 69.873>
LayerCount: 2
Fore
SplineSet
975 0 m 28xb8
 975 69 1031 125 1100 125 c 28
 1169 125 1225 69 1225 0 c 28
 1225 -69 1169 -125 1100 -125 c 28
 1031 -125 975 -69 975 0 c 28xb8
890.000976562 250 m 0
 890.000976562 -0.880859375 704.33984375 -40.0068359375 650.802734375 -40.0068359375 c 2
 149.998046875 -40 l 2
 127.921875 -40 109.998046875 -22.076171875 109.998046875 0 c 0
 109.998046875 22.076171875 127.921875 40 149.998046875 40 c 2
 649.778320312 40 l 2x78
 656.16015625 40.150390625 741.166992188 43.67578125 783.99609375 125.317382812 c 0
 798.938476562 153.801757812 810.000976562 193.603515625 810.000976562 250 c 0
 810.000976562 328.497070312 788.487304688 405.78515625 715.552734375 442.252929688 c 0
 713.754882812 443.151367188 681.108398438 459.264648438 649.780273438 460.001953125 c 0
 483.186523438 460.001953125 316.59375 460 150 460 c 0
 127.923828125 460 110 477.923828125 110 500 c 0
 110 522.076171875 127.922851562 540 150 540 c 2
 650 540 l 2
 707.260742188 539.999023438 890.000976562 498.849609375 890.000976562 250 c 0
EndSplineSet
Validated: 1
EndChar

StartChar: uni3079
Encoding: 145 12409 87
Width: 1225
Flags: W
HStem: -125 250<1030.13 1169.87> 460 80<114.379 885.621>
VStem: 975 250<-69.873 69.873>
LayerCount: 2
Fore
SplineSet
975 0 m 28
 975 69 1031 125 1100 125 c 28
 1169 125 1225 69 1225 0 c 28
 1225 -69 1169 -125 1100 -125 c 28
 1031 -125 975 -69 975 0 c 28
150 460 m 2
 127.923828125 460 110 477.923828125 110 500 c 0
 110 522.076171875 127.923828125 540 150 540 c 2
 850 540 l 2
 872.076171875 540 890 522.076171875 890 500 c 0
 890 477.923828125 872.076171875 460 850 460 c 2
 150 460 l 2
149.99609375 -40 m 2
 849.99609375 -40 l 2
 872.072265625 -40 889.99609375 -22.076171875 889.99609375 0 c 0
 889.99609375 11.0380859375 885.515625 21.0380859375 878.274414062 28.2783203125 c 2
 528.274414062 378.278320312 l 2
 521.034179688 385.51953125 511.034179688 390 499.99609375 390 c 0
 488.958007812 390 478.958007812 385.51953125 471.717773438 378.278320312 c 2
 121.717773438 28.2783203125 l 2
 114.4765625 21.0380859375 109.99609375 11.0380859375 109.99609375 0 c 0
 109.99609375 -22.076171875 127.919921875 -40 149.99609375 -40 c 2
246.553710938 40 m 1
 499.99609375 293.442382812 l 1
 753.438476562 40 l 1
 246.553710938 40 l 1
EndSplineSet
Validated: 9
EndChar

StartChar: uni307C
Encoding: 146 12412 88
Width: 1185
Flags: W
HStem: -125 250<990.127 1129.87>
VStem: 935 250<-69.873 69.873>
LayerCount: 2
Fore
SplineSet
935 0 m 28
 935 69 991 125 1060 125 c 28
 1129 125 1185 69 1185 0 c 28
 1185 -69 1129 -125 1060 -125 c 28
 991 -125 935 -69 935 0 c 28
234 210 m 0
 460 210 l 1
 460 -16 l 0
 353.909179688 4.69921875 254.625 103.895507812 234 210 c 0
500 600 m 0
 325 600 150 425 150 250 c 0
 150 75 325 -100 500 -100 c 0
 675 -100 850 75 850 250 c 0
 850 425 675 600 500 600 c 0
766 290 m 0
 540 290 l 1
 540 516 l 0
 646.104492188 495.375 745.220703125 396.899414062 766 290 c 0
540 210 m 1
 766 210 l 1
 745.375 103.895507812 646.104492188 4.625 540 -16 c 1
 540 210 l 1
234 290 m 1
 254.779296875 396.899414062 353.895507812 495.375 460 516 c 0
 460 290 l 1
 234 290 l 1
EndSplineSet
Validated: 9
EndChar

StartChar: uni3071
Encoding: 147 12401 89
Width: 1225
Flags: W
HStem: -125 60<1051.6 1148.4> -40 80<114.379 460 540 885.621> 65 60<1051.6 1148.4> 460 80<114.379 460 540 885.621>
VStem: 460 80<40 460> 975 60<-48.3952 48.3952> 1165 60<-48.3952 48.3952>
LayerCount: 2
Fore
SplineSet
975 0 m 28
 975 69 1031 125 1100 125 c 28
 1169 125 1225 69 1225 0 c 28
 1225 -69 1169 -125 1100 -125 c 28
 1031 -125 975 -69 975 0 c 28
1035 0 m 28
 1035 -36 1064 -65 1100 -65 c 28
 1136 -65 1165 -36 1165 0 c 28
 1165 36 1136 65 1100 65 c 28
 1064 65 1035 36 1035 0 c 28
150 460 m 2
 127.9234 460 110 477.9234 110 500 c 0
 110 522.0766 127.9234 540 150 540 c 0
 383.333333333 540 616.666666667 540 850 540 c 0
 872.0766 540 890 522.0766 890 500 c 0
 890 477.9234 872.0766 460 850 460 c 2
 540 460 l 1
 540 40 l 1
 850 40 l 2
 872.0766 40 890 22.0766 890 0 c 0
 890 -22.0766 872.0766 -40 850 -40 c 0
 616.666666667 -40 383.333333333 -40 150 -40 c 0
 127.9234 -40 110 -22.0766 110 0 c 0
 110 22.0766 127.9234 40 150 40 c 2
 460 40 l 1
 460 460 l 1
 150 460 l 2
EndSplineSet
Validated: 1
EndChar

StartChar: uni3074
Encoding: 148 12404 92
Width: 1225
Flags: W
HStem: -140 80<190 885.621> -125 60<1051.6 1148.4> 65 60<1051.6 1148.4> 200 300<522.15 677.85>
VStem: 110 80<-60 635.622> 450 300<272.15 427.85> 975 60<-48.3952 48.3952> 1165 60<-48.3952 48.3952>
LayerCount: 2
Fore
SplineSet
975 0 m 28x7f
 975 69 1031 125 1100 125 c 28
 1169 125 1225 69 1225 0 c 28
 1225 -69 1169 -125 1100 -125 c 28
 1031 -125 975 -69 975 0 c 28x7f
1035 0 m 28
 1035 -36 1064 -65 1100 -65 c 28
 1136 -65 1165 -36 1165 0 c 28
 1165 36 1136 65 1100 65 c 28
 1064 65 1035 36 1035 0 c 28
450 350 m 24
 450 433 517 500 600 500 c 24
 683 500 750 433 750 350 c 24
 750 267 683 200 600 200 c 24
 517 200 450 267 450 350 c 24
150 640.000915527 m 0
 172.0766 640.000915527 190 622.077515527 190 600.000915527 c 2
 190 -60 l 1
 850 -60 l 2
 872.0766 -60 890 -77.9234 890 -100 c 0
 890 -122.0766 872.0766 -140 850 -140 c 2
 150 -140 l 2xbf
 127.9234 -140 110 -122.0766 110 -100 c 2
 110 600.000915527 l 2
 110 622.077515527 127.9234 640.000915527 150 640.000915527 c 0
EndSplineSet
Validated: 1
EndChar

StartChar: uni3077
Encoding: 149 12407 93
Width: 1225
Flags: W
HStem: -125 60<1051.6 1148.4> -40 80<114.377 720.258> 65 60<1051.6 1148.4> 460 80<114.379 721.234>
VStem: 810.001 80<136.08 362.891> 975 60<-48.3952 48.3952> 1165 60<-48.3952 48.3952>
LayerCount: 2
Fore
SplineSet
975 0 m 28
 975 69 1031 125 1100 125 c 28
 1169 125 1225 69 1225 0 c 28
 1225 -69 1169 -125 1100 -125 c 28
 1031 -125 975 -69 975 0 c 28
1035 0 m 28
 1035 -36 1064 -65 1100 -65 c 28
 1136 -65 1165 -36 1165 0 c 28
 1165 36 1136 65 1100 65 c 28
 1064 65 1035 36 1035 0 c 28
890.000976562 250 m 0
 890.000976562 -0.880840382675 704.340330287 -40.0063531154 650.802250685 -40.0063531154 c 2
 149.998046875 -40 l 2
 127.921446875 -40 109.998046875 -22.0766 109.998046875 0 c 0
 109.998046875 22.0766 127.921446875 40 149.998046875 40 c 2
 649.778444223 40 l 2
 656.160374898 40.1500202634 741.166691459 43.675393919 783.99598442 125.317537697 c 0
 798.938516711 153.801322633 810.000976562 193.603719306 810.000976562 250 c 0
 810.000976562 328.496600529 788.487001036 405.785139762 715.552436943 442.252955994 c 0
 713.755046406 443.151664427 681.108277222 459.264938033 649.780120627 460.00195227 c 0
 483.186800195 460.00195227 316.593479762 460 150.000159329 460 c 0
 127.923559329 460 110 477.9234 110 500 c 0
 110 522.07654689 127.923313763 539.999913763 149.999840671 540 c 2
 650.000398346 540 l 2
 707.260963354 539.999440781 890.000976562 498.849356877 890.000976562 250 c 0
EndSplineSet
Validated: 1
EndChar

StartChar: uni307A
Encoding: 150 12410 94
Width: 1225
Flags: W
HStem: -125 60<1051.6 1148.4> 65 60<1051.6 1148.4> 460 80<114.379 885.621>
VStem: 975 60<-48.3952 48.3952> 1165 60<-48.3952 48.3952>
LayerCount: 2
Fore
SplineSet
975 0 m 28
 975 69 1031 125 1100 125 c 28
 1169 125 1225 69 1225 0 c 28
 1225 -69 1169 -125 1100 -125 c 28
 1031 -125 975 -69 975 0 c 28
1035 0 m 28
 1035 -36 1064 -65 1100 -65 c 28
 1136 -65 1165 -36 1165 0 c 28
 1165 36 1136 65 1100 65 c 28
 1064 65 1035 36 1035 0 c 28
150 460 m 2
 127.9234 460 110 477.9234 110 500 c 0
 110 522.0766 127.9234 540 150 540 c 2
 850 540 l 2
 872.0766 540 890 522.0766 890 500 c 0
 890 477.9234 872.0766 460 850 460 c 2
 150 460 l 2
149.99609375 -40 m 2
 849.99609375 -40 l 2
 872.072265625 -40 889.99609375 -22.076171875 889.99609375 -0 c 0
 889.99609375 11.0380859375 885.515625 21.0380859375 878.274414062 28.2783203125 c 2
 528.274414062 378.278320312 l 2
 521.034179688 385.51953125 511.034179688 390 499.99609375 390 c 0
 488.958007812 390 478.958007812 385.51953125 471.717773438 378.278320312 c 2
 121.717773438 28.2783203125 l 2
 114.4765625 21.0380859375 109.99609375 11.0380859375 109.99609375 -0 c 0
 109.99609375 -22.076171875 127.919921875 -40 149.99609375 -40 c 2
246.553710938 40 m 1
 499.99609375 293.442382812 l 1
 753.438476562 40 l 1
 246.553710938 40 l 1
EndSplineSet
Validated: 9
EndChar

StartChar: uni307D
Encoding: 151 12413 95
Width: 1185
Flags: W
HStem: -125 60<1011.6 1108.4> 65 60<1011.6 1108.4>
VStem: 935 60<-48.3952 48.3952> 1125 60<-48.3952 48.3952>
LayerCount: 2
Fore
SplineSet
935 0 m 28
 935 69 991 125 1060 125 c 28
 1129 125 1185 69 1185 0 c 28
 1185 -69 1129 -125 1060 -125 c 28
 991 -125 935 -69 935 0 c 28
995 0 m 28
 995 -36 1024 -65 1060 -65 c 28
 1096 -65 1125 -36 1125 0 c 28
 1125 36 1096 65 1060 65 c 28
 1024 65 995 36 995 0 c 28
234 210 m 0
 460 210 l 1
 460 -16 l 0
 353.909179688 4.69921875 254.62454431 103.895917741 234 210 c 0
500 600 m 0
 325 600 150 425 150 250 c 0
 150 75 325 -100 500 -100 c 0
 675 -100 850 75 850 250 c 0
 850 425 675 600 500 600 c 0
766 290 m 0
 540 290 l 1
 540 516 l 0
 646.104082259 495.37545569 745.220900403 396.899200277 766 290 c 0
540 210 m 1
 766 210 l 1
 745.37545569 103.895917741 646.104082259 4.62454431025 540 -16 c 1
 540 210 l 1
234 290 m 1
 254.779099597 396.899200277 353.895917741 495.37545569 460 516 c 0
 460 290 l 1
 234 290 l 1
EndSplineSet
Validated: 9
EndChar

StartChar: uni3041
Encoding: 152 12353 96
Width: 740
Flags: W
HStem: 310 80<158 422.069>
LayerCount: 2
Fore
SplineSet
142 390 m 0
 216 390 365 390 439 390 c 0
 445 390 451 390 456 390 c 1
 553 616 l 2
 559 630 574 640 590 640 c 0
 612 640 630 622 630 600 c 0
 630 594 629 589 627 584 c 0
 327 -116 327 -116 327 -116 c 2
 321 -130 306 -140 290 -140 c 0
 274 -140 259 -130 253 -116 c 2
 -47 584 l 26
 -50 590 -50 594 -50 600 c 0
 -50 622 -32 640 -10 640 c 0
 6 640 21 630 27 616 c 2
 123.407226562 390.274414062 l 1
 128.797851562 390.284179688 135 390 142 390 c 0
158 310 m 1
 290 1.55859375 l 1
 422.069335938 309.719726562 l 1
 420.501953125 309.720703125 160 310 158 310 c 1
EndSplineSet
Validated: 1
EndChar

StartChar: uni3043
Encoding: 153 12355 101
Width: 350
Flags: W
HStem: 100 300<22.1497 177.85>
VStem: -50 300<172.15 327.85>
LayerCount: 2
Fore
SplineSet
100 250 m 1049
-50 250 m 28
 -50 333 17 400 100 400 c 24
 183 400 250 333 250 250 c 24
 250 167 183 100 100 100 c 24
 17 100 -50 167 -50 250 c 28
EndSplineSet
Validated: 1
EndChar

StartChar: uni3045
Encoding: 154 12357 102
Width: 740
Flags: W
HStem: 560.001 80<152.442 427.569>
VStem: -50 80<-135.621 461.738> 550 80<-135.621 461.703>
LayerCount: 2
Fore
SplineSet
290 640.000976562 m 0
 593.080078125 640.000976562 630 446.30078125 630 400 c 2
 630 -100 l 2
 630 -122.076171875 612.076171875 -140 590 -140 c 0
 567.923828125 -140 550 -122.076171875 550 -100 c 2
 550 399.6796875 l 2
 549.880859375 403.087890625 547.59375 448.489257812 509.376953125 489.25390625 c 0
 477.12890625 523.65234375 415.387695312 560.000976562 290 560.000976562 c 0
 164.612304688 560.000976562 102.87109375 523.65234375 70.6220703125 489.252929688 c 0
 52.3955078125 469.811523438 42.3681640625 449.454101562 36.759765625 432.702148438 c 0
 30.693359375 414.5859375 30.04296875 400.963867188 29.998046875 399.6796875 c 0
 29.998046875 233.120117188 30 66.5595703125 30 -100 c 0
 30 -122.076171875 12.076171875 -140 -10 -140 c 0
 -32.076171875 -140 -50 -122.077148438 -50 -100 c 2
 -50 400 l 2
 -50 446.380859375 -13.013671875 640.000976562 290 640.000976562 c 0
EndSplineSet
Validated: 1
EndChar

StartChar: uni3047
Encoding: 155 12359 103
Width: 630
Flags: W
HStem: -40 80<54.7256 425.274>
LayerCount: 2
Fore
SplineSet
240 410.549804688 m 5
 54.7255859375 40 l 1
 425.274414062 40 l 1
 240 410.549804688 l 5
240 540 m 0
 255.6640625 540 269.236328125 530.977539062 275.80078125 517.849609375 c 2
 525.80078125 17.849609375 l 2
 528.487304688 12.4755859375 530 6.4130859375 530 0 c 0
 530 -22.076171875 512.076171875 -40 490 -40 c 2
 -10 -40 l 2
 -32.076171875 -40 -50 -22.076171875 -50 0 c 0
 -50 6.4130859375 -48.4873046875 12.4755859375 -45.80078125 17.849609375 c 2
 204.19921875 517.849609375 l 2
 210.763671875 530.977539062 224.3359375 540 240 540 c 0
EndSplineSet
Validated: 1
EndChar

StartChar: uni3049
Encoding: 156 12361 104
Width: 750
Flags: W
HStem: -100 80<195.493 404.507> 520 80<195.493 404.507>
VStem: -50 80<145.493 354.507> 570 80<145.493 354.507>
LayerCount: 2
Fore
SplineSet
300 520 m 24
 151 520 30 399 30 250 c 24
 30 101 151 -20 300 -20 c 24
 449 -20 570 101 570 250 c 24
 570 399 449 520 300 520 c 24
300 600 m 28
 493 600 650 443 650 250 c 24
 650 57 493 -100 300 -100 c 24
 107 -100 -50 57 -50 250 c 24
 -50 443 107 600 300 600 c 28
EndSplineSet
Validated: 1
EndChar

StartChar: uni308E
Encoding: 157 12430 105
Width: 740
Flags: W
VStem: -50 78.5381<-135.567 -85.615> 551.462 78.5381<-135.567 -85.615>
LayerCount: 2
Fore
SplineSet
-10 -140 m 0
 -32.076171875 -140 -50 -122.076171875 -50 -100 c 0
 -50 -96.279296875 -49.4912109375 -92.67578125 -48.5380859375 -89.2568359375 c 2
 146.461914062 610.743164062 l 2
 151.16015625 627.609375 166.64453125 640 185 640 c 0
 203.27734375 640 218.708007812 627.71484375 223.477539062 610.958984375 c 2
 290 377.27734375 l 1
 356.522460938 610.958984375 l 2
 361.291992188 627.71484375 376.72265625 640 395 640 c 0
 413.35546875 640 428.83984375 627.609375 433.538085938 610.743164062 c 2
 628.538085938 -89.2568359375 l 2
 629.491210938 -92.67578125 630 -96.279296875 630 -100 c 0
 630 -122.076171875 612.076171875 -140 590 -140 c 0
 571.64453125 -140 556.16015625 -127.609375 551.461914062 -110.743164062 c 2
 394.583007812 452.411132812 l 1
 331.59765625 231.154296875 l 1
 418.477539062 -74.041015625 l 2
 419.46875 -77.5244140625 420 -81.2001953125 420 -85 c 0
 420 -107.076171875 402.076171875 -125 380 -125 c 0
 361.72265625 -125 346.291992188 -112.71484375 341.522460938 -95.958984375 c 2
 290 85.0302734375 l 1
 238.477539062 -95.958984375 l 2
 233.708007812 -112.71484375 218.27734375 -125 200 -125 c 0
 177.923828125 -125 160 -107.076171875 160 -85 c 0
 160 -81.2001953125 160.53125 -77.5244140625 161.522460938 -74.041015625 c 2
 248.40234375 231.154296875 l 1
 185.416992188 452.411132812 l 1
 28.5380859375 -110.743164062 l 2
 23.83984375 -127.609375 8.35546875 -140 -10 -140 c 0
EndSplineSet
Validated: 1
EndChar

StartChar: uni3063
Encoding: 158 12387 106
Width: 740
Flags: W
HStem: -140 80<152.442 427.569>
VStem: -50 79.998<38.2634 100.321 600.001 635.622> 149.998 80<198.378 620.621> 350 80<198.378 620.621> 550 80<38.2974 100.321 600.001 635.622>
LayerCount: 2
Fore
SplineSet
290 -140 m 0
 593.080078125 -140 630 53.69921875 630 100.000976562 c 2
 630 600.000976562 l 2
 630 622.077148438 612.076171875 640.000976562 590 640.000976562 c 0
 567.923828125 640.000976562 550 622.077148438 550 600.000976562 c 2
 550 100.321289062 l 2
 549.880859375 96.9130859375 547.59375 51.51171875 509.376953125 10.7470703125 c 0
 477.12890625 -23.6513671875 415.387695312 -60 290 -60 c 0
 164.612304688 -60 102.87109375 -23.6513671875 70.6220703125 10.7470703125 c 0
 52.3955078125 30.189453125 42.3681640625 50.546875 36.759765625 67.2978515625 c 0
 30.693359375 85.4150390625 30.04296875 99.0361328125 29.998046875 100.321289062 c 0
 29.998046875 266.880859375 30 433.44140625 30 600.000976562 c 0
 30 622.077148438 12.076171875 640.000976562 -10 640.000976562 c 0
 -32.076171875 640.000976562 -50 622.077148438 -50 600.000976562 c 2
 -50 100.000976562 l 2
 -50 53.6201171875 -13.013671875 -140 290 -140 c 0
149.998046875 585 m 2
 149.998046875 607.076171875 167.921875 625 189.998046875 625 c 0
 212.07421875 625 229.998046875 607.076171875 229.998046875 585 c 2
 229.998046875 233.999023438 l 2
 229.998046875 211.922851562 212.07421875 193.999023438 189.998046875 193.999023438 c 0
 167.921875 193.999023438 149.998046875 211.922851562 149.998046875 233.999023438 c 2
 149.998046875 585 l 2
350 585 m 2
 350 607.076171875 367.923828125 625 390 625 c 0
 412.076171875 625 430 607.076171875 430 585 c 2
 430 233.999023438 l 2
 430 211.922851562 412.076171875 193.999023438 390 193.999023438 c 0
 367.923828125 193.999023438 350 211.922851562 350 233.999023438 c 2
 350 585 l 2
EndSplineSet
Validated: 9
EndChar

StartChar: uni3083
Encoding: 159 12419 107
Width: 790
Flags: W
HStem: 210 80<356.558 725.621>
LayerCount: 2
Fore
SplineSet
-50 600.000976562 m 0
 -50 622.077148438 -32.076171875 640.000976562 -10 640.000976562 c 0
 1.0380859375 640.000976562 11.0380859375 635.520507812 18.2783203125 628.279296875 c 2
 356.557617188 290 l 1
 690 290 l 2
 712.076171875 290 730 272.076171875 730 250 c 0
 730 227.923828125 712.076171875 210 690 210 c 2
 356.557617188 210 l 1
 18.2783203125 -128.278320312 l 2
 11.0380859375 -135.51953125 1.0380859375 -140 -10 -140 c 0
 -32.076171875 -140 -50 -122.076171875 -50 -100 c 0
 -50 -88.9619140625 -45.51953125 -78.9619140625 -38.2783203125 -71.7216796875 c 2
 283.442382812 250 l 1
 -38.2783203125 571.72265625 l 2
 -45.51953125 578.962890625 -50 588.962890625 -50 600.000976562 c 0
EndSplineSet
Validated: 1
EndChar

StartChar: uni3085
Encoding: 160 12421 108
Width: 740
Flags: W
HStem: 310 79.4023<104.065 250 330 475.935> 560.001 80<-45.6212 250>
VStem: -50 80<-135.621 247> 250 80<389.402 560.001> 550 80<-135.621 247>
CounterMasks: 1 38
LayerCount: 2
Fore
SplineSet
550 247 m 1
 550 247 515 310 290 310 c 0
 65 310 30 247 30 247 c 1
 30 -100 l 2
 30 -122.076171875 12.076171875 -140 -10 -140 c 0
 -32.076171875 -140 -50 -122.076171875 -50 -100 c 2
 -50 250 l 2
 -50 271.948242188 -34.966796875 312.884765625 22.658203125 343.618164062 c 0
 67.4462890625 367.504882812 136.888671875 385.9140625 250 389.40234375 c 1
 250 560.000976562 l 1
 -10 560.000976562 l 2
 -32.076171875 560.000976562 -50 577.923828125 -50 600.000976562 c 0
 -50 622.077148438 -32.076171875 640.000976562 -10 640.000976562 c 2
 290 640.000976562 l 2
 312.076171875 640.000976562 330 622.077148438 330 600.000976562 c 2
 330 389.40234375 l 1
 443.111328125 385.9140625 512.553710938 367.504882812 557.341796875 343.618164062 c 0
 592.0546875 325.104492188 611.76953125 302.478515625 621.401367188 282.893554688 c 0
 629.03515625 267.37109375 630 254.993164062 630 250 c 2
 630 -100 l 2
 630 -122.076171875 612.076171875 -140 590 -140 c 0
 567.923828125 -140 550 -122.076171875 550 -100 c 2
 550 247 l 1
EndSplineSet
Validated: 1
EndChar

StartChar: uni3087
Encoding: 161 12423 109
Width: 450
Flags: W
HStem: 550 80<82.2218 217.778>
VStem: -50 80<362.111 497.778> 110 80<-135.607 -100 234 238.659> 270 80<362.827 497.778>
CounterMasks: 1 70
LayerCount: 2
Fore
SplineSet
30 430 m 24
 30 496 84 550 150 550 c 24
 216 550 270 496 270 430 c 24
 270 364 216 310 150 310 c 24
 84 310 30 364 30 430 c 24
110 234.006835938 m 1
 110 -100 l 2
 110 -122 127.923828125 -140 150 -140 c 0
 172.076171875 -140 190 -122 190 -100 c 2
 190 234 l 1
 277.703125 255.190429688 350 335.828125 350 430 c 8
 350 540 260 630 150 630 c 24
 40 630 -50 540 -50 430 c 20
 -50 333.311523438 18.7548828125 252.556640625 110 234.006835938 c 1
EndSplineSet
Validated: 9
EndChar

StartChar: uni30A2
Encoding: 162 12450 114
Width: 1000
Flags: W
HStem: 310 80<368 632.069>
LayerCount: 2
Fore
SplineSet
352 390 m 0
 426 390 575 390 649 390 c 0
 655 390 661 390 666 390 c 1
 763 616 l 2
 769 630 784 640 800 640 c 0
 822 640 840 622 840 600 c 0
 840 594 839 589 837 584 c 0
 537 -116 537 -116 537 -116 c 2
 531 -130 516 -140 500 -140 c 0
 484 -140 469 -130 463 -116 c 2
 163 584 l 26
 160 590 160 594 160 600 c 0
 160 622 178 640 200 640 c 0
 216 640 231 630 237 616 c 2
 333.407226562 390.274414062 l 1
 338.797851562 390.284179688 345 390 352 390 c 0
368 310 m 1
 500 1.55859375 l 1
 632.069335938 309.719726562 l 1
 630.501953125 309.720703125 370 310 368 310 c 1
EndSplineSet
Validated: 1
EndChar

StartChar: uni30A4
Encoding: 163 12452 115
Width: 600
Flags: W
HStem: 100 300<222.244 377.756>
VStem: 150 300<172.244 327.756>
LayerCount: 2
Fore
SplineSet
300 250 m 1049
150 250 m 28
 150 333 217 400 300 400 c 24
 383 400 450 333 450 250 c 24
 450 167 383 100 300 100 c 24
 217 100 150 167 150 250 c 28
EndSplineSet
Validated: 1
EndChar

StartChar: uni30A6
Encoding: 164 12454 116
Width: 1000
Flags: W
HStem: 560.001 80<362.442 637.569>
VStem: 160 80<-135.621 461.738> 760 80<-135.621 461.703>
LayerCount: 2
Fore
SplineSet
500 640.000915527 m 0
 803.080095809 640.000915527 839.999999966 446.301246349 840 400 c 2
 840 -100 l 2
 840 -122.0766 822.0766 -140 800 -140 c 0
 777.9234 -140 760 -122.0766 760 -100 c 2
 760 399.679614261 l 2
 759.880861199 403.087797301 757.593393532 448.48912574 719.377005947 489.2534591 c 0
 687.128585135 523.651932096 625.38726839 560.000915527 500 560.000915527 c 0
 374.612743476 560.000915527 312.870999152 523.651931329 280.622163543 489.25332661 c 0
 262.395430447 469.811564598 252.368595935 449.453798903 246.759816823 432.702592295 c 0
 240.693696819 414.585489183 240.043242316 400.964239544 239.998307358 399.679379002 c 0
 239.998307358 233.119632057 240 66.5598851127 240 -99.9998618318 c 0
 240 -122.076461832 222.0766 -140 200 -140 c 0
 177.923446056 -140 160.000074783 -122.076674783 160 -100.000138168 c 2
 160 400.000345449 l 2
 160.000392812 446.380812407 196.986513705 640.000915527 500 640.000915527 c 0
EndSplineSet
Validated: 1
EndChar

StartChar: uni30A8
Encoding: 165 12456 117
Width: 880
Flags: W
HStem: -40 80<254.725 625.275>
LayerCount: 2
Fore
SplineSet
440 410.549804688 m 5
 254.725585938 40 l 1
 625.274414062 40 l 1
 440 410.549804688 l 5
440 540 m 0
 455.6640625 540 469.236328125 530.977539062 475.80078125 517.849609375 c 2
 725.80078125 17.849609375 l 2
 728.487304688 12.4755859375 730 6.4130859375 730 0 c 0
 730 -22.076171875 712.076171875 -40 690 -40 c 2
 190 -40 l 2
 167.923828125 -40 150 -22.076171875 150 0 c 0
 150 6.4130859375 151.512695312 12.4755859375 154.19921875 17.849609375 c 2
 404.19921875 517.849609375 l 2
 410.763671875 530.977539062 424.3359375 540 440 540 c 0
EndSplineSet
Validated: 1
EndChar

StartChar: uni30AA
Encoding: 166 12458 118
Width: 1000
Flags: W
HStem: -100 80<409.147 590.853> 520 80<409.147 590.853>
VStem: 150 80<159.147 340.853> 770 80<159.147 340.853>
LayerCount: 2
Fore
SplineSet
500 520 m 24
 351 520 230 399 230 250 c 24
 230 101 351 -20 500 -20 c 24
 649 -20 770 101 770 250 c 24
 770 399 649 520 500 520 c 24
500 600 m 28
 693 600 850 443 850 250 c 24
 850 57 693 -100 500 -100 c 24
 307 -100 150 57 150 250 c 24
 150 443 307 600 500 600 c 28
EndSplineSet
Validated: 1
EndChar

StartChar: uni30AB
Encoding: 167 12459 119
Width: 1000
Flags: W
HStem: -40 80<114.393 429 571 885.607>
LayerCount: 2
Fore
SplineSet
160 500 m 0
 160 522 178 540 200 540 c 0
 215 540 227 532 234 521 c 2
 500 78 l 1
 766 521 l 2
 773 532 785 540 800 540 c 0
 822 540 840 522 840 500 c 0
 840 492 838 485 834 479 c 2
 571 40 l 1
 850 40 l 2
 872 40 890 22 890 0 c 0
 890 -22 872 -40 850 -40 c 2
 150 -40 l 2
 128 -40 110 -22 110 0 c 0
 110 22 128 40 150 40 c 2
 429 40 l 1
 166 479 l 2
 162 485 160 492 160 500 c 0
EndSplineSet
Validated: 1
EndChar

StartChar: uni30AD
Encoding: 168 12461 120
Width: 700
Flags: W
HStem: 100 300<312.15 467.85>
VStem: 160 80<-135.607 635.607>
LayerCount: 2
Fore
SplineSet
160 600 m 2
 160 622 178 640 200 640 c 0
 222 640 240 622 240 600 c 2
 240 250 l 1
 240 333 307 400 390 400 c 24
 473 400 540 333 540 250 c 24
 540 167 473 100 390 100 c 24
 307 100 240 167 240 250 c 5
 240 -100 l 2
 240 -122 222 -140 200 -140 c 0
 178 -140 160 -122 160 -100 c 2
 160 600 l 2
EndSplineSet
Validated: 5
EndChar

StartChar: uni30AF
Encoding: 169 12463 121
Width: 1000
Flags: W
HStem: -140 80<280.302 420.535>
VStem: 160 80<-19.2112 635.607> 460 80<-18.1605 153 347 635.607>
LayerCount: 2
Fore
SplineSet
350 -140 m 0
 196 -140 160 -8 160 50 c 2
 160 600 l 2
 160 622 178 640 200 640 c 0
 222 640 240 622 240 600 c 2
 240 50 l 1
 240 50 240 50 240 49 c 0
 240 43 244 -20 290 -46 c 0
 304 -54 323 -60 350 -60 c 0
 399 -60 433 -41 450 4 c 0
 460 28 460 46 460 49 c 0
 460 50 460 50 460 50 c 1
 460 600 l 2
 460 622 478 640 500 640 c 0
 522 640 540 622 540 600 c 2
 540 347 l 1
 772 603 l 2
 779 611 789 615 800 615 c 0
 822 615 840 597 840 575 c 0
 840 564 836 554 828 547 c 2
 557 250 l 1
 828 -47 l 2
 836 -54 840 -64 840 -75 c 0
 840 -97 822 -115 800 -115 c 0
 789 -115 779 -111 772 -103 c 2
 540 153 l 1
 540 50 l 2
 539.99887026 -4.37208458574 506 -140 350 -140 c 0
EndSplineSet
Validated: 1
EndChar

StartChar: uni30B1
Encoding: 170 12465 122
Width: 1000
Flags: W
HStem: 210 80<240 385.807>
VStem: 160 80<-135.621 210 290 635.622> 759.999 80<9.0307 490.969>
LayerCount: 2
Fore
SplineSet
799.998779297 615 m 0
 822.075379297 615 839.998779297 597.0766 839.998779297 575 c 2
 839.998779297 -75 l 2
 839.998779297 -97.0766 822.075379297 -115 799.998779297 -115 c 0
 790.452002608 -115 781.68188781 -111.648265981 774.801995803 -106.058358843 c 0
 385.806736477 210 385.806736477 210 385.806736477 210 c 1
 240 210 l 1
 240 -100 l 2
 240 -122.0766 222.0766 -140 200 -140 c 0
 177.9234 -140 160 -122.0766 160 -100 c 0
 160 600.000915527 160 600.000915527 160 600.000915527 c 2
 160 622.077515527 177.9234 640.000915527 200 640.000915527 c 0
 222.0766 640.000915527 240 622.077515527 240 600.000915527 c 2
 240 290 l 1
 385.806736477 290 l 1
 774.801995803 606.058358843 l 2
 781.68188781 611.648265981 790.452002608 615 799.998779297 615 c 0
463.420903998 250 m 1
 759.998779297 9.0306969337 l 1
 759.998779297 490.969303066 l 1
 463.420903998 250 l 1
EndSplineSet
Validated: 1
EndChar

StartChar: uni30B3
Encoding: 171 12467 123
Width: 1000
Flags: W
HStem: -140 80<612.938 735.659> 210 80<612.937 737.026> 560.001 80<190 810>
VStem: 110 80<214.379 560.001> 460 80<11.4033 138.596> 810 80<13.8672 138.384 234.78 560.001>
LayerCount: 2
Fore
SplineSet
150 250 m 1024
810 75 m 28
 810 149 749 210 675 210 c 24
 601 210 540 149 540 75 c 24
 540 1 601 -60 675 -60 c 24
 749 -60 810 1 810 75 c 28
809.99961797 560.000915527 m 5
 190 560.000915527 l 1
 190 250 l 2
 190 227.9234 172.0766 210 150 210 c 0
 127.9234 210 110 227.9234 110 250 c 2
 110 600.000915527 l 2
 110 622.077515527 127.9234 640.000915527 150 640.000915527 c 2
 850 640.000915527 l 2
 872.0766 640.000915527 889.999999998 622.07712597 889.999999998 600.00052597 c 2
 889.999999998 190.999610443 l 2
 889.999999998 176.330155643 882.084215882 163.49452127 870.295426357 156.532773555 c 1
 882.812280411 130.594239119 890 102.797119559 890 75 c 4
 890 -32.5 794 -140 675 -140 c 24
 556 -140 460 -44 460 75 c 24
 460 194 556 290 675 290 c 20
 723.235986732 290 771.471973464 268.356182177 809.996230807 234.780275919 c 1
 809.996230807 343.187155788 810 433 809.99961797 560.000915527 c 5
EndSplineSet
Validated: 33
EndChar

StartChar: uni30B5
Encoding: 172 12469 124
Width: 1000
Flags: W
HStem: -40 80<280.448 420.654> 460 80<579.21 719.552>
VStem: 160 79.9928<80.7842 150 150 535.621> 460.007 79.9928<81.8395 150 150 418.161> 760 80<-35.6213 350 350 419.216>
LayerCount: 2
Fore
SplineSet
350 -40 m 0
 196.136053229 -40 160 92.4861238456 160 149.549424227 c 2
 160 499.999802617 l 2
 160 522.076402617 177.921706274 540 199.998306274 540 c 0
 222.07484048 540 239.998199441 522.076706833 239.998306274 500.000197383 c 2
 239.998306274 150 l 1
 239.998306274 150 239.992840491 149.777763501 239.992840491 149.347759943 c 0
 239.992840491 142.781998696 243.727500896 80.3431058927 290.378917984 53.6851532712 c 0
 304.021179013 45.8895755401 322.703534601 40 350 40 c 0
 399.075727276 40 433.264706334 59.089401181 450.497841854 104.387928834 c 0
 459.519610215 128.102291382 460.007159509 145.799301684 460.007159509 149.347759943 c 0
 460.007159509 149.777763501 460 150 460 150 c 1
 460 349.99990044 l 2
 460.001129751 404.373120184 494.005951762 540 649.999633789 540 c 0
 803.863915901 540 840 407.51361186 840 350.449172782 c 2
 840 0 l 2
 840 -22.0766 822.0766 -40 800 -40 c 0
 777.9234 -40 760 -22.0766 760 0 c 2
 760 350 l 1
 760 350 760.007157934 350.222203103 760.007157934 350.65214328 c 0
 760.007157934 357.217186091 756.272620565 419.656679037 709.620782879 446.31483481 c 0
 695.97848152 454.110424711 677.296098553 460 649.999633789 460 c 0
 611.407842162 460 575.774272187 448.575572303 555.074319951 408.185618814 c 0
 546.726146226 391.896578888 540.963672175 369.85118176 540 350.000000011 c 2
 540 150 l 2
 539.99887026 95.6279154143 505.994259302 -40 350 -40 c 0
EndSplineSet
Validated: 1
EndChar

StartChar: uni30B7
Encoding: 173 12471 125
Width: 1000
Flags: W
HStem: -150 300<422.244 577.756> 310 80<165.357 835.222> 560.001 80<165.357 835.222>
VStem: 350 300<-77.7558 77.7558>
LayerCount: 2
Fore
SplineSet
350 -0 m 24
 350 83 417 150 500 150 c 24
 583 150 650 83 650 -0 c 24
 650 -83 583 -150 500 -150 c 28
 417 -150 350 -83 350 -0 c 24
199.998046875 560.000976562 m 2
 183.194335938 560.000976562 159.998046875 577.923828125 159.998046875 600.000976562 c 0
 159.998046875 622.077148438 183.194335938 640.000976562 199.998046875 640.000976562 c 2
 799.999023438 640.000976562 l 2
 819.933094053 640.000976562 839.999023438 622.077148438 839.999023438 600.000976562 c 0
 839.999023438 577.924804688 819.933094053 560.000976562 799.999023438 560.000976562 c 2
 199.998046875 560.000976562 l 2
199.998046875 310 m 2
 183.194335938 310 159.998046875 327.923828125 159.998046875 350 c 0
 159.998046875 372.076171875 183.194335938 390 199.998046875 390 c 2
 799.999023438 390 l 2
 819.932617188 390 839.999023438 372.077148438 839.999023438 350 c 0
 839.999023438 327.923828125 819.932617188 310 799.999023438 310 c 2
 199.998046875 310 l 2
EndSplineSet
Validated: 1
EndChar

StartChar: uni30B9
Encoding: 174 12473 126
Width: 1000
Flags: W
HStem: -40 80<164.377 522.429> 460 80<164.377 521.878>
VStem: 560 79.4749<92.3893 218.543>
LayerCount: 2
Fore
SplineSet
497.911228581 40 m 1
 515.554931742 44.328582641 560 87.8415784195 560 250 c 0
 560 282.643142268 558.465355361 367.574930147 532.03783109 422.190448944 c 0
 526.435565287 432.809547642 514.492570144 455.447503181 497.722784178 460 c 1
 199.998306274 460 l 2
 177.921706274 460 159.998306274 477.9234 159.998306274 500 c 0
 159.998306274 522.0766 177.921706274 540 199.998306274 540 c 2
 500 540 l 2
 507.126750357 539.999999991 562.311169181 536.26674248 603.821994517 457.582944396 c 0
 835.40171863 18.6234174449 835.40171863 18.6234174449 835.40171863 18.6234174449 c 2
 838.33682178 13.0599273973 839.998779297 6.72251762139 839.998779297 3.11903280981e-15 c 0
 839.998779297 -22.0766 822.075379297 -40 799.998779297 -40 c 0
 784.644696918 -40 771.299550998 -31.3303063389 764.595839963 -18.6234174449 c 2
 639.474917911 218.543376696 l 1
 636.14128003 121.521219868 617.254618212 60.7840102257 592.014662608 21.3465795949 c 0
 572.589271675 -9.00559373873 549.20836589 -25.5671025768 530.422812966 -33.2660996766 c 0
 515.497040086 -39.3832197093 504.156809579 -39.9999999946 500 -40 c 2
 199.998306274 -40 l 2
 177.921706274 -40 159.998306274 -22.0766 159.998306274 0 c 0
 159.998306274 22.0766 177.921706274 40 199.998306274 40 c 2
 497.911228581 40 l 1
EndSplineSet
Validated: 1
EndChar

StartChar: uni30BB
Encoding: 175 12475 127
Width: 1000
Flags: W
HStem: 210 80<236.96 453.875 546.125 763.04>
LayerCount: 2
Fore
SplineSet
850 250 m 1024
850 250 m 1024
422.887300401 506.91557621 m 1
 236.95966365 290 l 1
 453.875239859 290 l 1
 422.887300401 506.91557621 l 1
850 290 m 2
 872.0766 290 890 272.0766 890 250 c 0
 890 240.072927809 886.375914962 230.985626531 880.379753226 223.990104506 c 2
 580.379753226 -126.009895494 l 2
 573.041181253 -134.571562796 562.149527809 -140 550 -140 c 0
 529.857465017 -140 513.172306892 -125.07946923 510.403426846 -105.69730891 c 2
 465.303811288 210 l 1
 150 210 l 2
 127.9234 210 110 227.9234 110 250 c 0
 110 259.927072191 113.624085038 269.014373469 119.620246774 276.009895494 c 2
 419.620246774 626.009895494 l 2
 426.958818747 634.571562796 437.850472191 640 450 640 c 0
 470.142534983 640 486.827693108 625.07946923 489.596573154 605.69730891 c 2
 534.696188712 290 l 1
 850 290 l 2
546.124760141 210 m 1
 577.112699599 -6.91557620954 l 1
 763.04033635 210 l 1
 546.124760141 210 l 1
EndSplineSet
Validated: 1
EndChar

StartChar: uni30BD
Encoding: 176 12477 128
Width: 750
Flags: W
HStem: -140 80<304.213 445.787> 210 80<310.898 439.102> 560 80<310.802 439.197>
VStem: 160 80<4.21328 146.779 362.691 488.308> 510 80<4.21328 146.779 362.692 488.309>
CounterMasks: 1 e0
LayerCount: 2
Fore
SplineSet
510 425 m 0
 510 489.182617188 436.86328125 560 375 560 c 0
 313.134765625 560 240 489.180664062 240 425 c 0
 240 360.817382812 313.13671875 290 375 290 c 0
 436.865234375 290 510 360.819335938 510 425 c 0
375 640 m 24
 494 640 590 544 590 425 c 16
 590 357.985351562 548.224609375 290.971679688 490.71484375 250 c 1
 548.224609375 209.028320312 590 142.014648438 590 75 c 8
 590 -44 494 -140 375 -140 c 24
 256 -140 160 -44 160 75 c 16
 160 142.014648438 201.775390625 209.028320312 259.28515625 250 c 1
 201.775390625 290.971679688 160 357.985351562 160 425 c 8
 160 544 256 640 375 640 c 24
375 210 m 24
 301 210 240 149 240 75 c 24
 240 1 301 -60 375 -60 c 24
 449 -60 510 1 510 75 c 24
 510 149 449 210 375 210 c 24
EndSplineSet
Validated: 1
EndChar

StartChar: uni30BF
Encoding: 177 12479 129
Width: 1000
Flags: W
HStem: -140 80<114.379 460 540 885.621>
VStem: 460 80<-60 634.734>
LayerCount: 2
Fore
SplineSet
460 600 m 2
 460 617.306161195 477.923828125 640 500 640 c 0
 522.076171875 640 540 617.306161195 540 600 c 2
 540 -60 l 1
 850 -60 l 2
 872.076171875 -60 890 -77.923828125 890 -100 c 0
 890 -122.076171875 872.076171875 -140 850 -140 c 0
 616.666992188 -140 383.333007812 -140 150 -140 c 0
 127.923828125 -140 110 -122.076171875 110 -100 c 0
 110 -77.923828125 127.923828125 -60 150 -60 c 2
 460 -60 l 1
 460 600 l 2
EndSplineSet
Validated: 1
EndChar

StartChar: uni30C1
Encoding: 178 12481 130
Width: 1000
Flags: W
HStem: 310 80<164.377 199.998 799.999 835.62>
VStem: 350 300<-77.7558 76.6714> 460 80<144.599 309.88 600.001 635.622>
LayerCount: 2
Fore
SplineSet
540 144.598632812 m 1xa0
 540 144.598443217 540 310 540 310 c 1
 799.999023438 310 l 2
 822.075623437 310 839.999023438 327.9234 839.999023438 350 c 0
 839.999023438 372.0766 822.075623437 390 799.999023438 390 c 2
 540 390 l 1
 540 600.000915527 l 2
 540 622.077515527 522.0766 640.000915527 500 640.000915527 c 0
 477.9234 640.000915527 460 622.077515527 460 600.000915527 c 2
 460 390 l 1
 199.998046875 390 l 2
 177.921446875 390 159.998046875 372.0766 159.998046875 350 c 0
 159.998046875 327.9234 177.921446875 310 199.998046875 310 c 2
 460 310 l 1
 460 310 460 144.598443217 460 144.598632812 c 1xa0
 396.60546875 127.075195312 350 71 350 -0 c 20
 350 -82.787109375 417 -150 500 -150 c 24
 583 -150 650 -83 650 -0 c 16xc0
 650 68.9373017468 603.39453125 127.075195312 540 144.598632812 c 1xa0
EndSplineSet
Validated: 41
EndChar

StartChar: uni30C4
Encoding: 179 12484 131
Width: 1000
Flags: W
HStem: -140 80<362.442 637.569>
VStem: 160 79.998<38.2634 100.321 600.001 635.622> 359.998 80<198.378 620.621> 560 80<198.378 620.621> 760 80<38.2974 100.321 600.001 635.622>
LayerCount: 2
Fore
SplineSet
500 -140 m 0
 803.080078125 -140 840 53.69921875 840 100.000976562 c 2
 840 600.000976562 l 2
 840 622.077148438 822.076171875 640.000976562 800 640.000976562 c 0
 777.923828125 640.000976562 760 622.077148438 760 600.000976562 c 2
 760 100.321289062 l 2
 759.880859375 96.9130859375 757.59375 51.51171875 719.376953125 10.7470703125 c 0
 687.12890625 -23.6513671875 625.387695312 -60 500 -60 c 0
 374.612304688 -60 312.87109375 -23.6513671875 280.622070312 10.7470703125 c 0
 262.395507812 30.189453125 252.368164062 50.546875 246.759765625 67.2978515625 c 0
 240.693359375 85.4150390625 240.04296875 99.0361328125 239.998046875 100.321289062 c 0
 239.998046875 266.880859375 240 433.44140625 240 600.000976562 c 0
 240 622.077148438 222.076171875 640.000976562 200 640.000976562 c 0
 177.923828125 640.000976562 160 622.077148438 160 600.000976562 c 2
 160 100.000976562 l 2
 160 53.6201171875 196.986328125 -140 500 -140 c 0
359.998046875 585 m 2
 359.998046875 607.076171875 377.921875 625 399.998046875 625 c 0
 422.07421875 625 439.998046875 607.076171875 439.998046875 585 c 2
 439.998046875 233.999023438 l 2
 439.998046875 211.922851562 422.07421875 193.999023438 399.998046875 193.999023438 c 0
 377.921875 193.999023438 359.998046875 211.922851562 359.998046875 233.999023438 c 2
 359.998046875 585 l 2
560 585 m 2
 560 607.076171875 577.923828125 625 600 625 c 0
 622.076171875 625 640 607.076171875 640 585 c 2
 640 233.999023438 l 2
 640 211.922851562 622.076171875 193.999023438 600 193.999023438 c 0
 577.923828125 193.999023438 560 211.922851562 560 233.999023438 c 2
 560 585 l 2
EndSplineSet
Validated: 9
EndChar

StartChar: uni30C6
Encoding: 180 12486 132
Width: 1000
Flags: W
HStem: 310 80<246.557 753.443> 460 80<114.379 885.621>
LayerCount: 2
Fore
SplineSet
150 460 m 2
 127.9234 460 110 477.9234 110 500 c 0
 110 522.0766 127.9234 540 150 540 c 2
 850 540 l 2
 872.0766 540 890 522.0766 890 500 c 0
 890 477.9234 872.0766 460 850 460 c 2
 150 460 l 2
150 390 m 2
 850 390 l 2
 872.0766 390 890 372.0766 890 350 c 0
 890 338.9617 885.51915 328.9617 878.278725 321.721275 c 2
 528.278725 -28.278725 l 2
 521.0383 -35.51915 511.0383 -40 500 -40 c 0
 488.9617 -40 478.9617 -35.51915 471.721275 -28.278725 c 2
 121.721275 321.721275 l 2
 114.48085 328.9617 110 338.9617 110 350 c 0
 110 372.0766 127.9234 390 150 390 c 2
246.55745 310 m 1
 500 56.55745 l 1
 753.44255 310 l 1
 246.55745 310 l 1
EndSplineSet
Validated: 1
EndChar

StartChar: uni30C8
Encoding: 181 12488 133
Width: 1000
Flags: W
HStem: -36.5755 81.7434<411.147 460 540 588.851> 454.783 81.7649<411.494 460 540 588.853>
VStem: 210 80<168.885 331.671> 460 80<-135.621 -32.6972 45.2172 454.783 532.697 635.622> 710 80<168.611 331.388>
LayerCount: 2
Fore
SplineSet
460 600.000915527 m 2
 460 622.077515527 477.9234 640.000915527 500 640.000915527 c 0
 522.0766 640.000915527 540 622.077515527 540 600.000915527 c 2
 540 536.575476922 l 1
 672.738923391 513.990067895 790 383.223059427 790 250 c 0
 790 116.771034819 672.734026525 -13.9901933282 540 -36.5753657711 c 1
 540 -100 l 2
 540 -122.0766 522.0766 -140 500 -140 c 0
 477.9234 -140 460 -122.0766 460 -100 c 2
 460 -36.5754769218 l 1
 327.261076609 -13.9900678951 210 116.776940573 210 250 c 0
 210 384.677881522 328.470253307 514.020492139 460 536.547652675 c 1
 460 600.000915527 l 2
540 45.2172486513 m 1
 628.263948629 67.8069499198 710 160.098016912 710 250 c 0
 710 339.903907307 628.2625068 432.193099314 540 454.782672036 c 1
 540 45.2172486513 l 1
460 45.1678863809 m 1
 460 454.782751349 l 1
 371.736051371 432.19305008 290 339.901983088 290 250 c 0
 290 161.317840542 370.823598207 67.8388200243 460 45.1678863809 c 1
EndSplineSet
Validated: 1
EndChar

StartChar: uni30CA
Encoding: 182 12490 134
Width: 1000
Flags: W
HStem: -40 80<274.812 885.621> 460 80<114.379 725.188>
LayerCount: 2
Fore
SplineSet
850 40 m 2
 872.0766 40 890 22.0766 890 0 c 0
 890 -22.0766 872.0766 -40 850 -40 c 2
 150 -40 l 2
 127.9234 -40 110 -22.0766 110 5.85989590185e-15 c 0
 110 13.4249522738 116.627985052 25.3140716409 126.787377807 32.5707807513 c 2
 725.188284755 460 l 1
 150 460 l 2
 127.9234 460 110 477.9234 110 500 c 0
 110 522.0766 127.9234 540 150 540 c 2
 850 540 l 2
 872.0766 540 890 522.0766 890 500 c 0
 890 486.575047726 883.372014948 474.685928359 873.212622193 467.429219249 c 2
 274.811715245 40 l 1
 850 40 l 2
EndSplineSet
Validated: 1
EndChar

StartChar: uni30CB
Encoding: 183 12491 135
Width: 1000
Flags: W
HStem: -140 80<114.831 885.607> 100 300<422.244 577.756> 560.001 80<165.357 835.222>
VStem: 350 300<172.244 327.756>
LayerCount: 2
Fore
SplineSet
850 -60 m 0
 872 -60 890 -77.923828125 890 -100 c 0
 890 -122.076171875 872.076171875 -140 850 -140 c 0
 616.666992188 -140 383.333007812 -140 150 -140 c 0
 127.923828125 -140 110 -122.076171875 110 -100 c 0
 110 -77.923828125 130 -60 150 -60 c 0
 383.333333333 -60 616.666666667 -60 850 -60 c 0
199.998046875 560.000976562 m 2
 183.194335938 560.000976562 159.998046875 577.923828125 159.998046875 600.000976562 c 0
 159.998046875 622.077148438 183.194335938 640.000976562 199.998046875 640.000976562 c 2
 799.999023438 640.000976562 l 2
 819.933094053 640.000976562 839.999023438 622.077148438 839.999023438 600.000976562 c 0
 839.999023438 577.924804688 819.933094053 560.000976562 799.999023438 560.000976562 c 2
 199.998046875 560.000976562 l 2
350 250 m 24
 350 333 417 400 500 400 c 24
 583 400 650 333 650 250 c 24
 650 167 583 100 500 100 c 28
 417 100 350 167 350 250 c 24
EndSplineSet
Validated: 1
EndChar

StartChar: uni30CC
Encoding: 184 12492 136
Width: 1000
Flags: W
HStem: 560.001 80<362.307 637.569>
VStem: 160 80<-135.621 461.738> 760 80<8.00574 461.703>
LayerCount: 2
Fore
SplineSet
262.11831546 465.254475961 m 1
 260.660420713 462.923114897 241.096590997 431.083465572 239.998307358 399.679379002 c 0
 239.998307358 233.119632057 240 66.5598851127 240 -99.9998618318 c 0
 240 -122.076461832 222.0766 -140 200 -140 c 0
 177.923446056 -140 160.000074783 -122.076674783 160 -100.000138168 c 2
 160 400.000345449 l 2
 160.000392812 446.380812407 196.986513705 640.000915527 500 640.000915527 c 0
 803.080095809 640.000915527 839.999999966 446.301246349 840 400 c 2
 840 -100 l 2
 840 -122.0766 822.0766 -140 800 -140 c 0
 794.21793831 -140 780.393863102 -138.561696049 769.638227554 -126.030858517 c 2
 262.11831546 465.254475961 l 1
500 560.000915527 m 0
 413.397009578 560.000915527 357.155766561 542.660829188 320.023427386 520.599804218 c 1
 760 8.00573903724 l 1
 760 399.679614261 l 2
 759.880861199 403.087797301 757.593393532 448.48912574 719.377005947 489.2534591 c 0
 687.128585135 523.651932096 625.38726839 560.000915527 500 560.000915527 c 0
EndSplineSet
Validated: 1
EndChar

StartChar: uni30CD
Encoding: 185 12493 137
Width: 1000
Flags: W
VStem: 109.998 80.0002<77.7227 422.276> 809.997 80<77.7228 422.275>
LayerCount: 2
Fore
SplineSet
109.998413086 500 m 2
 109.998413086 522.0766 127.921813086 540 149.998413086 540 c 0
 153.233218599 540 163.347420319 539.71371626 173.420649163 532.421056144 c 2
 499.998394473 299.150607538 l 1
 826.457154019 532.334907152 l 2
 833.063619802 537.154637051 841.200407461 540 850 540 c 0
 872.075528795 540 889.996520996 522.078339323 889.996520996 500 c 0
 889.996520996 0 889.996520996 0 889.996520996 0 c 2
 889.996520996 -22.0766 872.073120996 -40 849.996520996 -40 c 0
 841.344854868 -40 833.331037874 -37.2473212998 826.783857025 -32.5707509101 c 2
 499.998279106 200.84814996 l 1
 173.21100024 -32.5708057792 l 2
 166.663833525 -37.2473428308 158.650045378 -39.9998705451 149.998413086 -39.9998705451 c 0
 127.921813086 -39.9998705451 109.998413086 -22.0764705451 109.998413086 0.000129454899226 c 2
 109.998413086 500 l 2
568.810042095 249.999297811 m 1
 809.996520996 77.7227757916 l 1
 809.996520996 422.274963616 l 1
 568.810042095 249.999297811 l 1
431.186631485 249.999459688 m 1
 189.999880502 422.276176051 l 1
 189.999880502 307.425026562 189.998659765 192.573877074 189.998659765 77.7227275852 c 1
 431.186631485 249.999459688 l 1
EndSplineSet
Validated: 1
EndChar

StartChar: uni30CE
Encoding: 186 12494 138
Width: 1000
Flags: W
HStem: -140 80<114.379 287.82> 210 80<262.938 387.063> 560 80<262.937 387.062>
VStem: 110 80<361.403 488.596> 460 80<361.404 488.597> 810 80<462.694 635.622>
CounterMasks: 1 fc
LayerCount: 2
Fore
SplineSet
150 -60 m 0
 478.456340382 -60 810 273.190270707 810 600.000915527 c 0
 810 622.077515527 827.9234 640.000915527 850 640.000915527 c 0
 872.0766 640.000915527 890 622.077515527 890 600.000915527 c 0
 890 226.781269407 521.503791519 -140 150 -140 c 0
 127.9234 -140 110 -122.0766 110 -100 c 0
 110 -77.9234 127.9234 -60 150 -60 c 0
325 640 m 24
 444 640 540 544 540 425 c 24
 540 306 444 210 325 210 c 24
 206 210 110 306 110 425 c 24
 110 544 206 640 325 640 c 24
460 425 m 24
 460 499 399 560 325 560 c 24
 251 560 190 499 190 425 c 24
 190 351 251 290 325 290 c 28
 399 290 460 351 460 425 c 24
EndSplineSet
Validated: 1
EndChar

StartChar: uni30CF
Encoding: 187 12495 139
Width: 1000
Flags: W
HStem: -40 80<114.379 460 540 885.621> 460 80<114.379 460 540 885.621>
VStem: 460 80<40 460>
LayerCount: 2
Fore
SplineSet
150 460 m 2
 127.9234 460 110 477.9234 110 500 c 0
 110 522.0766 127.9234 540 150 540 c 0
 383.333333333 540 616.666666667 540 850 540 c 0
 872.0766 540 890 522.0766 890 500 c 0
 890 477.9234 872.0766 460 850 460 c 2
 540 460 l 1
 540 40 l 1
 850 40 l 2
 872.0766 40 890 22.0766 890 0 c 0
 890 -22.0766 872.0766 -40 850 -40 c 0
 616.666666667 -40 383.333333333 -40 150 -40 c 0
 127.9234 -40 110 -22.0766 110 0 c 0
 110 22.0766 127.9234 40 150 40 c 2
 460 40 l 1
 460 460 l 1
 150 460 l 2
EndSplineSet
Validated: 1
EndChar

StartChar: uni30D2
Encoding: 188 12498 140
Width: 1000
Flags: W
HStem: -140 80<190 885.621> 200 300<522.244 677.756>
VStem: 110 80<-60 635.622> 450 300<272.244 427.756>
LayerCount: 2
Fore
SplineSet
450 350 m 24
 450 433 517 500 600 500 c 24
 683 500 750 433 750 350 c 24
 750 267 683 200 600 200 c 28
 517 200 450 267 450 350 c 24
150 640.000915527 m 0
 172.0766 640.000915527 190 622.077515527 190 600.000915527 c 2
 190 -60 l 1
 850 -60 l 2
 872.0766 -60 890 -77.9234 890 -100 c 0
 890 -122.0766 872.0766 -140 850 -140 c 2
 150 -140 l 2
 127.9234 -140 110 -122.0766 110 -100 c 2
 110 600.000915527 l 2
 110 622.077515527 127.9234 640.000915527 150 640.000915527 c 0
EndSplineSet
Validated: 1
EndChar

StartChar: uni30D5
Encoding: 189 12501 141
Width: 1000
Flags: W
HStem: -40 80<114.377 720.258> 460 80<114.379 721.234>
VStem: 810.001 80<136.08 362.891>
LayerCount: 2
Fore
SplineSet
890.000976562 250 m 0
 890.000976562 -0.880840382675 704.340330287 -40.0063531154 650.802250685 -40.0063531154 c 2
 149.998046875 -40 l 2
 127.921446875 -40 109.998046875 -22.0766 109.998046875 0 c 0
 109.998046875 22.0766 127.921446875 40 149.998046875 40 c 2
 649.778444223 40 l 2
 656.160374898 40.1500202634 741.166691459 43.675393919 783.99598442 125.317537697 c 0
 798.938516711 153.801322633 810.000976562 193.603719306 810.000976562 250 c 0
 810.000976562 328.496600529 788.487001036 405.785139762 715.552436943 442.252955994 c 0
 713.755046406 443.151664427 681.108277222 459.264938033 649.780120627 460.00195227 c 0
 483.186800195 460.00195227 316.593479762 460 150.000159329 460 c 0
 127.923559329 460 110 477.9234 110 500 c 0
 110 522.07654689 127.923313763 539.999913763 149.999840671 540 c 2
 650.000398346 540 l 2
 707.260963354 539.999440781 890.000976562 498.849356877 890.000976562 250 c 0
EndSplineSet
Validated: 1
EndChar

StartChar: uni30D8
Encoding: 190 12504 142
Width: 1000
Flags: W
HStem: 460 80<114.379 885.621>
LayerCount: 2
Fore
SplineSet
150 460 m 2
 127.9234 460 110 477.9234 110 500 c 0
 110 522.0766 127.9234 540 150 540 c 2
 850 540 l 2
 872.0766 540 890 522.0766 890 500 c 0
 890 477.9234 872.0766 460 850 460 c 2
 150 460 l 2
149.99609375 -40 m 2
 849.99609375 -40 l 2
 872.072265625 -40 889.99609375 -22.076171875 889.99609375 -0 c 0
 889.99609375 11.0380859375 885.515625 21.0380859375 878.274414062 28.2783203125 c 2
 528.274414062 378.278320312 l 2
 521.034179688 385.51953125 511.034179688 390 499.99609375 390 c 0
 488.958007812 390 478.958007812 385.51953125 471.717773438 378.278320312 c 2
 121.717773438 28.2783203125 l 2
 114.4765625 21.0380859375 109.99609375 11.0380859375 109.99609375 -0 c 0
 109.99609375 -22.076171875 127.919921875 -40 149.99609375 -40 c 2
246.553710938 40 m 1
 499.99609375 293.442382812 l 1
 753.438476562 40 l 1
 246.553710938 40 l 1
EndSplineSet
Validated: 9
EndChar

StartChar: uni30DB
Encoding: 191 12507 143
Width: 1000
Flags: W
LayerCount: 2
Fore
SplineSet
234 210 m 0
 460 210 l 1
 460 -16 l 0
 353.909179688 4.69921875 254.62454431 103.895917741 234 210 c 0
500 600 m 0
 325 600 150 425 150 250 c 0
 150 75 325 -100 500 -100 c 0
 675 -100 850 75 850 250 c 0
 850 425 675 600 500 600 c 0
766 290 m 0
 540 290 l 1
 540 516 l 0
 646.104082259 495.37545569 745.220900403 396.899200277 766 290 c 0
540 210 m 1
 766 210 l 1
 745.37545569 103.895917741 646.104082259 4.62454431025 540 -16 c 1
 540 210 l 1
234 290 m 1
 254.779099597 396.899200277 353.895917741 495.37545569 460 516 c 0
 460 290 l 1
 234 290 l 1
EndSplineSet
Validated: 9
EndChar

StartChar: uni30DE
Encoding: 192 12510 144
Width: 1000
Flags: W
HStem: -40 80<114.379 619.049 863.44 885.621> 460 80<114.379 619.049 863.44 885.621>
LayerCount: 2
Fore
SplineSet
890 -1.0616507673e-15 m 0
 890 -22.0766 872.0766 -40 850 -40 c 2
 150 -40 l 2
 127.9234 -40 110 -22.0766 110 0 c 0
 110 22.0766 127.9234 40 150 40 c 2
 619.049364685 40 l 1
 136.559605945 212.317770979 l 2
 121.086009363 217.844055472 110 232.637605861 110 250 c 0
 110 267.362394139 121.086009363 282.155944528 136.559605945 287.682229021 c 2
 619.049364685 460 l 1
 150 460 l 2
 127.9234 460 110 477.9234 110 500 c 0
 110 522.0766 127.9234 540 150 540 c 2
 850 540 l 2
 872.0766 540 890 522.0766 890 500 c 0
 890 482.637605861 878.913990637 467.844055472 863.440394055 462.317770979 c 2
 268.950635315 250 l 1
 863.440394055 37.6822290214 l 2
 878.913990637 32.1559445279 890 17.3623941394 890 -1.0616507673e-15 c 0
EndSplineSet
Validated: 1
EndChar

StartChar: uni30DF
Encoding: 193 12511 145
Width: 1000
Flags: W
HStem: 475.001 250<430.132 569.868>
VStem: 159.998 80<-134.925 385.621> 375 250<530.133 669.869> 460 80<-134.925 385.621> 759.999 80<-134.925 385.621>
LayerCount: 2
Fore
SplineSet
460 350 m 2xd8
 460 372.076171875 477.923828125 390 500 390 c 0
 522.076171875 390 540 372.076171875 540 350 c 2
 540 -100 l 2
 540 -118.332765147 522.0766 -140 500 -140 c 0
 477.9234 -140 460 -118.332765147 460 -100 c 2
 460 350 l 2xd8
759.999023438 350 m 2
 759.999023438 372.076171875 777.922851562 390 799.999023438 390 c 0
 822.075195312 390 839.999023438 372.076171875 839.999023438 350 c 2
 839.999023438 -100 l 2
 839.999023438 -118.333056924 822.075195312 -140 799.999023438 -140 c 0
 777.922851562 -140 759.999023438 -118.333056924 759.999023438 -100 c 2
 759.999023438 350 l 2
159.998046875 350 m 2
 159.998046875 372.076171875 177.921875 390 199.998046875 390 c 0
 222.07421875 390 239.998046875 372.076171875 239.998046875 350 c 2
 239.998046875 -100 l 2
 239.998046875 -118.333056924 222.07421875 -140 199.998046875 -140 c 0
 177.921875 -140 159.998046875 -118.333056924 159.998046875 -100 c 2
 159.998046875 350 l 2
375 600.000915527 m 24xe8
 375 669 431 725 500 725.000915527 c 24
 569 725 625 669 625 600.000915527 c 24
 625 531 569 475 500 475.000915527 c 28
 431 475 375 531 375 600.000915527 c 24xe8
EndSplineSet
Validated: 33
EndChar

StartChar: uni30E0
Encoding: 194 12512 146
Width: 1000
Flags: W
HStem: -140 80<563.956 734.723> -40 80<251.239 460>
VStem: 460 80.0298<40 285.621> 759.999 80.0012<-37.0145 249.83 250 285.621>
LayerCount: 2
Fore
SplineSet
840 -0.00120369803859 m 2
 840 -36.6924065109 810.469708197 -140 649.999633789 -140 c 0
 598.183510479 -140 501.279317888 -127.684434771 468.03839168 -40 c 1
 200 -40 l 2
 177.9234 -40 160 -22.0766 160 9.315465066e-16 c 0
 160 3.35145162861 160.41306836 6.60718729295 161.191027771 9.71902968292 c 2
 311.191027771 609.71994521 l 2
 315.537623515 627.106354718 331.274851629 640.000915527 350 640.000915527 c 0
 372.0766 640.000915527 390 622.077515527 390 600.000915527 c 0
 390 596.649463899 389.58693164 593.393728234 388.808972229 590.281885844 c 2
 251.238710684 40 l 1
 460 40 l 1
 460 250 l 2
 460 272.0766 477.9234 290 500 290 c 0
 522.0766 290 540 272.0766 540 250 c 2
 540.02975567 0.343944623771 l 2
 540.321994059 -2.77324963948 542.319768111 -15.0496756876 551.182979958 -26.5790006568 c 0
 561.485385374 -39.9804381997 584.90007064 -60 649.999633789 -60 c 0
 708.720292346 -60 733.424345866 -43.404241347 745.096385629 -30.953952121 c 0
 757.933762408 -17.2606254146 759.82571113 -1.28631595961 759.998782793 0.716133311129 c 0
 759.998782793 15.3679442117 760 250.000199161 760 250.000199161 c 4
 760.000107796 272.076707796 777.923466387 290 800 290 c 0
 822.0766 290 840 272.076400839 840 249.999800839 c 2
 840 -0.00120369803859 l 2
EndSplineSet
Validated: 1
EndChar

StartChar: uni30E1
Encoding: 195 12513 147
Width: 1000
Flags: W
VStem: 809.997 80<19.1286 480.872>
LayerCount: 2
Fore
SplineSet
110 600.000915527 m 0
 110 622.077515527 127.9234 640.000915527 150 640.000915527 c 0
 160.775093191 640.000915527 170.56081228 635.731208372 177.756100297 628.792851033 c 2
 512.961406425 305.557118084 l 1
 822.240440358 603.791954463 l 2
 829.43572654 610.730300621 839.221437619 615 849.996520996 615 c 0
 872.073120996 615 889.996520996 597.0766 889.996520996 575 c 2
 889.996520996 -75 l 2
 889.996520996 -97.0766 872.073120996 -115 849.996520996 -115 c 0
 839.221427805 -115 829.435708716 -110.730292844 822.240420699 -103.791935506 c 2
 512.961368778 194.443322725 l 1
 177.756080638 -128.791954463 l 2
 170.560794456 -135.730300621 160.775083377 -140 150 -140 c 0
 127.9234 -140 110 -122.0766 110 -100 c 0
 110 -88.6984833774 114.697096425 -78.4853752527 122.243919362 -71.2080455374 c 2
 455.347152462 250.00023993 l 1
 122.243899703 571.208980022 l 2
 114.697088267 578.486308516 110 588.699408718 110 600.000915527 c 0
570.575622741 250.000200879 m 1
 809.996520996 19.128588419 l 1
 809.996520996 480.871500199 l 1
 570.575622741 250.000200879 l 1
EndSplineSet
Validated: 1
EndChar

StartChar: uni30E2
Encoding: 196 12514 148
Width: 1000
Flags: W
HStem: 310 80<164.358 460 540 834.223> 460.001 80<165.357 460 540 835.222>
VStem: 350 300<-27.7558 126.671> 460 80<187.43 310 390 460.001 540.001 635.622>
LayerCount: 2
Fore
SplineSet
198.999023438 310 m 2xd0
 182.1953125 310 158.999023438 327.923828125 158.999023438 350 c 0
 158.999023438 372.076171875 182.1953125 390 198.999023438 390 c 2
 460 390 l 1
 460 460.000976562 l 1
 199.998046875 460.000976562 l 2
 183.194335938 460.000976562 159.998046875 477.923828125 159.998046875 500.000976562 c 0
 159.998046875 522.077148438 183.194335938 540.000976562 199.998046875 540.000976562 c 2
 460 540.000976562 l 1
 460 600.000915527 l 2
 460 622.077515527 477.9234 640.000915527 500 640.000915527 c 0
 522.0766 640.000915527 540 622.077515527 540 600.000915527 c 2
 540 540.000976562 l 1
 799.999023438 540.000976562 l 2
 819.932617188 540.000976562 839.999023438 522.077148438 839.999023438 500.000976562 c 0
 839.999023438 477.924804688 819.932617188 460.000976562 799.999023438 460.000976562 c 2
 540 460.000976562 l 1
 540 390 l 1
 799 390 l 2
 818.93359375 390 839 372.077148438 839 350 c 0
 839 327.923828125 818.93359375 310 799 310 c 2
 540 310 l 1
 540 194.598443217 l 1xd0
 603.3946582 177.075457952 650 118.937301747 650 50 c 8
 650 -33 583 -100 500 -100 c 24
 417 -100 350 -33 350 50 c 20xe0
 350 118.937301747 396.6053418 177.075457952 460 194.598443217 c 1
 460 310 l 1
 198.999023438 310 l 2xd0
EndSplineSet
Validated: 1
EndChar

StartChar: uni30E4
Encoding: 197 12516 149
Width: 1000
Flags: W
HStem: 210 80<516.557 885.621>
LayerCount: 2
Fore
SplineSet
110 600.000915527 m 0
 110 622.077515527 127.9234 640.000915527 150 640.000915527 c 0
 161.038318939 640.000915527 171.038334316 635.520050151 178.278762269 628.279603258 c 2
 516.55748066 290 l 1
 850 290 l 2
 872.076171875 290 890 272.076171875 890 250 c 0
 890 227.923828125 872.076171875 210 850 210 c 2
 516.55745 210 l 1
 178.278725 -128.278725 l 2
 171.0383 -135.51915 161.0383 -140 150 -140 c 0
 127.9234 -140 110 -122.0766 110 -100 c 0
 110 -88.9617 114.48085 -78.9617 121.721275 -71.721275 c 2
 443.442586986 250.000036986 l 1
 121.721237731 571.722227797 l 2
 114.480834624 578.962649843 110 588.962634467 110 600.000915527 c 0
EndSplineSet
Validated: 1
EndChar

StartChar: uni30E6
Encoding: 198 12518 150
Width: 1000
Flags: W
HStem: 310 79.4025<314.065 460 540 685.935> 560.001 80<164.379 460>
VStem: 160 80<-135.621 247> 460 80<389.403 560.001> 760 80<-135.621 247>
CounterMasks: 1 38
LayerCount: 2
Fore
SplineSet
760 247 m 1
 760 247 725 310 500 310 c 0
 275 310 240 247 240 247 c 1
 240 -100 l 2
 240 -122.0766 222.0766 -140 200 -140 c 0
 177.9234 -140 160 -122.0766 160 -100 c 2
 160 250 l 2
 160.000000033 271.948253401 175.033358038 312.884542098 232.658187759 343.617784615 c 0
 277.446645253 367.504961945 346.888668121 385.913871677 460 389.402521295 c 1
 460 560.000915527 l 1
 200 560.000915527 l 2
 177.9234 560.000915527 160 577.924315527 160 600.000915527 c 0
 160 622.077515527 177.9234 640.000915527 200 640.000915527 c 2
 500 640.000915527 l 2
 522.0766 640.000915527 540 622.077515527 540 600.000915527 c 2
 540 389.402521295 l 1
 653.111331879 385.913871677 722.553354747 367.504961945 767.341812241 343.617784615 c 0
 802.054903783 325.104135793 821.769271979 302.478255531 831.400893976 282.893957471 c 0
 839.035052274 267.371168931 839.999999993 254.992900209 840 250 c 2
 840 -100 l 2
 840 -122.0766 822.0766 -140 800 -140 c 0
 777.9234 -140 760 -122.0766 760 -100 c 2
 760 247 l 1
EndSplineSet
Validated: 1
EndChar

StartChar: uni30E8
Encoding: 199 12520 151
Width: 700
Flags: W
HStem: 550 80<282.095 417.905>
VStem: 150 80<362.06 497.905> 310 80<-135.607 -100 234 238.659> 470 80<362.776 497.905>
CounterMasks: 1 38
LayerCount: 2
Fore
SplineSet
230 430 m 24
 230 496 284 550 350 550 c 24
 416 550 470 496 470 430 c 24
 470 364 416 310 350 310 c 24
 284 310 230 364 230 430 c 24
310 234.006835938 m 1
 310 -100 l 2
 310 -121.999803967 327.923828125 -140 350 -140 c 0
 372.076171875 -140 390 -122 390 -100 c 2
 390 234 l 1
 477.703125 255.190429688 550 335.82819582 550 430 c 8
 550 540 460 630 350 630 c 24
 240 630 150 540 150 430 c 20
 150 333.311790351 218.754882812 252.556640625 310 234.006835938 c 1
EndSplineSet
Validated: 9
EndChar

StartChar: uni30E9
Encoding: 200 12521 152
Width: 1000
Flags: W
HStem: -140 80<114.375 809.996>
VStem: 809.996 80<-60 635.622>
LayerCount: 2
Fore
SplineSet
149.99609375 -140 m 2
 127.919921875 -140 109.99609375 -122.076171875 109.99609375 -100 c 0
 109.99609375 -77.923828125 127.919921875 -60 149.99609375 -60 c 2
 809.99609375 -60 l 1
 809.99609375 600.000976562 l 2
 809.99609375 622.077148438 827.919921875 640.000976562 849.99609375 640.000976562 c 0
 872.072265625 640.000976562 889.99609375 622.077148438 889.99609375 600.000976562 c 2
 889.99609375 -100 l 2
 889.99609375 -117.552013101 872.072265625 -140 849.99609375 -140 c 2
 149.99609375 -140 l 2
EndSplineSet
Validated: 1
EndChar

StartChar: uni30EA
Encoding: 201 12522 153
Width: 1000
Flags: W
HStem: 300 400<408.982 591.018>
VStem: 300 400<408.982 591.018>
LayerCount: 2
Fore
SplineSet
300 500 m 24
 300 610 390 700 500 700 c 24
 610 700 700 610 700 500 c 24
 700 390 610 300 500 300 c 28
 390 300 300 390 300 500 c 24
199.998046875 -40 m 0
 177.921875 -40 159.998046875 -22.076171875 159.998046875 0 c 0
 159.998046875 9.4375 164.248038689 17.4600449496 168.748046875 24.9599609375 c 2
 318.75 274.959960938 l 2
 326.083007812 284.125 337.360351562 290 350 290 c 0
 372.076171875 290 390 272.076171875 390 250 c 0
 390 240.5625 386.724609375 231.883789062 381.25 225.040039062 c 2
 231.248046875 -24.9599609375 l 2
 225.221230765 -35.0045236655 212.637695312 -40 199.998046875 -40 c 0
610 250 m 0
 610 272.076171875 627.923828125 290 650 290 c 0
 662.639648438 290 673.916992188 284.125 681.25 274.959960938 c 2
 831.249023438 24.9599609375 l 2
 835.751628993 17.4555694875 839.999023438 9.4375 839.999023438 0 c 0
 839.999023438 -22.076171875 822.075195312 -40 799.999023438 -40 c 0
 787.359375 -40 774.779318175 -35.0105176 768.749023438 -24.9599609375 c 2
 618.75 225.040039062 l 2
 613.275390625 231.883789062 610 240.5625 610 250 c 0
EndSplineSet
Validated: 1
EndChar

StartChar: uni30EB
Encoding: 202 12523 154
Width: 1000
Flags: W
HStem: -140 80<590.865 709.135> -115 80<164.377 227.29>
VStem: 260 80<8.0827 635.236> 459.998 80.002<-7.09444 635.155> 760 80<-7.09444 635.608>
LayerCount: 2
Fore
SplineSet
300 640.000976562 m 0x78
 322.0766 640.000976562 340 620.000976562 340 600.000976562 c 2
 340 149.999213338 l 25
 340 78 339.433517451 40.2252085491 306.941436793 -32.8807347175 c 0
 289.998294504 -71.0021591958 257.006051608 -115 199.998306274 -115 c 0
 177.921706274 -115 159.998306274 -97.0766 159.998306274 -75 c 0
 159.998306274 -52.9234 177.921706274 -35 199.998306274 -35 c 0
 204.158943443 -35 214.853953702 -35 227.900205265 -12.1879975346 c 0
 259.625254135 43.2847863202 260.000000001 85.9982038038 260.000000001 150.000307049 c 9
 260.000000001 600.000976562 l 6
 260.000000001 620.000000001 277.9234 640.000976562 300 640.000976562 c 0x78
650 -140 m 0xb8
 555 -140 459.998046878 -45 459.998046878 50 c 2
 459.998046878 600.001121407 l 2
 459.998046878 622.001121407 477.923448281 640.000831718 500 640.000831718 c 0
 522.0766 640.000831718 540 620.000831718 540 600.000831718 c 2
 540 50 l 18
 540 -5 595 -60 650 -60 c 0
 705 -60 760 -5 760 50 c 2
 760 600.000976562 l 2
 760 622.000976562 777.9234 640.000976562 800 640.000976562 c 0
 822.0766 640.000976562 840 622.000976562 840 600.000976562 c 2
 840 50 l 2
 840 -45 745 -140 650 -140 c 0xb8
EndSplineSet
Validated: 1
EndChar

StartChar: uni30EC
Encoding: 203 12524 155
Width: 1000
Flags: W
HStem: 560.001 80<286.96 713.04>
VStem: 460 80<-3.44255 235.214>
LayerCount: 2
Fore
SplineSet
500 311.453033636 m 1
 713.040484351 560.000915527 l 1
 286.959515649 560.000915527 l 1
 500 311.453033636 l 1
160 600.000915527 m 0
 160 622.077515527 177.9234 640.000915527 200 640.000915527 c 2
 800 640.000915527 l 2
 822.0766 640.000915527 840 622.077515527 840 600.000915527 c 0
 840 590.073862028 836.37592861 580.986576279 830.379787097 573.991059549 c 2
 540 235.213755101 l 1
 540 -3.44255 l 1
 821.721275 278.278725 l 2
 828.9617 285.51915 838.9617 290 850 290 c 0
 872.0766 290 890 272.0766 890 250 c 0
 890 238.9617 885.51915 228.9617 878.278725 221.721275 c 2
 528.278725 -128.278725 l 2
 521.0383 -135.51915 511.0383 -140 500 -140 c 0
 477.9234 -140 460 -122.0766 460 -100 c 2
 460 235.213755101 l 1
 169.620212903 573.991059549 l 2
 163.62407139 580.986576279 160 590.073862028 160 600.000915527 c 0
EndSplineSet
Validated: 1
EndChar

StartChar: uni30ED
Encoding: 204 12525 156
Width: 1000
Flags: W
HStem: 285 80<432.97 567.387> 635 80<434.263 565.737>
VStem: 285 80<432.974 565.737> 635 80<432.941 565.737>
LayerCount: 2
Fore
SplineSet
635 500 m 24
 635 574 574 635 500 635 c 24
 426 635 365 574 365 500 c 24
 365 426 426 365 500 365 c 24
 574 365 635 426 635 500 c 24
500 715 m 24
 619 715 715 619 715 500 c 20
 715 441.743615186 683.429708171 383.487230372 637.397692602 342.339413647 c 0
 638.171322059 341.298004217 638.898453947 340.220987261 639.576171875 339.112304688 c 2
 834.575195312 20.1123046875 l 2
 838.02734375 14.2080078125 839.999023438 7.330078125 839.999023438 0 c 0
 839.999023438 -22.076171875 822.075195312 -40 799.999023438 -40 c 0
 785.251953125 -40 772.3671875 -31.9892578125 765.422851562 -20.1123046875 c 2
 570.423828125 298.887695312 l 2
 570.288790657 299.108603866 570.156190977 299.331154997 570.026038544 299.55530652 c 0
 547.454641508 290.237076747 523.727320754 285.000000001 500 285 c 0
 476.145438252 285 452.290876504 290.29339643 429.610934774 299.705569271 c 0
 429.28354682 299.087934764 428.938546465 298.481684793 428.576171875 297.887695312 c 2
 234.57421875 -20.1123046875 l 2
 232.016601562 -24.4931640625 214.745117188 -40 199.998046875 -40 c 0
 177.921875 -40 159.998046875 -22.076171875 159.998046875 -0 c 0
 159.998046875 7.330078125 164.150390625 17.9345703125 165.421875 20.1123046875 c 2
 359.423828125 338.112304688 l 6
 360.346211484 339.624237447 361.362087382 341.078004851 362.463785243 342.463328713 c 0
 316.506968225 383.604139521 285 441.802069761 285 500 c 8
 285 619 381 715 500 715 c 24
EndSplineSet
Validated: 1
EndChar

StartChar: uni30EF
Encoding: 205 12527 157
Width: 1000
Flags: W
VStem: 160 78.5383<-135.567 -85.6152> 761.462 78.5383<-135.567 -85.6152>
LayerCount: 2
Fore
SplineSet
200 -140 m 0
 177.9234 -140 160 -122.0766 160 -100 c 0
 160 -96.2788991237 160.509212325 -92.6757926362 161.461695597 -89.2566219144 c 2
 356.461695597 610.743378086 l 2
 361.160118579 627.609511865 376.644500876 640 395 640 c 0
 413.277124503 640 428.707598123 627.715096201 433.477530874 610.959178587 c 2
 500 377.277684478 l 1
 566.522469126 610.959178587 l 2
 571.292401877 627.715096201 586.722875497 640 605 640 c 0
 623.355499124 640 638.839881421 627.609511865 643.538304403 610.743378086 c 2
 838.538304403 -89.2566219144 l 2
 839.490787675 -92.6757926362 840 -96.2788991237 840 -100 c 0
 840 -122.0766 822.0766 -140 800 -140 c 0
 781.644500876 -140 766.160118579 -127.609511865 761.461695597 -110.743378086 c 2
 604.58294344 452.411116837 l 1
 541.597297041 231.153846154 l 1
 628.477530874 -74.0408214125 l 2
 629.469111503 -77.5240661858 630 -81.2005245034 630 -85 c 0
 630 -107.0766 612.0766 -125 590 -125 c 0
 571.722875497 -125 556.292401877 -112.715096201 551.522469126 -95.9591785875 c 2
 500 85.0300078295 l 1
 448.477530874 -95.9591785875 l 2
 443.707598123 -112.715096201 428.277124503 -125 410 -125 c 0
 387.9234 -125 370 -107.0766 370 -85 c 0
 370 -81.2005245034 370.530888497 -77.5240661858 371.522469126 -74.0408214125 c 2
 458.402702959 231.153846154 l 1
 395.41705656 452.411116837 l 1
 238.538304403 -110.743378086 l 2
 233.839881421 -127.609511865 218.355499124 -140 200 -140 c 0
EndSplineSet
Validated: 1
EndChar

StartChar: uni30F2
Encoding: 206 12530 158
Width: 1000
Flags: W
HStem: -140 80<241.718 885.621> 110 80<473.861 885.621>
LayerCount: 2
Fore
SplineSet
800 640.000976562 m 0
 822.0766 640.000976562 840 622.077576562 840 600.000976562 c 0
 840 589.498713744 835.943777367 579.936356514 829.313823998 572.796396771 c 2
 473.860522885 190 l 1
 850 190 l 2
 872.0766 190 890 172.0766 890 150 c 0
 890 127.9234 872.0766 110 850 110 c 2
 399.574912234 110 l 1
 241.717989602 -60 l 1
 850 -60 l 2
 872.0766 -60 890 -77.9234 890 -100 c 0
 890 -122.0766 872.0766 -140 850 -140 c 2
 150 -140 l 2
 127.9234 -140 110 -122.0766 110 -100 c 0
 110 -89.4977371811 114.056222633 -79.9353799516 120.686176002 -72.7954202087 c 2
 770.686176002 627.205556354 l 2
 777.992917141 635.074365481 788.425662819 640.000976562 800 640.000976562 c 0
EndSplineSet
Validated: 1
EndChar

StartChar: uni30F3
Encoding: 207 12531 159
Width: 1000
Flags: W
HStem: 300 300<122.242 277.754>
VStem: 49.998 300<372.244 527.756>
LayerCount: 2
Fore
SplineSet
800 640.000915527 m 0
 822.0766 640.000915527 840 622.077515527 840 600.000915527 c 0
 840 590.073852682 836.375921786 580.986559169 830.379770162 573.991039791 c 2
 230.379770162 -126.009875736 l 2
 223.04119801 -134.571554445 212.149537155 -140 200 -140 c 0
 177.9234 -140 160 -122.0766 160 -100 c 0
 160 -90.0729371549 163.624078214 -80.9856436415 169.620229838 -73.9901242638 c 2
 769.620229838 626.010791263 l 2
 776.95880199 634.572469972 787.850462845 640.000915527 800 640.000915527 c 0
49.998046875 450 m 24
 50 533 117 600 199.998046875 600 c 24
 283 600 350 533 349.998046875 450 c 24
 350 367 283 300 199.998046875 300 c 28
 117 300 50 367 49.998046875 450 c 24
EndSplineSet
Validated: 33
EndChar

StartChar: uni30AC
Encoding: 208 12460 160
Width: 1225
Flags: W
HStem: -125 250<55.1317 194.868>
VStem: 0 250<-69.8683 69.8683>
LayerCount: 2
Fore
SplineSet
975 0 m 28
 975 69 1031 125 1100 125 c 28
 1169 125 1225 69 1225 0 c 28
 1225 -69 1169 -125 1100 -125 c 28
 1031 -125 975 -69 975 0 c 28
160 500 m 0
 160 522 178 540 200 540 c 0
 215 540 227 532 234 521 c 2
 500 78 l 1
 766 521 l 2
 773 532 785 540 800 540 c 0
 822 540 840 522 840 500 c 0
 840 492 838 485 834 479 c 2
 571 40 l 1
 850 40 l 2
 872 40 890 22 890 0 c 0
 890 -22 872 -40 850 -40 c 2
 150 -40 l 2
 128 -40 110 -22 110 0 c 0
 110 22 128 40 150 40 c 2
 429 40 l 1
 166 479 l 2
 162 485 160 492 160 500 c 0
EndSplineSet
Validated: 1
EndChar

StartChar: uni30AE
Encoding: 209 12462 161
Width: 1025
Flags: W
HStem: -125 250<830.127 969.873> 100 300<462.15 617.85>
VStem: 310 80<-135.607 635.607> 775 250<-69.873 69.873>
LayerCount: 2
Fore
SplineSet
775 0 m 28xb0
 775 69 831 125 900 125 c 28
 969 125 1025 69 1025 0 c 28
 1025 -69 969 -125 900 -125 c 28
 831 -125 775 -69 775 0 c 28xb0
310 600 m 2
 310 622 328 640 350 640 c 0
 372 640 390 622 390 600 c 2
 390 250 l 1
 390 333 457 400 540 400 c 0
 623 400 690 333 690 250 c 0
 690 167 623 100 540 100 c 0x70
 457 100 390 167 390 250 c 1
 390 -100 l 2
 390 -122 372 -140 350 -140 c 0
 328 -140 310 -122 310 -100 c 2
 310 600 l 2
EndSplineSet
Validated: 5
EndChar

StartChar: uni30B0
Encoding: 210 12464 162
Width: 1175
Flags: W
HStem: -140 80<280.302 420.535> -125 250<980.127 1119.87>
VStem: 160 80<-19.2112 635.607> 460 80<-18.1605 153 347 635.607> 925 250<-69.873 69.873>
LayerCount: 2
Fore
SplineSet
925 0 m 24x78
 925 69 981 125 1050 125 c 24
 1119 125 1175 69 1175 0 c 24
 1175 -69 1119 -125 1050 -125 c 24
 981 -125 925 -69 925 0 c 24x78
350 -140 m 0xb8
 196 -140 160 -8 160 50 c 2
 160 600 l 2
 160 622 178 640 200 640 c 0
 222 640 240 622 240 600 c 2
 240 50 l 1
 240 50 240 50 240 49 c 0
 240 43 244 -20 290 -46 c 0
 304 -54 323 -60 350 -60 c 0
 399 -60 433 -41 450 4 c 0
 460 28 460 46 460 49 c 0
 460 50 460 50 460 50 c 1
 460 600 l 2
 460 622 478 640 500 640 c 0
 522 640 540 622 540 600 c 2
 540 347 l 1
 772 603 l 2
 779 611 789 615 800 615 c 0
 822 615 840 597 840 575 c 0
 840 564 836 554 828 547 c 2
 557 250 l 1
 828 -47 l 2
 836 -54 840 -64 840 -75 c 0
 840 -97 822 -115 800 -115 c 0
 789 -115 779 -111 772 -103 c 2
 540 153 l 1
 540 50 l 2
 539.99887026 -4.37208458574 506 -140 350 -140 c 0xb8
EndSplineSet
Validated: 1
EndChar

StartChar: uni30B2
Encoding: 211 12466 163
Width: 1175
Flags: W
HStem: 210 80<240 385.807>
VStem: 160 80<-135.621 210 290 635.622> 759.999 80<9.0307 490.969>
LayerCount: 2
Fore
SplineSet
925 0 m 28
 925 69 981 125 1050 125 c 28
 1119 125 1175 69 1175 0 c 28
 1175 -69 1119 -125 1050 -125 c 28
 981 -125 925 -69 925 0 c 28
799.998779297 615 m 0
 822.075379297 615 839.998779297 597.0766 839.998779297 575 c 2
 839.998779297 -75 l 2
 839.998779297 -97.0766 822.075379297 -115 799.998779297 -115 c 0
 790.452002608 -115 781.68188781 -111.648265981 774.801995803 -106.058358843 c 0
 385.806736477 210 385.806736477 210 385.806736477 210 c 1
 240 210 l 1
 240 -100 l 2
 240 -122.0766 222.0766 -140 200 -140 c 0
 177.9234 -140 160 -122.0766 160 -100 c 0
 160 600.000915527 160 600.000915527 160 600.000915527 c 2
 160 622.077515527 177.9234 640.000915527 200 640.000915527 c 0
 222.0766 640.000915527 240 622.077515527 240 600.000915527 c 2
 240 290 l 1
 385.806736477 290 l 1
 774.801995803 606.058358843 l 2
 781.68188781 611.648265981 790.452002608 615 799.998779297 615 c 0
463.420903998 250 m 1
 759.998779297 9.0306969337 l 1
 759.998779297 490.969303066 l 1
 463.420903998 250 l 1
EndSplineSet
Validated: 1
EndChar

StartChar: uni30B4
Encoding: 212 12468 164
Width: 1225
Flags: W
HStem: -140 80<612.938 735.659> 210 80<612.937 737.026> 560.001 80<190 810>
VStem: 110 80<214.379 560.001> 460 80<11.4033 138.596> 810 80<13.8672 138.384 234.78 560.001>
LayerCount: 2
Fore
SplineSet
150 250 m 1028
810 75 m 28
 810 149 749 210 675 210 c 28
 601 210 540 149 540 75 c 28
 540 1 601 -60 675 -60 c 28
 749 -60 810 1 810 75 c 28
809.99961797 560.000915527 m 5
 190 560.000915527 l 5
 190 250 l 6
 190 227.9234 172.0766 210 150 210 c 4
 127.9234 210 110 227.9234 110 250 c 6
 110 600.000915527 l 6
 110 622.077515527 127.9234 640.000915527 150 640.000915527 c 6
 850 640.000915527 l 6
 872.0766 640.000915527 889.999999998 622.07712597 889.999999998 600.00052597 c 6
 889.999999998 190.999610443 l 6
 889.999999998 176.330155643 882.084215882 163.49452127 870.295426357 156.532773555 c 5
 882.812280411 130.594239119 890 102.797119559 890 75 c 4
 890 -32.5 794 -140 675 -140 c 28
 556 -140 460 -44 460 75 c 28
 460 194 556 290 675 290 c 20
 723.235986732 290 771.471973464 268.356182177 809.996230807 234.780275919 c 5
 809.996230807 343.187155788 810 433 809.99961797 560.000915527 c 5
975 0 m 24
 975 69 1031 125 1100 125 c 24
 1169 125 1225 69 1225 0 c 24
 1225 -69 1169 -125 1100 -125 c 24
 1031 -125 975 -69 975 0 c 24
EndSplineSet
Validated: 33
EndChar

StartChar: uni30B6
Encoding: 213 12470 165
Width: 1175
Flags: W
HStem: -125 250<980.127 1119.87> -40 80<280.448 420.654> 460 80<579.21 719.552>
VStem: 160 79.9928<80.7842 150 150 535.621> 460.007 79.9928<81.8395 150 150 418.161> 760 80<-35.6213 350 350 419.216> 925 250<-69.873 69.873>
LayerCount: 2
Fore
SplineSet
925 0 m 28xbe
 925 69 981 125 1050 125 c 28
 1119 125 1175 69 1175 0 c 28
 1175 -69 1119 -125 1050 -125 c 28
 981 -125 925 -69 925 0 c 28xbe
350 -40 m 0x7e
 196.136053229 -40 160 92.4861238456 160 149.549424227 c 2
 160 499.999802617 l 2
 160 522.076402617 177.921706274 540 199.998306274 540 c 0
 222.07484048 540 239.998199441 522.076706833 239.998306274 500.000197383 c 2
 239.998306274 150 l 1
 239.998306274 150 239.992840491 149.777763501 239.992840491 149.347759943 c 0
 239.992840491 142.781998696 243.727500896 80.3431058927 290.378917984 53.6851532712 c 0
 304.021179013 45.8895755401 322.703534601 40 350 40 c 0
 399.075727276 40 433.264706334 59.089401181 450.497841854 104.387928834 c 0
 459.519610215 128.102291382 460.007159509 145.799301684 460.007159509 149.347759943 c 0
 460.007159509 149.777763501 460 150 460 150 c 1
 460 349.99990044 l 2
 460.001129751 404.373120184 494.005951762 540 649.999633789 540 c 0
 803.863915901 540 840 407.51361186 840 350.449172782 c 2
 840 0 l 2
 840 -22.0766 822.0766 -40 800 -40 c 0
 777.9234 -40 760 -22.0766 760 0 c 2
 760 350 l 1
 760 350 760.007157934 350.222203103 760.007157934 350.65214328 c 0
 760.007157934 357.217186091 756.272620565 419.656679037 709.620782879 446.31483481 c 0
 695.97848152 454.110424711 677.296098553 460 649.999633789 460 c 0
 611.407842162 460 575.774272187 448.575572303 555.074319951 408.185618814 c 0
 546.726146226 391.896578888 540.963672175 369.85118176 540 350.000000011 c 2
 540 150 l 2
 539.99887026 95.6279154143 505.994259302 -40 350 -40 c 0x7e
EndSplineSet
Validated: 1
EndChar

StartChar: uni30B8
Encoding: 214 12472 166
Width: 1175
Flags: W
HStem: -150 300<422.244 577.756> -125 250<980.127 1119.87> 310 80<165.357 835.222> 560.001 80<165.357 835.222>
VStem: 350 300<-77.7558 77.7558> 925 250<-69.873 69.873>
LayerCount: 2
Fore
SplineSet
925 0 m 28x7c
 925 69 981 125 1050 125 c 28
 1119 125 1175 69 1175 0 c 28
 1175 -69 1119 -125 1050 -125 c 28
 981 -125 925 -69 925 0 c 28x7c
350 -0 m 0
 350 82.787109375 417.212890625 150 500 150 c 0
 582.787109375 150 650 82.787109375 650 -0 c 0
 650 -82.787109375 582.787109375 -150 500 -150 c 0xbc
 417.212890625 -150 350 -82.787109375 350 -0 c 0
199.998046875 560.000976562 m 2
 183.194335938 560.000976562 159.998046875 577.923828125 159.998046875 600.000976562 c 0
 159.998046875 622.077148438 183.194335938 640.000976562 199.998046875 640.000976562 c 2
 799.999023438 640.000976562 l 2
 819.933094053 640.000976562 839.999023438 622.077148438 839.999023438 600.000976562 c 0
 839.999023438 577.924804688 819.933094053 560.000976562 799.999023438 560.000976562 c 2
 199.998046875 560.000976562 l 2
199.998046875 310 m 2
 183.194335938 310 159.998046875 327.923828125 159.998046875 350 c 0
 159.998046875 372.076171875 183.194335938 390 199.998046875 390 c 2
 799.999023438 390 l 2
 819.932617188 390 839.999023438 372.077148438 839.999023438 350 c 0
 839.999023438 327.923828125 819.932617188 310 799.999023438 310 c 2
 199.998046875 310 l 2
EndSplineSet
Validated: 1
EndChar

StartChar: uni30BA
Encoding: 215 12474 167
Width: 1175
Flags: W
HStem: -125 250<980.127 1119.87> -40 80<164.377 522.429> 460 80<164.377 521.878>
VStem: 560 79.4749<92.3893 218.543> 925 250<-69.873 69.873>
LayerCount: 2
Fore
SplineSet
925 0 m 28xb8
 925 69 981 125 1050 125 c 28
 1119 125 1175 69 1175 0 c 28
 1175 -69 1119 -125 1050 -125 c 28
 981 -125 925 -69 925 0 c 28xb8
497.911228581 40 m 1x78
 515.554931742 44.328582641 560 87.8415784195 560 250 c 0
 560 282.643142268 558.465355361 367.574930147 532.03783109 422.190448944 c 0
 526.435565287 432.809547642 514.492570144 455.447503181 497.722784178 460 c 1
 199.998306274 460 l 2
 177.921706274 460 159.998306274 477.9234 159.998306274 500 c 0
 159.998306274 522.0766 177.921706274 540 199.998306274 540 c 2
 500 540 l 2
 507.126750357 539.999999991 562.311169181 536.26674248 603.821994517 457.582944396 c 0
 835.40171863 18.6234174449 835.40171863 18.6234174449 835.40171863 18.6234174449 c 2
 838.33682178 13.0599273973 839.998779297 6.72251762139 839.998779297 3.11903280981e-15 c 0
 839.998779297 -22.0766 822.075379297 -40 799.998779297 -40 c 0
 784.644696918 -40 771.299550998 -31.3303063389 764.595839963 -18.6234174449 c 2
 639.474917911 218.543376696 l 1
 636.14128003 121.521219868 617.254618212 60.7840102257 592.014662608 21.3465795949 c 0
 572.589271675 -9.00559373873 549.20836589 -25.5671025768 530.422812966 -33.2660996766 c 0
 515.497040086 -39.3832197093 504.156809579 -39.9999999946 500 -40 c 2
 199.998306274 -40 l 2
 177.921706274 -40 159.998306274 -22.0766 159.998306274 0 c 0
 159.998306274 22.0766 177.921706274 40 199.998306274 40 c 2
 497.911228581 40 l 1x78
EndSplineSet
Validated: 1
EndChar

StartChar: uni30BC
Encoding: 216 12476 168
Width: 1225
Flags: W
HStem: -125 250<1030.13 1169.87> 210 80<236.96 453.875 546.125 763.04>
VStem: 975 250<-69.873 69.873>
LayerCount: 2
Fore
SplineSet
975 0 m 28
 975 69 1031 125 1100 125 c 28
 1169 125 1225 69 1225 0 c 28
 1225 -69 1169 -125 1100 -125 c 28
 1031 -125 975 -69 975 0 c 28
850 250 m 1024
850 250 m 1024
422.887300401 506.91557621 m 1
 236.95966365 290 l 1
 453.875239859 290 l 1
 422.887300401 506.91557621 l 1
850 290 m 2
 872.0766 290 890 272.0766 890 250 c 0
 890 240.072927809 886.375914962 230.985626531 880.379753226 223.990104506 c 2
 580.379753226 -126.009895494 l 2
 573.041181253 -134.571562796 562.149527809 -140 550 -140 c 0
 529.857465017 -140 513.172306892 -125.07946923 510.403426846 -105.69730891 c 2
 465.303811288 210 l 1
 150 210 l 2
 127.9234 210 110 227.9234 110 250 c 0
 110 259.927072191 113.624085038 269.014373469 119.620246774 276.009895494 c 2
 419.620246774 626.009895494 l 2
 426.958818747 634.571562796 437.850472191 640 450 640 c 0
 470.142534983 640 486.827693108 625.07946923 489.596573154 605.69730891 c 2
 534.696188712 290 l 1
 850 290 l 2
546.124760141 210 m 1
 577.112699599 -6.91557620954 l 1
 763.04033635 210 l 1
 546.124760141 210 l 1
EndSplineSet
Validated: 1
EndChar

StartChar: uni30BE
Encoding: 217 12478 169
Width: 1175
Flags: W
HStem: -140 80<429.213 570.787> -125 250<980.127 1119.87> 210 80<435.898 564.102> 560 80<435.802 564.197>
VStem: 285 80<4.21328 146.779 362.691 488.308> 635 80<4.21328 146.779 362.692 488.309> 925 250<-69.873 69.873>
LayerCount: 2
Fore
SplineSet
925 0 m 28x7e
 925 69 981 125 1050 125 c 28
 1119 125 1175 69 1175 0 c 28
 1175 -69 1119 -125 1050 -125 c 28
 981 -125 925 -69 925 0 c 28x7e
635 425 m 0
 635 489.182617188 561.86328125 560 500 560 c 0
 438.134765625 560 365 489.180664062 365 425 c 0
 365 360.817382812 438.13671875 290 500 290 c 0
 561.865234375 290 635 360.819335938 635 425 c 0
500 640 m 24
 619 640 715 544 715 425 c 16
 715 357.985351562 673.224609375 290.971679688 615.71484375 250 c 1
 673.224609375 209.028320312 715 142.014648438 715 75 c 8
 715 -44 619 -140 500 -140 c 24xbe
 381 -140 285 -44 285 75 c 16
 285 142.014648438 326.775390625 209.028320312 384.28515625 250 c 1
 326.775390625 290.971679688 285 357.985351562 285 425 c 8
 285 544 381 640 500 640 c 24
500 210 m 24
 426 210 365 149 365 75 c 24
 365 1 426 -60 500 -60 c 24
 574 -60 635 1 635 75 c 24
 635 149 574 210 500 210 c 24
EndSplineSet
Validated: 1
EndChar

StartChar: uni30C0
Encoding: 218 12480 170
Width: 1225
Flags: W
HStem: -140 80<114.379 460 540 885.621> -125 250<1030.13 1169.87>
VStem: 460 80<-60 634.734> 975 250<-69.873 69.873>
LayerCount: 2
Fore
SplineSet
975 0 m 28x70
 975 69 1031 125 1100 125 c 28
 1169 125 1225 69 1225 0 c 28
 1225 -69 1169 -125 1100 -125 c 28
 1031 -125 975 -69 975 0 c 28x70
460 600 m 2
 460 617.306161195 477.923828125 640 500 640 c 0
 522.076171875 640 540 617.306161195 540 600 c 2
 540 -60 l 1
 850 -60 l 2
 872.076171875 -60 890 -77.923828125 890 -100 c 0
 890 -122.076171875 872.076171875 -140 850 -140 c 0
 616.666992188 -140 383.333007812 -140 150 -140 c 0
 127.923828125 -140 110 -122.076171875 110 -100 c 0
 110 -77.923828125 127.923828125 -60 150 -60 c 2
 460 -60 l 1xb0
 460 600 l 2
EndSplineSet
Validated: 1
EndChar

StartChar: uni30C2
Encoding: 219 12482 171
Width: 1175
Flags: W
HStem: -125 250<980.127 1119.87> 310 80<164.377 199.998 799.999 835.62>
VStem: 350 300<-77.7558 76.6714> 460 80<144.599 309.88 600.001 635.622> 925 250<-69.873 69.873>
LayerCount: 2
Fore
SplineSet
925 0 m 28xc8
 925 69 981 125 1050 125 c 28
 1119 125 1175 69 1175 0 c 28
 1175 -69 1119 -125 1050 -125 c 28
 981 -125 925 -69 925 0 c 28xc8
540 144.598632812 m 1xd8
 540 144.598443217 540 310 540 310 c 1
 799.999023438 310 l 2
 822.075623437 310 839.999023438 327.9234 839.999023438 350 c 0
 839.999023438 372.0766 822.075623437 390 799.999023438 390 c 2
 540 390 l 1
 540 600.000915527 l 2
 540 622.077515527 522.0766 640.000915527 500 640.000915527 c 0
 477.9234 640.000915527 460 622.077515527 460 600.000915527 c 2
 460 390 l 1
 199.998046875 390 l 2
 177.921446875 390 159.998046875 372.0766 159.998046875 350 c 0
 159.998046875 327.9234 177.921446875 310 199.998046875 310 c 2
 460 310 l 1
 460 310 460 144.598443217 460 144.598632812 c 1xd8
 396.60546875 127.075195312 350 71 350 -0 c 16
 350 -82.787109375 417 -150 500 -150 c 24
 583 -150 650 -83 650 -0 c 16xe8
 650 68.9373017468 603.39453125 127.075195312 540 144.598632812 c 1xd8
EndSplineSet
Validated: 41
EndChar

StartChar: uni30C5
Encoding: 220 12485 172
Width: 1175
Flags: W
HStem: -140 80<362.442 637.569> -125 250<980.127 1119.87>
VStem: 160 79.998<38.2634 100.321 600.001 635.622> 359.998 80<198.378 620.621> 560 80<198.378 620.621> 760 80<38.2974 100.321 600.001 635.622> 925 250<-69.873 69.873>
LayerCount: 2
Fore
SplineSet
925 0 m 28x7e
 925 69 981 125 1050 125 c 28
 1119 125 1175 69 1175 0 c 28
 1175 -69 1119 -125 1050 -125 c 28
 981 -125 925 -69 925 0 c 28x7e
500 -140 m 0xbe
 803.080078125 -140 840 53.69921875 840 100.000976562 c 2
 840 600.000976562 l 2
 840 622.077148438 822.076171875 640.000976562 800 640.000976562 c 0
 777.923828125 640.000976562 760 622.077148438 760 600.000976562 c 2
 760 100.321289062 l 2
 759.880859375 96.9130859375 757.59375 51.51171875 719.376953125 10.7470703125 c 0
 687.12890625 -23.6513671875 625.387695312 -60 500 -60 c 0
 374.612304688 -60 312.87109375 -23.6513671875 280.622070312 10.7470703125 c 0
 262.395507812 30.189453125 252.368164062 50.546875 246.759765625 67.2978515625 c 0
 240.693359375 85.4150390625 240.04296875 99.0361328125 239.998046875 100.321289062 c 0
 239.998046875 266.880859375 240 433.44140625 240 600.000976562 c 0
 240 622.077148438 222.076171875 640.000976562 200 640.000976562 c 0
 177.923828125 640.000976562 160 622.077148438 160 600.000976562 c 2
 160 100.000976562 l 2
 160 53.6201171875 196.986328125 -140 500 -140 c 0xbe
359.998046875 585 m 2
 359.998046875 607.076171875 377.921875 625 399.998046875 625 c 0
 422.07421875 625 439.998046875 607.076171875 439.998046875 585 c 2
 439.998046875 233.999023438 l 2
 439.998046875 211.922851562 422.07421875 193.999023438 399.998046875 193.999023438 c 0
 377.921875 193.999023438 359.998046875 211.922851562 359.998046875 233.999023438 c 2
 359.998046875 585 l 2
560 585 m 2
 560 607.076171875 577.923828125 625 600 625 c 0
 622.076171875 625 640 607.076171875 640 585 c 2
 640 233.999023438 l 2
 640 211.922851562 622.076171875 193.999023438 600 193.999023438 c 0
 577.923828125 193.999023438 560 211.922851562 560 233.999023438 c 2
 560 585 l 2
EndSplineSet
Validated: 9
EndChar

StartChar: uni30C7
Encoding: 221 12487 173
Width: 1225
Flags: W
HStem: -125 250<1030.13 1169.87> 310 80<246.557 753.443> 460 80<114.379 885.621>
VStem: 975 250<-69.873 69.873>
LayerCount: 2
Fore
SplineSet
975 0 m 28
 975 69 1031 125 1100 125 c 28
 1169 125 1225 69 1225 0 c 28
 1225 -69 1169 -125 1100 -125 c 28
 1031 -125 975 -69 975 0 c 28
150 460 m 2
 127.9234 460 110 477.9234 110 500 c 0
 110 522.0766 127.9234 540 150 540 c 2
 850 540 l 2
 872.0766 540 890 522.0766 890 500 c 0
 890 477.9234 872.0766 460 850 460 c 2
 150 460 l 2
150 390 m 2
 850 390 l 2
 872.0766 390 890 372.0766 890 350 c 0
 890 338.9617 885.51915 328.9617 878.278725 321.721275 c 2
 528.278725 -28.278725 l 2
 521.0383 -35.51915 511.0383 -40 500 -40 c 0
 488.9617 -40 478.9617 -35.51915 471.721275 -28.278725 c 2
 121.721275 321.721275 l 2
 114.48085 328.9617 110 338.9617 110 350 c 0
 110 372.0766 127.9234 390 150 390 c 2
246.55745 310 m 1
 500 56.55745 l 1
 753.44255 310 l 1
 246.55745 310 l 1
EndSplineSet
Validated: 1
EndChar

StartChar: uni30C9
Encoding: 222 12489 174
Width: 1125
Flags: W
HStem: -125 250<930.127 1069.87> -36.5755 81.7434<411.147 460 540 588.851> 454.783 81.7649<411.494 460 540 588.853>
VStem: 210 80<168.885 331.671> 460 80<-135.621 -32.6972 45.2172 454.783 532.697 635.622> 710 80<168.611 331.388> 875 250<-69.873 69.873>
LayerCount: 2
Fore
SplineSet
875 0 m 28xbe
 875 69 931 125 1000 125 c 28
 1069 125 1125 69 1125 0 c 28
 1125 -69 1069 -125 1000 -125 c 28
 931 -125 875 -69 875 0 c 28xbe
460 600.000915527 m 2
 460 622.077515527 477.9234 640.000915527 500 640.000915527 c 0
 522.0766 640.000915527 540 622.077515527 540 600.000915527 c 2
 540 536.575476922 l 1
 672.738923391 513.990067895 790 383.223059427 790 250 c 0
 790 116.771034819 672.734026525 -13.9901933282 540 -36.5753657711 c 1
 540 -100 l 2
 540 -122.0766 522.0766 -140 500 -140 c 0
 477.9234 -140 460 -122.0766 460 -100 c 2
 460 -36.5754769218 l 1x7e
 327.261076609 -13.9900678951 210 116.776940573 210 250 c 0
 210 384.677881522 328.470253307 514.020492139 460 536.547652675 c 1
 460 600.000915527 l 2
540 45.2172486513 m 1
 628.263948629 67.8069499198 710 160.098016912 710 250 c 0
 710 339.903907307 628.2625068 432.193099314 540 454.782672036 c 1
 540 45.2172486513 l 1
460 45.1678863809 m 1
 460 454.782751349 l 1
 371.736051371 432.19305008 290 339.901983088 290 250 c 0
 290 161.317840542 370.823598207 67.8388200243 460 45.1678863809 c 1
EndSplineSet
Validated: 1
EndChar

StartChar: uni30D0
Encoding: 223 12496 175
Width: 1225
Flags: W
HStem: -125 250<1030.13 1169.87> -40 80<114.379 460 540 885.621> 460 80<114.379 460 540 885.621>
VStem: 460 80<40 460> 975 250<-69.873 69.873>
LayerCount: 2
Fore
SplineSet
975 0 m 28xb8
 975 69 1031 125 1100 125 c 28
 1169 125 1225 69 1225 0 c 28
 1225 -69 1169 -125 1100 -125 c 28
 1031 -125 975 -69 975 0 c 28xb8
150 460 m 2
 127.923828125 460 110 477.923828125 110 500 c 0
 110 522.076171875 127.923828125 540 150 540 c 0
 383.333007812 540 616.666992188 540 850 540 c 0
 872.076171875 540 890 522.076171875 890 500 c 0
 890 477.923828125 872.076171875 460 850 460 c 2
 540 460 l 1
 540 40 l 1
 850 40 l 2
 872.076171875 40 890 22.076171875 890 0 c 0
 890 -22.076171875 872.076171875 -40 850 -40 c 0
 616.666992188 -40 383.333007812 -40 150 -40 c 0
 127.923828125 -40 110 -22.076171875 110 0 c 0
 110 22.076171875 127.923828125 40 150 40 c 2
 460 40 l 1x78
 460 460 l 1
 150 460 l 2
EndSplineSet
Validated: 1
EndChar

StartChar: uni30D3
Encoding: 224 12499 176
Width: 1225
Flags: W
HStem: -140 80<190 885.621> -125 250<1030.13 1169.87> 200 300<522.15 677.85>
VStem: 110 80<-60 635.622> 450 300<272.15 427.85> 975 250<-69.873 69.873>
LayerCount: 2
Fore
SplineSet
975 0 m 28x7c
 975 69 1031 125 1100 125 c 28
 1169 125 1225 69 1225 0 c 28
 1225 -69 1169 -125 1100 -125 c 28
 1031 -125 975 -69 975 0 c 28x7c
450 350 m 24
 450 433 517 500 600 500 c 24
 683 500 750 433 750 350 c 24
 750 267 683 200 600 200 c 24
 517 200 450 267 450 350 c 24
150 640.000976562 m 0
 172.076171875 640.000976562 190 622.077148438 190 600.000976562 c 2
 190 -60 l 1
 850 -60 l 2
 872.076171875 -60 890 -77.923828125 890 -100 c 0
 890 -122.076171875 872.076171875 -140 850 -140 c 2
 150 -140 l 2xbc
 127.923828125 -140 110 -122.076171875 110 -100 c 2
 110 600.000976562 l 2
 110 622.077148438 127.923828125 640.000976562 150 640.000976562 c 0
EndSplineSet
Validated: 1
EndChar

StartChar: uni30D6
Encoding: 225 12502 177
Width: 1225
Flags: W
HStem: -125 250<1030.13 1169.87> -40 80<114.377 720.258> 460 80<114.379 721.234>
VStem: 810.001 80<136.08 362.891> 975 250<-69.873 69.873>
LayerCount: 2
Fore
SplineSet
975 0 m 28xb8
 975 69 1031 125 1100 125 c 28
 1169 125 1225 69 1225 0 c 28
 1225 -69 1169 -125 1100 -125 c 28
 1031 -125 975 -69 975 0 c 28xb8
890.000976562 250 m 0
 890.000976562 -0.880859375 704.33984375 -40.0068359375 650.802734375 -40.0068359375 c 2
 149.998046875 -40 l 2
 127.921875 -40 109.998046875 -22.076171875 109.998046875 0 c 0
 109.998046875 22.076171875 127.921875 40 149.998046875 40 c 2
 649.778320312 40 l 2x78
 656.16015625 40.150390625 741.166992188 43.67578125 783.99609375 125.317382812 c 0
 798.938476562 153.801757812 810.000976562 193.603515625 810.000976562 250 c 0
 810.000976562 328.497070312 788.487304688 405.78515625 715.552734375 442.252929688 c 0
 713.754882812 443.151367188 681.108398438 459.264648438 649.780273438 460.001953125 c 0
 483.186523438 460.001953125 316.59375 460 150 460 c 0
 127.923828125 460 110 477.923828125 110 500 c 0
 110 522.076171875 127.922851562 540 150 540 c 2
 650 540 l 2
 707.260742188 539.999023438 890.000976562 498.849609375 890.000976562 250 c 0
EndSplineSet
Validated: 1
EndChar

StartChar: uni30D9
Encoding: 226 12505 178
Width: 1225
Flags: W
HStem: -125 250<1030.13 1169.87> 460 80<114.379 885.621>
VStem: 975 250<-69.873 69.873>
LayerCount: 2
Fore
SplineSet
975 0 m 28
 975 69 1031 125 1100 125 c 28
 1169 125 1225 69 1225 0 c 28
 1225 -69 1169 -125 1100 -125 c 28
 1031 -125 975 -69 975 0 c 28
150 460 m 2
 127.923828125 460 110 477.923828125 110 500 c 0
 110 522.076171875 127.923828125 540 150 540 c 2
 850 540 l 2
 872.076171875 540 890 522.076171875 890 500 c 0
 890 477.923828125 872.076171875 460 850 460 c 2
 150 460 l 2
149.99609375 -40 m 2
 849.99609375 -40 l 2
 872.072265625 -40 889.99609375 -22.076171875 889.99609375 0 c 0
 889.99609375 11.0380859375 885.515625 21.0380859375 878.274414062 28.2783203125 c 2
 528.274414062 378.278320312 l 2
 521.034179688 385.51953125 511.034179688 390 499.99609375 390 c 0
 488.958007812 390 478.958007812 385.51953125 471.717773438 378.278320312 c 2
 121.717773438 28.2783203125 l 2
 114.4765625 21.0380859375 109.99609375 11.0380859375 109.99609375 0 c 0
 109.99609375 -22.076171875 127.919921875 -40 149.99609375 -40 c 2
246.553710938 40 m 1
 499.99609375 293.442382812 l 1
 753.438476562 40 l 1
 246.553710938 40 l 1
EndSplineSet
Validated: 9
EndChar

StartChar: uni30DC
Encoding: 227 12508 179
Width: 1185
Flags: W
HStem: -125 250<990.127 1129.87>
VStem: 935 250<-69.873 69.873>
LayerCount: 2
Fore
SplineSet
935 0 m 28
 935 69 991 125 1060 125 c 28
 1129 125 1185 69 1185 0 c 28
 1185 -69 1129 -125 1060 -125 c 28
 991 -125 935 -69 935 0 c 28
234 210 m 0
 460 210 l 1
 460 -16 l 0
 353.909179688 4.69921875 254.625 103.895507812 234 210 c 0
500 600 m 0
 325 600 150 425 150 250 c 0
 150 75 325 -100 500 -100 c 0
 675 -100 850 75 850 250 c 0
 850 425 675 600 500 600 c 0
766 290 m 0
 540 290 l 1
 540 516 l 0
 646.104492188 495.375 745.220703125 396.899414062 766 290 c 0
540 210 m 1
 766 210 l 1
 745.375 103.895507812 646.104492188 4.625 540 -16 c 1
 540 210 l 1
234 290 m 1
 254.779296875 396.899414062 353.895507812 495.375 460 516 c 0
 460 290 l 1
 234 290 l 1
EndSplineSet
Validated: 9
EndChar

StartChar: uni30D1
Encoding: 228 12497 180
Width: 1225
Flags: W
HStem: -125 60<76.6292 173.371> 65 60<76.6292 173.371>
VStem: 0 60<-48.3708 48.3708> 190 60<-48.3708 48.3708>
LayerCount: 2
Fore
SplineSet
975 0 m 28
 975 69 1031 125 1100 125 c 28
 1169 125 1225 69 1225 0 c 28
 1225 -69 1169 -125 1100 -125 c 28
 1031 -125 975 -69 975 0 c 28
1035 0 m 28
 1035 -36 1064 -65 1100 -65 c 28
 1136 -65 1165 -36 1165 0 c 28
 1165 36 1136 65 1100 65 c 28
 1064 65 1035 36 1035 0 c 28
150 460 m 2
 127.9234 460 110 477.9234 110 500 c 0
 110 522.0766 127.9234 540 150 540 c 0
 383.333333333 540 616.666666667 540 850 540 c 0
 872.0766 540 890 522.0766 890 500 c 0
 890 477.9234 872.0766 460 850 460 c 2
 540 460 l 1
 540 40 l 1
 850 40 l 2
 872.0766 40 890 22.0766 890 0 c 0
 890 -22.0766 872.0766 -40 850 -40 c 0
 616.666666667 -40 383.333333333 -40 150 -40 c 0
 127.9234 -40 110 -22.0766 110 0 c 0
 110 22.0766 127.9234 40 150 40 c 2
 460 40 l 1
 460 460 l 1
 150 460 l 2
EndSplineSet
Validated: 1
EndChar

StartChar: uni30D4
Encoding: 229 12500 181
Width: 1225
Flags: W
HStem: -140 80<190 885.621> 200 300<522.244 677.756>
VStem: 110 80<-60 635.622> 450 300<272.244 427.756>
LayerCount: 2
Fore
SplineSet
975 0 m 28
 975 69 1031 125 1100 125 c 28
 1169 125 1225 69 1225 0 c 28
 1225 -69 1169 -125 1100 -125 c 28
 1031 -125 975 -69 975 0 c 28
1035 0 m 28
 1035 -36 1064 -65 1100 -65 c 28
 1136 -65 1165 -36 1165 0 c 28
 1165 36 1136 65 1100 65 c 28
 1064 65 1035 36 1035 0 c 28
450 350 m 24
 450 433 517 500 600 500 c 24
 683 500 750 433 750 350 c 24
 750 267 683 200 600 200 c 24
 517 200 450 267 450 350 c 24
150 640.000915527 m 0
 172.0766 640.000915527 190 622.077515527 190 600.000915527 c 2
 190 -60 l 1
 850 -60 l 2
 872.0766 -60 890 -77.9234 890 -100 c 0
 890 -122.0766 872.0766 -140 850 -140 c 2
 150 -140 l 2
 127.9234 -140 110 -122.0766 110 -100 c 2
 110 600.000915527 l 2
 110 622.077515527 127.9234 640.000915527 150 640.000915527 c 0
EndSplineSet
Validated: 1
EndChar

StartChar: uni30D7
Encoding: 230 12503 182
Width: 1225
Flags: W
HStem: -40 80<114.377 720.258> 460 80<114.379 721.234>
VStem: 810.001 80<136.08 362.891>
LayerCount: 2
Fore
SplineSet
975 0 m 28
 975 69 1031 125 1100 125 c 28
 1169 125 1225 69 1225 0 c 28
 1225 -69 1169 -125 1100 -125 c 28
 1031 -125 975 -69 975 0 c 28
1035 0 m 28
 1035 -36 1064 -65 1100 -65 c 28
 1136 -65 1165 -36 1165 0 c 28
 1165 36 1136 65 1100 65 c 28
 1064 65 1035 36 1035 0 c 28
890.000976562 250 m 0
 890.000976562 -0.880840382675 704.340330287 -40.0063531154 650.802250685 -40.0063531154 c 2
 149.998046875 -40 l 2
 127.921446875 -40 109.998046875 -22.0766 109.998046875 0 c 0
 109.998046875 22.0766 127.921446875 40 149.998046875 40 c 2
 649.778444223 40 l 2
 656.160374898 40.1500202634 741.166691459 43.675393919 783.99598442 125.317537697 c 0
 798.938516711 153.801322633 810.000976562 193.603719306 810.000976562 250 c 0
 810.000976562 328.496600529 788.487001036 405.785139762 715.552436943 442.252955994 c 0
 713.755046406 443.151664427 681.108277222 459.264938033 649.780120627 460.00195227 c 0
 483.186800195 460.00195227 316.593479762 460 150.000159329 460 c 0
 127.923559329 460 110 477.9234 110 500 c 0
 110 522.07654689 127.923313763 539.999913763 149.999840671 540 c 2
 650.000398346 540 l 2
 707.260963354 539.999440781 890.000976562 498.849356877 890.000976562 250 c 0
EndSplineSet
Validated: 1
EndChar

StartChar: uni30DA
Encoding: 231 12506 183
Width: 1225
Flags: W
HStem: 460 80<114.379 885.621>
LayerCount: 2
Fore
SplineSet
975 0 m 28
 975 69 1031 125 1100 125 c 28
 1169 125 1225 69 1225 0 c 28
 1225 -69 1169 -125 1100 -125 c 28
 1031 -125 975 -69 975 0 c 28
1035 0 m 28
 1035 -36 1064 -65 1100 -65 c 28
 1136 -65 1165 -36 1165 0 c 28
 1165 36 1136 65 1100 65 c 28
 1064 65 1035 36 1035 0 c 28
150 460 m 2
 127.9234 460 110 477.9234 110 500 c 0
 110 522.0766 127.9234 540 150 540 c 2
 850 540 l 2
 872.0766 540 890 522.0766 890 500 c 0
 890 477.9234 872.0766 460 850 460 c 2
 150 460 l 2
149.99609375 -40 m 2
 849.99609375 -40 l 2
 872.072265625 -40 889.99609375 -22.076171875 889.99609375 -0 c 0
 889.99609375 11.0380859375 885.515625 21.0380859375 878.274414062 28.2783203125 c 2
 528.274414062 378.278320312 l 2
 521.034179688 385.51953125 511.034179688 390 499.99609375 390 c 0
 488.958007812 390 478.958007812 385.51953125 471.717773438 378.278320312 c 2
 121.717773438 28.2783203125 l 2
 114.4765625 21.0380859375 109.99609375 11.0380859375 109.99609375 -0 c 0
 109.99609375 -22.076171875 127.919921875 -40 149.99609375 -40 c 2
246.553710938 40 m 1
 499.99609375 293.442382812 l 1
 753.438476562 40 l 1
 246.553710938 40 l 1
EndSplineSet
Validated: 9
EndChar

StartChar: uni30DD
Encoding: 232 12509 184
Width: 1185
Flags: W
HStem: -125 60<1011.6 1108.4> 65 60<1011.6 1108.4>
VStem: 935 60<-48.3952 48.3952> 1125 60<-48.3952 48.3952>
LayerCount: 2
Fore
SplineSet
935 0 m 28
 935 69 991 125 1060 125 c 28
 1129 125 1185 69 1185 0 c 28
 1185 -69 1129 -125 1060 -125 c 28
 991 -125 935 -69 935 0 c 28
995 0 m 28
 995 -36 1024 -65 1060 -65 c 28
 1096 -65 1125 -36 1125 0 c 28
 1125 36 1096 65 1060 65 c 28
 1024 65 995 36 995 0 c 28
234 210 m 0
 460 210 l 1
 460 -16 l 0
 353.909179688 4.69921875 254.62454431 103.895917741 234 210 c 0
500 600 m 0
 325 600 150 425 150 250 c 0
 150 75 325 -100 500 -100 c 0
 675 -100 850 75 850 250 c 0
 850 425 675 600 500 600 c 0
766 290 m 0
 540 290 l 1
 540 516 l 0
 646.104082259 495.37545569 745.220900403 396.899200277 766 290 c 0
540 210 m 1
 766 210 l 1
 745.37545569 103.895917741 646.104082259 4.62454431025 540 -16 c 1
 540 210 l 1
234 290 m 1
 254.779099597 396.899200277 353.895917741 495.37545569 460 516 c 0
 460 290 l 1
 234 290 l 1
EndSplineSet
Validated: 9
EndChar

StartChar: uni30A1
Encoding: 233 12449 185
Width: 740
Flags: W
HStem: 310 80<158 422.069>
LayerCount: 2
Fore
SplineSet
142 390 m 0
 216 390 365 390 439 390 c 0
 445 390 451 390 456 390 c 1
 553 616 l 2
 559 630 574 640 590 640 c 0
 612 640 630 622 630 600 c 0
 630 594 629 589 627 584 c 0
 327 -116 327 -116 327 -116 c 2
 321 -130 306 -140 290 -140 c 0
 274 -140 259 -130 253 -116 c 2
 -47 584 l 26
 -50 590 -50 594 -50 600 c 0
 -50 622 -32 640 -10 640 c 0
 6 640 21 630 27 616 c 2
 123.407226562 390.274414062 l 1
 128.797851562 390.284179688 135 390 142 390 c 0
158 310 m 1
 290 1.55859375 l 1
 422.069335938 309.719726562 l 1
 420.501953125 309.720703125 160 310 158 310 c 1
EndSplineSet
Validated: 1
EndChar

StartChar: uni30A3
Encoding: 234 12451 186
Width: 350
Flags: W
HStem: 100 300<22.244 177.756>
VStem: -50 300<172.244 327.756>
LayerCount: 2
Fore
SplineSet
100 250 m 1049
-50 250 m 28
 -50 333 17 400 100 400 c 24
 183 400 250 333 250 250 c 24
 250 167 183 100 100 100 c 24
 17 100 -50 167 -50 250 c 28
EndSplineSet
Validated: 1
EndChar

StartChar: uni30A5
Encoding: 235 12453 187
Width: 740
Flags: W
HStem: 560.001 80<152.442 427.569>
VStem: -50 80<-135.621 461.738> 550 80<-135.621 461.703>
LayerCount: 2
Fore
SplineSet
290 640.000976562 m 0
 593.080078125 640.000976562 630 446.30078125 630 400 c 2
 630 -100 l 2
 630 -122.076171875 612.076171875 -140 590 -140 c 0
 567.923828125 -140 550 -122.076171875 550 -100 c 2
 550 399.6796875 l 2
 549.880859375 403.087890625 547.59375 448.489257812 509.376953125 489.25390625 c 0
 477.12890625 523.65234375 415.387695312 560.000976562 290 560.000976562 c 0
 164.612304688 560.000976562 102.87109375 523.65234375 70.6220703125 489.252929688 c 0
 52.3955078125 469.811523438 42.3681640625 449.454101562 36.759765625 432.702148438 c 0
 30.693359375 414.5859375 30.04296875 400.963867188 29.998046875 399.6796875 c 0
 29.998046875 233.120117188 30 66.5595703125 30 -100 c 0
 30 -122.076171875 12.076171875 -140 -10 -140 c 0
 -32.076171875 -140 -50 -122.077148438 -50 -100 c 2
 -50 400 l 2
 -50 446.380859375 -13.013671875 640.000976562 290 640.000976562 c 0
EndSplineSet
Validated: 1
EndChar

StartChar: uni30A7
Encoding: 236 12455 188
Width: 630
Flags: W
HStem: -40 80<54.725 425.275>
LayerCount: 2
Fore
SplineSet
240 410.549804688 m 5
 54.7255859375 40 l 1
 425.274414062 40 l 1
 240 410.549804688 l 5
240 540 m 0
 255.6640625 540 269.236328125 530.977539062 275.80078125 517.849609375 c 2
 525.80078125 17.849609375 l 2
 528.487304688 12.4755859375 530 6.4130859375 530 0 c 0
 530 -22.076171875 512.076171875 -40 490 -40 c 2
 -10 -40 l 2
 -32.076171875 -40 -50 -22.076171875 -50 0 c 0
 -50 6.4130859375 -48.4873046875 12.4755859375 -45.80078125 17.849609375 c 2
 204.19921875 517.849609375 l 2
 210.763671875 530.977539062 224.3359375 540 240 540 c 0
EndSplineSet
Validated: 1
EndChar

StartChar: uni30A9
Encoding: 237 12457 189
Width: 750
Flags: W
HStem: -100 80<209.147 390.853> 520 80<209.147 390.853>
VStem: -50 80<159.147 340.853> 570 80<159.147 340.853>
LayerCount: 2
Fore
SplineSet
300 520 m 24
 151 520 30 399 30 250 c 24
 30 101 151 -20 300 -20 c 24
 449 -20 570 101 570 250 c 24
 570 399 449 520 300 520 c 24
300 600 m 28
 493 600 650 443 650 250 c 24
 650 57 493 -100 300 -100 c 24
 107 -100 -50 57 -50 250 c 24
 -50 443 107 600 300 600 c 28
EndSplineSet
Validated: 1
EndChar

StartChar: uni30EE
Encoding: 238 12526 190
Width: 740
Flags: W
VStem: -50 78.5383<-135.567 -85.6152> 551.462 78.5383<-135.567 -85.6152>
LayerCount: 2
Fore
SplineSet
-10 -140 m 0
 -32.076171875 -140 -50 -122.076171875 -50 -100 c 0
 -50 -96.279296875 -49.4912109375 -92.67578125 -48.5380859375 -89.2568359375 c 2
 146.461914062 610.743164062 l 2
 151.16015625 627.609375 166.64453125 640 185 640 c 0
 203.27734375 640 218.708007812 627.71484375 223.477539062 610.958984375 c 2
 290 377.27734375 l 1
 356.522460938 610.958984375 l 2
 361.291992188 627.71484375 376.72265625 640 395 640 c 0
 413.35546875 640 428.83984375 627.609375 433.538085938 610.743164062 c 2
 628.538085938 -89.2568359375 l 2
 629.491210938 -92.67578125 630 -96.279296875 630 -100 c 0
 630 -122.076171875 612.076171875 -140 590 -140 c 0
 571.64453125 -140 556.16015625 -127.609375 551.461914062 -110.743164062 c 2
 394.583007812 452.411132812 l 1
 331.59765625 231.154296875 l 1
 418.477539062 -74.041015625 l 2
 419.46875 -77.5244140625 420 -81.2001953125 420 -85 c 0
 420 -107.076171875 402.076171875 -125 380 -125 c 0
 361.72265625 -125 346.291992188 -112.71484375 341.522460938 -95.958984375 c 2
 290 85.0302734375 l 1
 238.477539062 -95.958984375 l 2
 233.708007812 -112.71484375 218.27734375 -125 200 -125 c 0
 177.923828125 -125 160 -107.076171875 160 -85 c 0
 160 -81.2001953125 160.53125 -77.5244140625 161.522460938 -74.041015625 c 2
 248.40234375 231.154296875 l 1
 185.416992188 452.411132812 l 1
 28.5380859375 -110.743164062 l 2
 23.83984375 -127.609375 8.35546875 -140 -10 -140 c 0
EndSplineSet
Validated: 1
EndChar

StartChar: uni30C3
Encoding: 239 12483 191
Width: 740
Flags: W
HStem: -140 80<152.442 427.569>
VStem: -50 79.998<38.2634 100.321 600.001 635.622> 149.998 80<198.378 620.621> 350 80<198.378 620.621> 550 80<38.2974 100.321 600.001 635.622>
LayerCount: 2
Fore
SplineSet
290 -140 m 0
 593.080078125 -140 630 53.69921875 630 100.000976562 c 2
 630 600.000976562 l 2
 630 622.077148438 612.076171875 640.000976562 590 640.000976562 c 0
 567.923828125 640.000976562 550 622.077148438 550 600.000976562 c 2
 550 100.321289062 l 2
 549.880859375 96.9130859375 547.59375 51.51171875 509.376953125 10.7470703125 c 0
 477.12890625 -23.6513671875 415.387695312 -60 290 -60 c 0
 164.612304688 -60 102.87109375 -23.6513671875 70.6220703125 10.7470703125 c 0
 52.3955078125 30.189453125 42.3681640625 50.546875 36.759765625 67.2978515625 c 0
 30.693359375 85.4150390625 30.04296875 99.0361328125 29.998046875 100.321289062 c 0
 29.998046875 266.880859375 30 433.44140625 30 600.000976562 c 0
 30 622.077148438 12.076171875 640.000976562 -10 640.000976562 c 0
 -32.076171875 640.000976562 -50 622.077148438 -50 600.000976562 c 2
 -50 100.000976562 l 2
 -50 53.6201171875 -13.013671875 -140 290 -140 c 0
149.998046875 585 m 2
 149.998046875 607.076171875 167.921875 625 189.998046875 625 c 0
 212.07421875 625 229.998046875 607.076171875 229.998046875 585 c 2
 229.998046875 233.999023438 l 2
 229.998046875 211.922851562 212.07421875 193.999023438 189.998046875 193.999023438 c 0
 167.921875 193.999023438 149.998046875 211.922851562 149.998046875 233.999023438 c 2
 149.998046875 585 l 2
350 585 m 2
 350 607.076171875 367.923828125 625 390 625 c 0
 412.076171875 625 430 607.076171875 430 585 c 2
 430 233.999023438 l 2
 430 211.922851562 412.076171875 193.999023438 390 193.999023438 c 0
 367.923828125 193.999023438 350 211.922851562 350 233.999023438 c 2
 350 585 l 2
EndSplineSet
Validated: 9
EndChar

StartChar: uni30E3
Encoding: 240 12515 192
Width: 790
Flags: W
HStem: 210 80<356.557 725.621>
LayerCount: 2
Fore
SplineSet
-50 600.000976562 m 0
 -50 622.077148438 -32.076171875 640.000976562 -10 640.000976562 c 0
 1.0380859375 640.000976562 11.0380859375 635.520507812 18.2783203125 628.279296875 c 2
 356.557617188 290 l 1
 690 290 l 2
 712.076171875 290 730 272.076171875 730 250 c 0
 730 227.923828125 712.076171875 210 690 210 c 2
 356.557617188 210 l 1
 18.2783203125 -128.278320312 l 2
 11.0380859375 -135.51953125 1.0380859375 -140 -10 -140 c 0
 -32.076171875 -140 -50 -122.076171875 -50 -100 c 0
 -50 -88.9619140625 -45.51953125 -78.9619140625 -38.2783203125 -71.7216796875 c 2
 283.442382812 250 l 1
 -38.2783203125 571.72265625 l 2
 -45.51953125 578.962890625 -50 588.962890625 -50 600.000976562 c 0
EndSplineSet
Validated: 1
EndChar

StartChar: uni30E5
Encoding: 241 12517 193
Width: 740
Flags: W
HStem: 310 79.4025<104.065 250 330 475.935> 560.001 80<-45.6213 250>
VStem: -50 80<-135.621 247> 250 80<389.403 560.001> 550 80<-135.621 247>
CounterMasks: 1 38
LayerCount: 2
Fore
SplineSet
550 247 m 1
 550 247 515 310 290 310 c 0
 65 310 30 247 30 247 c 1
 30 -100 l 2
 30 -122.076171875 12.076171875 -140 -10 -140 c 0
 -32.076171875 -140 -50 -122.076171875 -50 -100 c 2
 -50 250 l 2
 -50 271.948242188 -34.966796875 312.884765625 22.658203125 343.618164062 c 0
 67.4462890625 367.504882812 136.888671875 385.9140625 250 389.40234375 c 1
 250 560.000976562 l 1
 -10 560.000976562 l 2
 -32.076171875 560.000976562 -50 577.923828125 -50 600.000976562 c 0
 -50 622.077148438 -32.076171875 640.000976562 -10 640.000976562 c 2
 290 640.000976562 l 2
 312.076171875 640.000976562 330 622.077148438 330 600.000976562 c 2
 330 389.40234375 l 1
 443.111328125 385.9140625 512.553710938 367.504882812 557.341796875 343.618164062 c 0
 592.0546875 325.104492188 611.76953125 302.478515625 621.401367188 282.893554688 c 0
 629.03515625 267.37109375 630 254.993164062 630 250 c 2
 630 -100 l 2
 630 -122.076171875 612.076171875 -140 590 -140 c 0
 567.923828125 -140 550 -122.076171875 550 -100 c 2
 550 247 l 1
EndSplineSet
Validated: 1
EndChar

StartChar: uni30E7
Encoding: 242 12519 194
Width: 450
Flags: W
HStem: 550 80<82.0947 217.905>
VStem: -50 80<362.06 497.905> 110 80<-135.607 -100 234 238.659> 270 80<362.776 497.905>
CounterMasks: 1 38
LayerCount: 2
Fore
SplineSet
30 430 m 24
 30 496 84 550 150 550 c 24
 216 550 270 496 270 430 c 24
 270 364 216 310 150 310 c 24
 84 310 30 364 30 430 c 24
110 234.006835938 m 1
 110 -100 l 2
 110 -122 127.923828125 -140 150 -140 c 0
 172.076171875 -140 190 -122 190 -100 c 2
 190 234 l 1
 277.703125 255.190429688 350 335.828125 350 430 c 8
 350 540 260 630 150 630 c 24
 40 630 -50 540 -50 430 c 20
 -50 333.311523438 18.7548828125 252.556640625 110 234.006835938 c 1
EndSplineSet
Validated: 9
EndChar

